700 0 1 0           
30 Autodesk Translation Framework 20 ASM 226.0.3.65535 NT 24 Sun Aug  1 02:51:33 2021 
1 9.999999999999999547e-07 1.000000000000000036e-10 
body $1 -1 $-1 $2 $-1 $3 #
rgb_color-st-attrib $-1 -1 $4 $-1 $0 0.7490196078431372584 0.7490196078431372584 0.7490196078431372584 #
lump $-1 -1 $-1 $-1 $5 $0 #
transform $-1 -1 1 0 0 0 1 0 0 0 1 0 0 0 1 no_rotate no_reflect no_shear #
DXID-attrib $-1 -1 $-1 $1 $0 @10 ASM ENTITY @101 SOSTENEDOR3.IPT|:|5971F627F38A04EEA01E5D1B46CC1B5212E72B7F|:|DA4B9237BACCCDF19C0760CAB7AEC4A8359010B0 #
shell $-1 -1 $-1 $-1 $-1 $6 $-1 $2 #
face $7 -1 $-1 $8 $9 $5 $-1 $10 forward single #
DXID-attrib $-1 -1 $-1 $-1 $6 @10 ASM ENTITY @36 79e52437-2aa0-4daf-92aa-d436640dc7ab #
face $11 -1 $-1 $12 $13 $5 $-1 $14 forward single #
loop $-1 -1 $-1 $-1 $15 $6 #
cone-surface $-1 -1 $-1 40.59252791465078758 229.8480775301220547 237.0000000000000284 0.9848077530122089085 0.1736481776669255295 0 1.227878039689691114 -6.963642403200184461 7.07106781186548794 1 I I 0 -1 10 forward I I I I #
DXID-attrib $-1 -1 $-1 $-1 $8 @10 ASM ENTITY @36 42015108-9baf-4af4-a32b-4ebf6e70ee1b #
face $16 -1 $-1 $17 $18 $5 $-1 $19 forward single #
loop $-1 -1 $-1 $-1 $20 $8 #
plane-surface $-1 -1 $-1 42.32900969132003866 220 247.0000000000000284 0 0 -1 -9.848077530122088419 -1.736481776669255517 -0 forward_v I I I I #
coedge $-1 -1 $-1 $21 $22 $23 $24 forward $9 $-1 #
DXID-attrib $-1 -1 $-1 $-1 $12 @10 ASM ENTITY @36 0901c068-e1a9-438b-ab0d-d28d308df338 #
face $25 -1 $-1 $26 $27 $5 $-1 $28 forward single #
loop $-1 -1 $-1 $-1 $29 $12 #
cone-surface $-1 -1 $-1 40.59252791465078758 229.8480775301220547 763 0.9848077530122089085 0.1736481776669255295 0 1.227878039689691114 -6.963642403200184461 7.07106781186548794 1 I I 0 -1 10 forward I I I I #
coedge $-1 -1 $-1 $30 $31 $22 $32 reversed $13 $-1 #
coedge $-1 -1 $-1 $33 $15 $34 $35 forward $9 $-1 #
coedge $-1 -1 $-1 $15 $33 $20 $32 forward $9 $-1 #
coedge $-1 -1 $-1 $36 $37 $15 $24 reversed $38 $-1 #
edge $-1 -1 $-1 $39 -0.7853981633974466137 $40 0.7853981633974500554 $15 $41 forward @7 unknown #
DXID-attrib $-1 -1 $-1 $-1 $17 @10 ASM ENTITY @36 86990151-55d3-4e11-a817-0d0f1fd2695b #
face $42 -1 $-1 $43 $44 $5 $-1 $45 forward single #
loop $-1 -1 $-1 $-1 $46 $17 #
plane-surface $-1 -1 $-1 42.32900969132003866 220 773 0 0 -1 -9.848077530122088419 -1.736481776669255517 -0 forward_v I I I I #
coedge $-1 -1 $-1 $47 $48 $49 $50 forward $18 $-1 #
coedge $-1 -1 $-1 $51 $20 $52 $53 forward $13 $-1 #
coedge $-1 -1 $-1 $20 $54 $36 $55 reversed $13 $-1 #
edge $-1 -1 $-1 $56 -1.015426611885742236 $39 0 $20 $57 forward @7 tangent #
coedge $-1 -1 $-1 $22 $21 $58 $59 reversed $9 $-1 #
coedge $-1 -1 $-1 $60 $61 $21 $35 reversed $62 $-1 #
edge $-1 -1 $-1 $40 -8.746849937788149529e-16 $63 1.015426611885742236 $34 $64 forward @7 tangent #
coedge $-1 -1 $-1 $65 $23 $31 $55 forward $38 $-1 #
coedge $-1 -1 $-1 $23 $66 $67 $68 reversed $38 $-1 #
loop $-1 -1 $-1 $-1 $65 $69 #
vertex $-1 -1 $-1 $24 $70 #
vertex $-1 -1 $-1 $24 $71 #
ellipse-curve $-1 -1 $-1 40.59252791465078758 229.8480775301220547 237.0000000000000284 0.9848077530122089085 0.1736481776669255017 -7.401486830834376525e-17 1.227878039689691114 -6.963642403200184461 7.07106781186548794 1 I I #
DXID-attrib $-1 -1 $-1 $-1 $26 @10 ASM ENTITY @36 c4e24c51-3144-454d-9eb4-8f6ebef655b7 #
face $72 -1 $-1 $73 $74 $5 $-1 $75 forward single #
loop $-1 -1 $-1 $-1 $76 $26 #
cone-surface $-1 -1 $-1 35.59252791465079468 228.966442626579834 287 -0.9848077530122089085 -0.1736481776669255295 0 1.227878039689692891 -6.963642403200208442 -7.071067811865462183 1 I I 0 -1 10 forward I I I I #
coedge $-1 -1 $-1 $77 $78 $48 $79 reversed $27 $-1 #
coedge $-1 -1 $-1 $80 $29 $81 $82 forward $18 $-1 #
coedge $-1 -1 $-1 $29 $80 $46 $79 forward $18 $-1 #
coedge $-1 -1 $-1 $83 $84 $29 $50 reversed $85 $-1 #
edge $-1 -1 $-1 $86 -0.7853981633974466137 $87 0.7853981633974500554 $29 $88 forward @7 unknown #
coedge $-1 -1 $-1 $89 $30 $90 $91 reversed $13 $-1 #
coedge $-1 -1 $-1 $58 $92 $30 $53 reversed $93 $-1 #
edge $94 -1 $-1 $56 0.9999999999999964473 $95 21.70000000000000639 $30 $96 forward @7 unknown #
coedge $-1 -1 $-1 $31 $89 $97 $98 reversed $13 $-1 #
edge $99 -1 $-1 $39 0.9999999999999964473 $100 21.70000000000000639 $36 $101 forward @7 unknown #
vertex $-1 -1 $-1 $59 $102 #
straight-curve $-1 -1 $-1 40.59252791465078758 229.8480775301220547 247.0000000000000284 9.848077530122088419 1.736481776669255295 0 F -5.78699338461751811 F 3.293297269209389366 #
coedge $-1 -1 $-1 $103 $52 $33 $59 forward $93 $-1 #
edge $-1 -1 $-1 $56 -0.7853981633974466137 $63 0.7853981633974499443 $33 $104 reversed @7 unknown #
coedge $-1 -1 $-1 $105 $34 $106 $107 reversed $62 $-1 #
coedge $-1 -1 $-1 $34 $105 $108 $109 forward $62 $-1 #
loop $-1 -1 $-1 $-1 $34 $110 #
vertex $-1 -1 $-1 $35 $111 #
straight-curve $-1 -1 $-1 42.32900969132003866 220 237.0000000000000284 -9.848077530122088419 -1.736481776669255295 -0 F -3.293297269209389366 F 5.78699338461751811 #
coedge $-1 -1 $-1 $112 $36 $113 $114 reversed $38 $-1 #
coedge $-1 -1 $-1 $37 $112 $115 $116 forward $38 $-1 #
coedge $-1 -1 $-1 $117 $106 $37 $68 forward $118 $-1 #
edge $-1 -1 $-1 $40 23.70000000000000284 $119 28.70000000000000284 $67 $120 forward @7 unknown #
face $121 -1 $-1 $122 $38 $5 $-1 $123 forward single #
point $-1 -1 $-1 40.59252791465078758 229.8480775301220547 247.0000000000000284 #
point $-1 -1 $-1 42.32900969132004576 220 237.0000000000000284 #
DXID-attrib $-1 -1 $-1 $-1 $43 @10 ASM ENTITY @36 6a12c23a-8be2-419c-9b8b-96d9d672bfcf #
face $124 -1 $-1 $125 $126 $5 $-1 $127 forward single #
loop $-1 -1 $-1 $-1 $128 $43 #
plane-surface $-1 -1 $-1 32.32900969132005287 218.2367301929153882 277 0 0 1 9.848077530122088419 1.736481776669255295 0 forward_v I I I I #
coedge $-1 -1 $-1 $129 $130 $131 $132 forward $44 $-1 #
coedge $-1 -1 $-1 $133 $46 $134 $135 forward $27 $-1 #
coedge $-1 -1 $-1 $46 $136 $83 $137 reversed $27 $-1 #
edge $-1 -1 $-1 $138 -1.015426611885742236 $86 0 $46 $139 forward @7 tangent #
coedge $-1 -1 $-1 $48 $47 $140 $141 reversed $18 $-1 #
coedge $-1 -1 $-1 $142 $143 $47 $82 reversed $144 $-1 #
edge $-1 -1 $-1 $87 -8.746849937788149529e-16 $145 1.015426611885742236 $81 $146 forward @7 tangent #
coedge $-1 -1 $-1 $147 $49 $78 $137 forward $85 $-1 #
coedge $-1 -1 $-1 $49 $148 $149 $150 reversed $85 $-1 #
loop $-1 -1 $-1 $-1 $147 $151 #
vertex $-1 -1 $-1 $50 $152 #
vertex $-1 -1 $-1 $50 $153 #
ellipse-curve $-1 -1 $-1 40.59252791465078758 229.8480775301220547 763 0.9848077530122089085 0.1736481776669255017 -7.401486830834376525e-17 1.227878039689691114 -6.963642403200184461 7.07106781186548794 1 I I #
coedge $-1 -1 $-1 $54 $51 $154 $155 reversed $13 $-1 #
coedge $-1 -1 $-1 $156 $157 $51 $91 forward $158 $-1 #
edge $-1 -1 $-1 $159 -0.7853981633974600474 $95 0.7853981633974390641 $51 $160 forward @7 unknown #
coedge $-1 -1 $-1 $52 $161 $156 $162 reversed $93 $-1 #
loop $-1 -1 $-1 $-1 $92 $163 #
DXID-attrib $-1 -1 $-1 $-1 $53 @10 ASM ENTITY @36 07cbeb72-a564-4df7-96f4-781aa0b7d86b #
vertex $-1 -1 $-1 $53 $164 #
straight-curve $-1 -1 $-1 32.32900969132005287 218.2367301929153882 247.0000000000000284 -1.736481776669255073 9.848077530122088419 0 I I #
coedge $-1 -1 $-1 $165 $113 $54 $98 forward $166 $-1 #
edge $-1 -1 $-1 $100 -0.7853981633974371768 $167 0.7853981633974554954 $54 $168 forward @7 unknown #
DXID-attrib $-1 -1 $-1 $-1 $55 @10 ASM ENTITY @36 128ee8a5-c39d-47ff-86d6-c876eec1ca0a #
vertex $-1 -1 $-1 $98 $169 #
straight-curve $-1 -1 $-1 42.32900969132003866 220 247.0000000000000284 -1.736481776669255073 9.848077530122088419 0 I I #
point $-1 -1 $-1 30.5925279146508089 228.0848077230374429 247.0000000000000284 #
coedge $-1 -1 $-1 $131 $58 $170 $171 forward $93 $-1 #
ellipse-curve $-1 -1 $-1 30.5925279146508089 228.0848077230374429 237.0000000000000284 -0.9848077530122089085 -0.1736481776669255017 6.731872517336356154e-18 1.227878039689691114 -6.963642403200184461 7.07106781186548794 1 I I #
coedge $-1 -1 $-1 $61 $60 $172 $173 forward $62 $-1 #
coedge $-1 -1 $-1 $67 $174 $60 $107 forward $118 $-1 #
edge $175 -1 $-1 $176 0 $40 23.70000000000000284 $106 $120 forward @7 unknown #
coedge $-1 -1 $-1 $177 $170 $61 $109 reversed $178 $-1 #
edge $179 -1 $-1 $180 0 $63 23.70000000000000284 $61 $181 forward @7 unknown #
face $182 -1 $-1 $183 $62 $5 $-1 $184 forward single #
point $-1 -1 $-1 32.32900969132005287 218.2367301929153882 237.0000000000000284 #
coedge $-1 -1 $-1 $66 $65 $185 $186 reversed $38 $-1 #
coedge $-1 -1 $-1 $97 $187 $65 $114 forward $166 $-1 #
edge $-1 -1 $-1 $188 -0.75 $100 2.25 $65 $189 forward @7 tangent #
coedge $-1 -1 $-1 $130 $129 $66 $116 reversed $44 $-1 #
edge $-1 -1 $-1 $190 -0.7853981633974501664 $119 0.7853981633974466137 $115 $191 reversed @7 unknown #
coedge $-1 -1 $-1 $149 $67 $142 $192 forward $118 $-1 #
loop $-1 -1 $-1 $-1 $174 $193 #
vertex $-1 -1 $-1 $194 $195 #
straight-curve $-1 -1 $-1 42.32900969132004576 220 0 0 0 10 I I #
DXID-attrib $-1 -1 $-1 $-1 $69 @10 ASM ENTITY @36 474e36ab-e29c-40d3-b8ef-b33b01cd33bb #
face $196 -1 $-1 $151 $197 $5 $-1 $198 forward single #
plane-surface $-1 -1 $-1 42.32900969132003866 220 277 0.9848077530122089085 0.1736481776669255017 -7.401486830834376525e-17 -7.289041614823457777e-16 -1.285254700200137385e-16 -10 forward_v I I I I #
DXID-attrib $-1 -1 $-1 $-1 $73 @10 ASM ENTITY @36 efae5cdf-a464-40fb-a1b6-1424894905d3 #
face $199 -1 $-1 $200 $201 $5 $-1 $202 forward single #
loop $-1 -1 $-1 $-1 $203 $73 #
cone-surface $-1 -1 $-1 35.59252791465080179 228.966442626579834 813 -0.9848077530122089085 -0.1736481776669255295 0 1.227878039689699108 -6.963642403200207553 -7.071067811865461294 1 I I 0 -1 9.999999999999998224 forward I I I I #
coedge $-1 -1 $-1 $185 $204 $130 $205 reversed $74 $-1 #
coedge $-1 -1 $-1 $115 $76 $206 $194 forward $44 $-1 #
coedge $-1 -1 $-1 $76 $115 $128 $205 forward $44 $-1 #
coedge $-1 -1 $-1 $161 $103 $76 $132 reversed $93 $-1 #
edge $-1 -1 $-1 $207 -0.7853981633974501664 $208 0.7853981633974465026 $76 $209 forward @7 unknown #
coedge $-1 -1 $-1 $210 $77 $211 $212 reversed $27 $-1 #
coedge $-1 -1 $-1 $140 $213 $77 $135 reversed $197 $-1 #
edge $214 -1 $-1 $138 0.9999999999999964473 $215 21.70000000000000639 $77 $216 forward @7 unknown #
coedge $-1 -1 $-1 $78 $210 $217 $218 reversed $27 $-1 #
edge $219 -1 $-1 $86 0.9999999999999964473 $220 21.70000000000000639 $83 $221 forward @7 unknown #
vertex $-1 -1 $-1 $141 $222 #
straight-curve $-1 -1 $-1 40.59252791465078758 229.8480775301220547 773 9.848077530122088419 1.736481776669255295 0 F -5.786993384617517222 F 3.293297269209389366 #
coedge $-1 -1 $-1 $223 $134 $80 $141 forward $197 $-1 #
edge $-1 -1 $-1 $138 -0.7853981633974466137 $145 0.7853981633974500554 $80 $224 reversed @7 unknown #
coedge $-1 -1 $-1 $206 $81 $117 $192 reversed $144 $-1 #
coedge $-1 -1 $-1 $81 $206 $225 $226 forward $144 $-1 #
loop $-1 -1 $-1 $-1 $81 $183 #
vertex $-1 -1 $-1 $82 $227 #
straight-curve $-1 -1 $-1 42.32900969132003866 220 763 -9.848077530122088419 -1.736481776669255295 -0 F -3.293297269209389366 F 5.786993384617517222 #
coedge $-1 -1 $-1 $228 $83 $229 $230 reversed $85 $-1 #
coedge $-1 -1 $-1 $84 $228 $231 $232 forward $85 $-1 #
coedge $-1 -1 $-1 $233 $117 $84 $150 forward $118 $-1 #
edge $-1 -1 $-1 $87 76.29999999999999716 $234 81.29999999999999716 $149 $120 forward @7 unknown #
face $235 -1 $-1 $236 $85 $5 $-1 $237 forward single #
point $-1 -1 $-1 40.59252791465078758 229.8480775301220547 773 #
point $-1 -1 $-1 42.32900969132004576 220 763 #
coedge $-1 -1 $-1 $238 $239 $89 $155 forward $240 $-1 #
edge $241 -1 $-1 $167 0.2999999999999999334 $159 0.7154266118857416368 $89 $242 forward @7 unknown #
coedge $-1 -1 $-1 $243 $90 $92 $162 forward $158 $-1 #
coedge $-1 -1 $-1 $90 $243 $238 $244 forward $158 $-1 #
loop $-1 -1 $-1 $-1 $243 $200 #
vertex $-1 -1 $-1 $91 $245 #
ellipse-curve $-1 -1 $-1 -2.398221603366161414 432.4609571295655996 247.0000000000000284 0 0 1 -2.457456132866989051 1.720729309053119938 0 1 I I #
coedge $-1 -1 $-1 $92 $131 $204 $246 forward $93 $-1 #
edge $-1 -1 $-1 $95 -0.75 $247 2.25 $92 $248 forward @7 tangent #
face $249 -1 $-1 $69 $93 $5 $-1 $250 forward single #
point $-1 -1 $-1 -5.352644862402788917 431.9400125965648272 247.0000000000000284 #
coedge $-1 -1 $-1 $187 $97 $239 $251 forward $166 $-1 #
loop $-1 -1 $-1 $-1 $97 $252 #
vertex $-1 -1 $-1 $155 $253 #
ellipse-curve $-1 -1 $-1 1.6929318785605596 433.1823378706486096 247.0000000000000284 0 0 1 1.720729309053170786 2.45745613286695308 0 1 I I #
point $-1 -1 $-1 4.64735513759719332 433.7032824036493821 247.0000000000000284 #
coedge $-1 -1 $-1 $108 $225 $103 $171 reversed $178 $-1 #
edge $-1 -1 $-1 $63 23.70000000000000284 $208 28.70000000000000284 $170 $181 forward @7 unknown #
coedge $-1 -1 $-1 $254 $255 $105 $173 reversed $256 $-1 #
edge $257 -1 $-1 $176 0 $180 1.015426611885743124 $105 $258 forward @7 unknown #
coedge $-1 -1 $-1 $106 $259 $254 $260 forward $118 $-1 #
DXID-attrib $-1 -1 $-1 $-1 $107 @10 ASM ENTITY @36 ea382b9f-bd35-4d8d-9d0b-b11a9ab9b75b #
vertex $-1 -1 $-1 $107 $261 #
coedge $-1 -1 $-1 $262 $108 $255 $263 forward $178 $-1 #
loop $-1 -1 $-1 $-1 $177 $264 #
DXID-attrib $-1 -1 $-1 $-1 $109 @10 ASM ENTITY @36 e3e1a591-13a5-46bd-aefe-4d528728f128 #
vertex $-1 -1 $-1 $173 $265 #
straight-curve $-1 -1 $-1 32.32900969132005287 218.2367301929153882 0 0 0 10 I I #
DXID-attrib $-1 -1 $-1 $-1 $110 @10 ASM ENTITY @36 8e197155-519b-4f12-a61a-2179b9bb18b5 #
face $266 -1 $-1 $267 $144 $5 $-1 $184 forward single #
plane-surface $-1 -1 $-1 42.32900969132004576 220 0 -0.1736481776669255295 0.9848077530122089085 0 -9.848077530122088419 -1.736481776669255295 0 forward_v I I I I #
coedge $-1 -1 $-1 $268 $128 $112 $186 forward $74 $-1 #
edge $269 -1 $-1 $190 1.000000000000003775 $188 21.70000000000000639 $185 $270 forward @7 unknown #
coedge $-1 -1 $-1 $113 $165 $268 $271 forward $166 $-1 #
vertex $-1 -1 $-1 $186 $272 #
straight-curve $-1 -1 $-1 4.647355137597198649 433.7032824036493821 269.5 -7.289041614823457777e-16 -1.285254700200137139e-16 -10 F -1.680001000000000744 F 3.180001000000000744 #
vertex $-1 -1 $-1 $116 $273 #
ellipse-curve $-1 -1 $-1 40.59252791465077337 229.8480775301221115 287 0.9848077530122089085 0.1736481776669255017 -7.401486830834376525e-17 1.227878039689692891 -6.963642403200208442 -7.071067811865462183 1 I I #
edge $274 -1 $-1 $119 28.70000000000000284 $87 76.29999999999999716 $117 $120 forward @7 unknown #
face $275 -1 $-1 $276 $118 $5 $-1 $277 forward single #
edge $-1 -1 $-1 $208 -0.5077133059428720063 $119 0.5077133059428711181 $206 $278 forward @7 tangent #
point $-1 -1 $-1 42.32900969132004576 220 287 #
DXID-attrib $-1 -1 $-1 $-1 $122 @10 ASM ENTITY @36 8a40efde-e31e-4439-9941-e056dec2a300 #
loop $-1 -1 $-1 $-1 $213 $122 #
plane-surface $-1 -1 $-1 32.32900969132005997 218.2367301929153882 773 -0.9848077530122089085 -0.1736481776669255017 1.836970198721029441e-16 1.809062493752847788e-15 3.189865274363567893e-16 10 forward_v I I I I #
DXID-attrib $-1 -1 $-1 $-1 $125 @10 ASM ENTITY @36 4ec02331-9d1a-4509-a015-29553711e1b9 #
face $279 -1 $-1 $280 $158 $5 $-1 $281 forward single #
loop $-1 -1 $-1 $-1 $282 $125 #
plane-surface $-1 -1 $-1 32.32900969132006708 218.2367301929153882 803 0 0 1 9.848077530122088419 1.736481776669255295 0 forward_v I I I I #
coedge $-1 -1 $-1 $283 $284 $285 $286 forward $126 $-1 #
coedge $-1 -1 $-1 $128 $287 $161 $246 reversed $74 $-1 #
edge $-1 -1 $-1 $190 -0.5077133059428698969 $207 0.5077133059428720063 $128 $288 forward @7 tangent #
coedge $-1 -1 $-1 $143 $142 $129 $194 reversed $144 $-1 #
vertex $-1 -1 $-1 $132 $289 #
vertex $-1 -1 $-1 $132 $290 #
ellipse-curve $-1 -1 $-1 30.59252791465079468 228.0848077230375281 287 -0.9848077530122089085 -0.1736481776669255017 6.731872517336356154e-18 1.227878039689692891 -6.963642403200208442 -7.071067811865462183 1 I I #
coedge $-1 -1 $-1 $136 $133 $291 $292 reversed $27 $-1 #
coedge $-1 -1 $-1 $293 $294 $133 $212 forward $295 $-1 #
edge $-1 -1 $-1 $296 -0.7853981633974597143 $215 0.7853981633974388421 $133 $297 forward @7 unknown #
coedge $-1 -1 $-1 $134 $298 $293 $299 reversed $197 $-1 #
DXID-attrib $-1 -1 $-1 $-1 $135 @10 ASM ENTITY @36 fde66007-360e-4596-abc3-895660a7bfc3 #
vertex $-1 -1 $-1 $135 $300 #
straight-curve $-1 -1 $-1 32.32900969132005287 218.2367301929153882 773 -1.736481776669255073 9.848077530122088419 0 I I #
coedge $-1 -1 $-1 $301 $229 $136 $218 forward $302 $-1 #
edge $-1 -1 $-1 $220 -0.7853981633974387311 $303 0.7853981633974538301 $136 $304 forward @7 unknown #
DXID-attrib $-1 -1 $-1 $-1 $137 @10 ASM ENTITY @36 baaa6182-27ff-4038-900a-1ee4ece0f06d #
vertex $-1 -1 $-1 $218 $305 #
straight-curve $-1 -1 $-1 42.32900969132003866 220 773 -1.736481776669255073 9.848077530122088419 0 I I #
point $-1 -1 $-1 30.5925279146508089 228.0848077230374429 773 #
coedge $-1 -1 $-1 $285 $140 $306 $307 forward $197 $-1 #
ellipse-curve $-1 -1 $-1 30.59252791465081245 228.0848077230374429 763 -0.9848077530122089085 -0.1736481776669255017 1.836970198721029441e-16 1.227878039689691114 -6.963642403200184461 7.07106781186548794 1 I I #
coedge $-1 -1 $-1 $170 $306 $143 $226 reversed $178 $-1 #
edge $308 -1 $-1 $208 28.70000000000000284 $145 76.29999999999999716 $143 $181 forward @7 unknown #
point $-1 -1 $-1 32.32900969132005287 218.2367301929153882 763 #
coedge $-1 -1 $-1 $148 $147 $309 $310 reversed $85 $-1 #
coedge $-1 -1 $-1 $217 $311 $147 $230 forward $302 $-1 #
edge $-1 -1 $-1 $312 -0.75 $220 2.25 $147 $313 forward @7 tangent #
coedge $-1 -1 $-1 $284 $283 $148 $232 reversed $126 $-1 #
edge $-1 -1 $-1 $314 -0.7853981633974500554 $234 0.7853981633974465026 $231 $315 reversed @7 unknown #
coedge $-1 -1 $-1 $316 $149 $317 $318 forward $118 $-1 #
vertex $-1 -1 $-1 $319 $320 #
DXID-attrib $-1 -1 $-1 $-1 $151 @10 ASM ENTITY @36 d1e30aeb-80a6-43f9-bffc-cf03243273cf #
face $321 -1 $-1 $110 $322 $5 $-1 $184 forward single #
plane-surface $-1 -1 $-1 42.32900969132003866 220 803 0.9848077530122089085 0.1736481776669255017 -7.401486830834376525e-17 -7.289041614823457777e-16 -1.285254700200137385e-16 -10 forward_v I I I I #
coedge $-1 -1 $-1 $323 $154 $157 $244 reversed $240 $-1 #
coedge $-1 -1 $-1 $154 $323 $165 $251 reversed $240 $-1 #
loop $-1 -1 $-1 $-1 $238 $280 #
DXID-attrib $-1 -1 $-1 $-1 $155 @10 ASM ENTITY @36 099c0125-297e-40a0-a7c1-16216572577f #
straight-curve $-1 -1 $-1 4.126410604596419951 436.6577056626859985 247.0000000000000284 -9.848077530122088419 -1.736481776669255517 -0 I I #
coedge $-1 -1 $-1 $157 $156 $287 $324 forward $158 $-1 #
edge $-1 -1 $-1 $325 -2.25 $159 0.75 $238 $326 forward @7 tangent #
point $-1 -1 $-1 -2.919166136366930786 435.4153803886021592 247.0000000000000284 #
edge $327 -1 $-1 $207 1.000000000000003553 $247 21.70000000000000639 $204 $328 forward @7 unknown #
vertex $-1 -1 $-1 $324 $329 #
straight-curve $-1 -1 $-1 -5.352644862402796022 431.9400125965648272 254.5000000000000284 6.629600247362659753e-17 1.168977394921516522e-17 10 F -1.680001000000000744 F 3.180001000000000744 #
DXID-attrib $-1 -1 $-1 $-1 $163 @10 ASM ENTITY @36 55fcb4ef-8fea-4cab-97e0-af3afc683aba #
plane-surface $-1 -1 $-1 32.32900969132005287 218.2367301929153882 247.0000000000000284 -0.9848077530122089085 -0.1736481776669255017 6.731872517336356154e-18 6.629600247362659753e-17 1.168977394921516676e-17 10 forward_v I I I I #
edge $-1 -1 $-1 $167 -2.25 $330 0.75 $239 $331 forward @7 tangent #
face $332 -1 $-1 $333 $166 $5 $-1 $334 forward single #
point $-1 -1 $-1 1.171987345559795557 436.1367611296851692 247.0000000000000284 #
coedge $-1 -1 $-1 $335 $172 $174 $260 reversed $256 $-1 #
coedge $-1 -1 $-1 $172 $336 $177 $263 reversed $256 $-1 #
loop $-1 -1 $-1 $-1 $337 $338 #
DXID-attrib $-1 -1 $-1 $-1 $173 @10 ASM ENTITY @36 c50a79ff-a5fe-4d27-8111-1a830126f718 #
straight-curve $-1 -1 $-1 42.32900969132004576 220 0 -9.848077530122088419 -1.736481776669255295 0 F 0 F 1.015426611885743124 #
coedge $-1 -1 $-1 $174 $316 $339 $340 reversed $118 $-1 #
edge $341 -1 $-1 $342 0 $176 21.83911205362507602 $174 $343 forward @7 unknown #
point $-1 -1 $-1 42.32900969132004576 220 0 #
coedge $-1 -1 $-1 $344 $177 $345 $346 forward $178 $-1 #
edge $347 -1 $-1 $180 0 $348 22.06183022165586749 $177 $349 forward @7 unknown #
face $350 -1 $-1 $193 $178 $5 $-1 $351 forward single #
point $-1 -1 $-1 32.32900969132005287 218.2367301929153882 0 #
DXID-attrib $-1 -1 $-1 $-1 $183 @10 ASM ENTITY @36 fe59801e-d01e-496b-bc6a-65b7c6d034bb #
face $352 -1 $-1 $264 $353 $5 $-1 $354 forward single #
coedge $-1 -1 $-1 $355 $185 $187 $271 reversed $74 $-1 #
DXID-attrib $-1 -1 $-1 $-1 $186 @10 ASM ENTITY @36 a1d9b87d-a091-482f-bc0e-3bda9b716912 #
straight-curve $-1 -1 $-1 42.32900969132003866 220 277 -1.736481776669255073 9.848077530122088419 0 I I #
edge $-1 -1 $-1 $330 -0.7853981633974560506 $188 0.7853981633974370657 $268 $356 forward @7 unknown #
point $-1 -1 $-1 4.64735513759719332 433.7032824036493821 277 #
point $-1 -1 $-1 40.59252791465077337 229.8480775301221115 277 #
DXID-attrib $-1 -1 $-1 $-1 $192 @10 ASM ENTITY @36 d6acaaab-c308-4e5b-beae-c23c22793c7e #
DXID-attrib $-1 -1 $-1 $-1 $193 @10 ASM ENTITY @36 dfd317a4-e073-448b-b1ba-c8abd185f3a2 #
face $357 -1 $-1 $358 $359 $5 $-1 $360 forward single #
plane-surface $-1 -1 $-1 84 5.621339458020870872 0 0.9816271834476639757 0.1908089953765450264 0 -1.90808995376545032 9.816271834476639313 0 forward_v I I I I #
straight-curve $-1 -1 $-1 37.32900969132005287 219.1183650964576941 287 9.848077530122088419 1.736481776669255295 0 F -5.279280078674646326 F 3.801010575152261151 #
DXID-attrib $-1 -1 $-1 $-1 $200 @10 ASM ENTITY @36 aaeada87-fdfd-4974-ae3e-556d173f0ba2 #
face $361 -1 $-1 $252 $240 $5 $-1 $362 forward single #
cone-surface $-1 -1 $-1 -2.398221603366161414 432.4609571295655996 254.5000000000000284 6.629600247362659291e-18 1.16897739492151656e-18 1 -2.457456132866989051 1.720729309053119938 0 1 I I 0 1 3.000000000000000444 forward I I I I #
coedge $-1 -1 $-1 $309 $363 $284 $364 reversed $201 $-1 #
coedge $-1 -1 $-1 $231 $203 $365 $319 forward $126 $-1 #
coedge $-1 -1 $-1 $203 $231 $282 $364 forward $126 $-1 #
coedge $-1 -1 $-1 $298 $223 $203 $286 reversed $197 $-1 #
edge $-1 -1 $-1 $366 -0.7853981633974501664 $367 0.7853981633974463916 $203 $368 forward @7 unknown #
coedge $-1 -1 $-1 $204 $355 $243 $324 reversed $74 $-1 #
straight-curve $-1 -1 $-1 35.59252791465079468 228.966442626579834 277 -9.848077530122088419 -1.736481776669255295 0 F -3.801010575152261151 F 5.279280078674646326 #
point $-1 -1 $-1 30.59252791465079468 228.0848077230375281 277 #
point $-1 -1 $-1 32.32900969132005287 218.2367301929153882 287 #
coedge $-1 -1 $-1 $369 $370 $210 $292 forward $371 $-1 #
edge $372 -1 $-1 $303 0.2999999999999989342 $296 0.7154266118857404155 $210 $373 forward @7 unknown #
coedge $-1 -1 $-1 $374 $211 $213 $299 forward $295 $-1 #
coedge $-1 -1 $-1 $211 $374 $369 $375 forward $295 $-1 #
loop $-1 -1 $-1 $-1 $374 $333 #
vertex $-1 -1 $-1 $212 $376 #
ellipse-curve $-1 -1 $-1 -2.398221603366156973 432.4609571295655996 773 0 0 1 -2.457456132866989051 1.720729309053119938 0 1 I I #
coedge $-1 -1 $-1 $213 $285 $363 $377 forward $197 $-1 #
edge $-1 -1 $-1 $215 -0.75 $378 2.25 $213 $379 forward @7 tangent #
point $-1 -1 $-1 -5.352644862402788917 431.9400125965648272 773 #
coedge $-1 -1 $-1 $311 $217 $370 $380 forward $302 $-1 #
loop $-1 -1 $-1 $-1 $217 $381 #
vertex $-1 -1 $-1 $292 $382 #
ellipse-curve $-1 -1 $-1 1.69293187856056182 433.1823378706486096 773 0 0 1 1.720729309053166567 2.457456132866956189 0 1 I I #
point $-1 -1 $-1 4.64735513759719332 433.7032824036493821 773 #
coedge $-1 -1 $-1 $225 $383 $223 $307 reversed $178 $-1 #
edge $-1 -1 $-1 $145 76.29999999999999716 $367 81.29999999999999716 $306 $181 forward @7 unknown #
DXID-attrib $-1 -1 $-1 $-1 $226 @10 ASM ENTITY @36 d1b286da-d029-4a45-a50e-fbdbb997b51b #
coedge $-1 -1 $-1 $384 $282 $228 $310 forward $201 $-1 #
edge $385 -1 $-1 $314 1.000000000000003775 $312 21.70000000000000639 $309 $386 forward @7 unknown #
coedge $-1 -1 $-1 $229 $301 $384 $387 forward $302 $-1 #
vertex $-1 -1 $-1 $310 $388 #
straight-curve $-1 -1 $-1 4.647355137597192432 433.7032824036493821 795.5 -7.289041614823457777e-16 -1.285254700200137139e-16 -10 F -1.680000999999990086 F 3.180000999999990086 #
vertex $-1 -1 $-1 $232 $389 #
ellipse-curve $-1 -1 $-1 40.59252791465077337 229.8480775301221115 813 0.9848077530122089085 0.1736481776669255017 -7.401486830834376525e-17 1.227878039689699108 -6.963642403200207553 -7.071067811865461294 1 I I #
coedge $-1 -1 $-1 $259 $233 $390 $391 reversed $118 $-1 #
coedge $-1 -1 $-1 $365 $392 $233 $318 reversed $322 $-1 #
edge $393 -1 $-1 $234 81.29999999999999716 $394 105 $233 $120 forward @7 unknown #
edge $-1 -1 $-1 $367 -0.5077133059428724504 $234 0.5077133059428706741 $365 $395 forward @7 tangent #
point $-1 -1 $-1 42.32900969132004576 220 813 #
DXID-attrib $-1 -1 $-1 $-1 $236 @10 ASM ENTITY @36 cf961e47-0530-4d2a-ae5c-415724e0340f #
loop $-1 -1 $-1 $-1 $365 $236 #
coedge $-1 -1 $-1 $239 $238 $355 $396 forward $240 $-1 #
edge $-1 -1 $-1 $247 -0.7853981633974390641 $325 0.7853981633974596033 $287 $397 forward @7 unknown #
vertex $-1 -1 $-1 $396 $398 #
straight-curve $-1 -1 $-1 -2.919166136366933451 435.4153803886021592 254.5000000000000284 -6.629600247362659753e-17 -1.168977394921516522e-17 -10 F -3.180001000000000744 F 1.680001000000000744 #
DXID-attrib $-1 -1 $-1 $-1 $246 @10 ASM ENTITY @36 9fd81096-4747-4b54-8374-f3dcaa8d4f1f #
straight-curve $-1 -1 $-1 32.32900969132005287 218.2367301929153882 277 -1.736481776669255073 9.848077530122088419 0 I I #
point $-1 -1 $-1 -5.352644862402788917 431.9400125965648272 277 #
vertex $-1 -1 $-1 $271 $399 #
straight-curve $-1 -1 $-1 1.171987345559786453 436.1367611296852829 269.5 7.289041614823457777e-16 1.285254700200137139e-16 10 F -3.180001000000000744 F 1.680001000000000744 #
DXID-attrib $-1 -1 $-1 $-1 $252 @10 ASM ENTITY @36 deca1828-90e9-483b-a5c0-c6ef47b7c56b #
face $400 -1 $-1 $401 $295 $5 $-1 $402 forward single #
cone-surface $-1 -1 $-1 1.692931878560561376 433.1823378706486096 269.5 -7.28904161482345753e-17 -1.285254700200137262e-17 -1 1.720729309053170786 2.45745613286695308 0 1 I I 0 1 3.000000000000000444 forward I I I I #
coedge $-1 -1 $-1 $337 $254 $403 $404 reversed $256 $-1 #
coedge $-1 -1 $-1 $255 $337 $405 $406 reversed $256 $-1 #
coedge $-1 -1 $-1 $336 $335 $407 $408 reversed $256 $-1 #
face $409 -1 $-1 $-1 $256 $5 $-1 $410 reversed single #
coedge $-1 -1 $-1 $411 $403 $259 $340 forward $359 $-1 #
edge $412 -1 $-1 $342 0 $413 105 $339 $414 forward @7 unknown #
DXID-attrib $-1 -1 $-1 $-1 $260 @10 ASM ENTITY @36 8a0864ae-d0d7-4542-b6bf-18a855dc1ead #
vertex $-1 -1 $-1 $260 $415 #
straight-curve $-1 -1 $-1 84 5.621339458020870872 0 -1.90808995376545032 9.816271834476639313 0 F 0 F 21.83911205362507602 #
coedge $-1 -1 $-1 $383 $262 $416 $417 reversed $178 $-1 #
coedge $-1 -1 $-1 $405 $418 $262 $346 reversed $353 $-1 #
edge $419 -1 $-1 $348 0 $420 105 $262 $421 forward @7 unknown #
DXID-attrib $-1 -1 $-1 $-1 $263 @10 ASM ENTITY @36 9e737cf7-d322-4585-b588-bb0be908675a #
vertex $-1 -1 $-1 $406 $422 #
straight-curve $-1 -1 $-1 32.32900969132005287 218.2367301929153882 0 -1.465382036146118949 -9.892050115529150034 0 F 0 F 22.06183022165586749 #
DXID-attrib $-1 -1 $-1 $-1 $264 @10 ASM ENTITY @36 b694433b-20d7-45a6-9519-0f295aed43da #
plane-surface $-1 -1 $-1 32.32900969132005287 218.2367301929153882 0 -0.989205011552914959 0.1465382036146118949 0 -1.465382036146118949 -9.892050115529150034 0 forward_v I I I I #
DXID-attrib $-1 -1 $-1 $-1 $267 @10 ASM ENTITY @36 caf4102d-981d-4911-9111-a256644959d6 #
loop $-1 -1 $-1 $-1 $405 $267 #
plane-surface $-1 -1 $-1 0 0 0 0 -1 0 10 0 0 forward_v I I I I #
coedge $-1 -1 $-1 $287 $268 $323 $396 reversed $74 $-1 #
ellipse-curve $-1 -1 $-1 1.69293187856056182 433.1823378706486096 277 -0 -0 -1 1.720729309053170786 2.45745613286695308 0 1 I I #
DXID-attrib $-1 -1 $-1 $-1 $276 @10 ASM ENTITY @36 a4055568-ec4d-4d4f-9955-f59952c429ff #
face $423 -1 $-1 $424 $425 $5 $-1 $426 forward single #
loop $-1 -1 $-1 $-1 $403 $276 #
plane-surface $-1 -1 $-1 129.0000000000000284 21.99999999999999289 0 -0.342020143325668935 0.9396926207859083169 0 -9.396926207859083391 -3.420201433256689239 0 forward_v I I I I #
DXID-attrib $-1 -1 $-1 $-1 $280 @10 ASM ENTITY @36 76f68912-3253-43fe-b420-b69e58851ad4 #
plane-surface $-1 -1 $-1 -0.8735893954035711673 435.7760707591437495 262 -0.1736481776669255017 0.9848077530122089085 0 0 0 10 forward_v I I I I #
coedge $-1 -1 $-1 $282 $427 $298 $377 reversed $201 $-1 #
edge $-1 -1 $-1 $314 -0.50771330594287023 $366 0.5077133059428715622 $282 $428 forward @7 tangent #
coedge $-1 -1 $-1 $429 $317 $283 $319 reversed $322 $-1 #
vertex $-1 -1 $-1 $286 $430 #
vertex $-1 -1 $-1 $286 $431 #
ellipse-curve $-1 -1 $-1 30.59252791465080179 228.0848077230375281 813 -0.9848077530122089085 -0.1736481776669255017 1.836970198721029441e-16 1.227878039689699108 -6.963642403200207553 -7.071067811865461294 1 I I #
coedge $-1 -1 $-1 $432 $291 $294 $375 reversed $371 $-1 #
coedge $-1 -1 $-1 $291 $432 $301 $380 reversed $371 $-1 #
loop $-1 -1 $-1 $-1 $369 $401 #
DXID-attrib $-1 -1 $-1 $-1 $292 @10 ASM ENTITY @36 d7dd3706-790f-4878-9bb7-5e85518d42f3 #
straight-curve $-1 -1 $-1 4.126410604596411069 436.6577056626859985 773 -9.848077530122088419 -1.736481776669255517 -0 I I #
coedge $-1 -1 $-1 $294 $293 $427 $433 forward $295 $-1 #
edge $-1 -1 $-1 $434 -2.25 $296 0.75 $369 $435 forward @7 tangent #
point $-1 -1 $-1 -2.919166136366927233 435.4153803886021592 773 #
edge $436 -1 $-1 $366 1.000000000000003553 $378 21.70000000000000639 $363 $437 forward @7 unknown #
vertex $-1 -1 $-1 $433 $438 #
straight-curve $-1 -1 $-1 -5.352644862402788917 431.9400125965648272 780.5 1.809062493752847788e-15 3.189865274363567893e-16 10 F -1.680000999999990086 F 3.180000999999990086 #
edge $-1 -1 $-1 $303 -2.25 $439 0.75 $370 $440 forward @7 tangent #
face $441 -1 $-1 $163 $302 $5 $-1 $442 forward single #
point $-1 -1 $-1 1.171987345559797333 436.1367611296851692 773 #
coedge $-1 -1 $-1 $306 $344 $429 $443 reversed $178 $-1 #
coedge $-1 -1 $-1 $444 $309 $311 $387 reversed $201 $-1 #
DXID-attrib $-1 -1 $-1 $-1 $310 @10 ASM ENTITY @36 a0e08d49-8aa2-491c-bdb9-6563b47331b7 #
straight-curve $-1 -1 $-1 42.32900969132004576 220 803 -1.736481776669255073 9.848077530122088419 0 I I #
edge $-1 -1 $-1 $439 -0.7853981633974542742 $312 0.7853981633974391752 $384 $445 forward @7 unknown #
point $-1 -1 $-1 4.647355137597202202 433.7032824036493821 803 #
point $-1 -1 $-1 40.59252791465078047 229.8480775301221115 803 #
coedge $-1 -1 $-1 $446 $447 $316 $391 forward $448 $-1 #
edge $449 -1 $-1 $413 0 $394 21.83911205362507602 $316 $450 forward @7 unknown #
coedge $-1 -1 $-1 $317 $429 $446 $451 reversed $322 $-1 #
DXID-attrib $-1 -1 $-1 $-1 $318 @10 ASM ENTITY @36 9ddb5a5a-7eb3-4f23-93d7-414e2359d332 #
vertex $-1 -1 $-1 $451 $452 #
straight-curve $-1 -1 $-1 37.32900969132005997 219.1183650964576941 813 9.848077530122088419 1.736481776669255295 0 F -5.279280078674645438 F 3.801010575152262483 #
edge $453 -1 $-1 $325 0.3000000000000009881 $330 0.715426611885742858 $355 $454 forward @7 unknown #
ellipse-curve $-1 -1 $-1 -2.398221603366161414 432.4609571295655996 277 -0 -0 -1 -2.457456132866989051 1.720729309053119938 0 1 I I #
point $-1 -1 $-1 -2.919166136366931674 435.4153803886021592 277 #
point $-1 -1 $-1 1.171987345559796223 436.1367611296851692 277 #
DXID-attrib $-1 -1 $-1 $-1 $333 @10 ASM ENTITY @36 92622bae-9d26-498c-bda4-8cd4fcff364b #
face $455 -1 $-1 $381 $371 $5 $-1 $456 forward single #
cone-surface $-1 -1 $-1 -2.398221603366155641 432.4609571295655996 780.5 1.809062493752847788e-16 3.189865274363567893e-17 1 -2.457456132866989051 1.720729309053119938 0 1 I I 0 1 3.000000000000000444 forward I I I I #
coedge $-1 -1 $-1 $339 $457 $335 $404 forward $359 $-1 #
edge $458 -1 $-1 $459 0 $342 4.788799976141606685 $403 $460 forward @7 unknown #
coedge $-1 -1 $-1 $461 $345 $336 $406 forward $353 $-1 #
edge $462 -1 $-1 $348 0 $463 13.20000000000000107 $405 $464 forward @7 unknown #
coedge $-1 -1 $-1 $465 $466 $337 $408 forward $425 $-1 #
edge $467 -1 $-1 $463 0 $459 2.220360331117451125 $407 $468 forward @7 unknown #
DXID-attrib $-1 -1 $-1 $-1 $338 @10 ASM ENTITY @36 e673db8d-ca07-4e76-9744-fce2b3daaa98 #
plane-surface $-1 -1 $-1 66 110 0 0 0 1 10 0 0 forward_v I I I I #
coedge $-1 -1 $-1 $457 $339 $447 $469 reversed $359 $-1 #
DXID-attrib $-1 -1 $-1 $-1 $340 @10 ASM ENTITY @36 ab91f66f-9dde-4799-bf83-abdfeffbb945 #
vertex $-1 -1 $-1 $391 $470 #
straight-curve $-1 -1 $-1 84 5.621339458020870872 0 0 0 10 I I #
point $-1 -1 $-1 84 5.621339458020870872 0 #
coedge $-1 -1 $-1 $471 $446 $344 $417 forward $448 $-1 #
edge $472 -1 $-1 $473 0 $420 22.06183022165586749 $344 $474 forward @7 unknown #
coedge $-1 -1 $-1 $345 $461 $471 $475 reversed $353 $-1 #
DXID-attrib $-1 -1 $-1 $-1 $346 @10 ASM ENTITY @36 080429d4-3233-4ca4-a455-78afd1ca5364 #
vertex $-1 -1 $-1 $475 $476 #
straight-curve $-1 -1 $-1 0 0 0 0 0 10 I I #
point $-1 -1 $-1 0 0 0 #
DXID-attrib $-1 -1 $-1 $-1 $358 @10 ASM ENTITY @36 2e1b7e08-584d-498b-8c9e-eb1987402369 #
face $477 -1 $-1 $338 $448 $5 $-1 $478 forward single #
loop $-1 -1 $-1 $-1 $407 $358 #
plane-surface $-1 -1 $-1 132 0 0 0.990830168044299131 0.1351132047333130914 0 -1.35113204733313097 9.908301680442990644 0 forward_v I I I I #
coedge $-1 -1 $-1 $363 $444 $374 $433 reversed $201 $-1 #
straight-curve $-1 -1 $-1 35.59252791465080179 228.966442626579834 803 -9.848077530122088419 -1.736481776669255295 0 F -3.801010575152262483 F 5.279280078674645438 #
coedge $-1 -1 $-1 $392 $365 $383 $443 forward $322 $-1 #
point $-1 -1 $-1 30.59252791465080534 228.0848077230375281 803 #
point $-1 -1 $-1 32.32900969132005287 218.2367301929153882 813 #
coedge $-1 -1 $-1 $370 $369 $444 $479 forward $371 $-1 #
edge $-1 -1 $-1 $378 -0.7853981633974390641 $434 0.7853981633974597143 $427 $480 forward @7 unknown #
vertex $-1 -1 $-1 $479 $481 #
straight-curve $-1 -1 $-1 -2.919166136366927233 435.4153803886021592 780.5 -1.809062493752847788e-15 -3.189865274363567893e-16 -10 F -3.180000999999990086 F 1.680000999999990086 #
DXID-attrib $-1 -1 $-1 $-1 $377 @10 ASM ENTITY @36 2cfbe218-93f9-4609-9748-14e97afcb5c4 #
straight-curve $-1 -1 $-1 32.32900969132006708 218.2367301929153882 803 -1.736481776669255073 9.848077530122088419 0 I I #
point $-1 -1 $-1 -5.352644862402780035 431.9400125965648272 803 #
vertex $-1 -1 $-1 $387 $482 #
straight-curve $-1 -1 $-1 1.171987345559788674 436.1367611296852829 795.5 7.289041614823457777e-16 1.285254700200137139e-16 10 F -3.180000999999990086 F 1.680000999999990086 #
DXID-attrib $-1 -1 $-1 $-1 $381 @10 ASM ENTITY @36 97466038-2ec3-47ed-83eb-72dd1e6cb9d5 #
cone-surface $-1 -1 $-1 1.692931878560563597 433.1823378706486096 795.5 -7.28904161482345753e-17 -1.285254700200137262e-17 -1 1.720729309053166567 2.457456132866956189 0 1 I I 0 1 3.000000000000000888 forward I I I I #
edge $483 -1 $-1 $367 81.29999999999999716 $473 105 $429 $181 forward @7 unknown #
coedge $-1 -1 $-1 $427 $384 $432 $479 reversed $201 $-1 #
ellipse-curve $-1 -1 $-1 1.692931878560564041 433.1823378706486096 803 -0 -0 -1 1.720729309053166567 2.457456132866956189 0 1 I I #
coedge $-1 -1 $-1 $416 $390 $392 $451 forward $448 $-1 #
coedge $-1 -1 $-1 $390 $484 $411 $469 forward $448 $-1 #
loop $-1 -1 $-1 $-1 $484 $424 #
DXID-attrib $-1 -1 $-1 $-1 $391 @10 ASM ENTITY @36 1eb2c745-b912-4584-9b34-80c5ba592a37 #
straight-curve $-1 -1 $-1 84 5.621339458020870872 1050 -1.90808995376545032 9.816271834476639313 0 I I #
edge $485 -1 $-1 $394 0 $473 1.015426611885743124 $392 $486 forward @7 unknown #
point $-1 -1 $-1 42.32900969132005287 220 1050 #
DXID-attrib $-1 -1 $-1 $-1 $396 @10 ASM ENTITY @36 a9097ad8-48c2-480d-95ad-e3ea02ea0d4f #
straight-curve $-1 -1 $-1 -5.873589395403566726 434.8944358556013867 277 9.848077530122088419 1.736481776669255295 0 I I #
DXID-attrib $-1 -1 $-1 $-1 $401 @10 ASM ENTITY @36 ccf41117-0793-4f85-9b43-9a5de8490a79 #
plane-surface $-1 -1 $-1 -0.8735893954035667264 435.7760707591437495 788 -0.1736481776669255017 0.9848077530122089085 0 0 0 10 forward_v I I I I #
coedge $-1 -1 $-1 $403 $411 $465 $487 reversed $359 $-1 #
DXID-attrib $-1 -1 $-1 $-1 $404 @10 ASM ENTITY @36 34c2da58-b779-4f6e-a6f4-452ac997b358 #
vertex $-1 -1 $-1 $404 $488 #
straight-curve $-1 -1 $-1 129.0000000000000284 21.99999999999999289 0 -9.396926207859083391 -3.420201433256689239 0 F 0 F 4.788799976141606685 #
coedge $-1 -1 $-1 $418 $405 $466 $489 forward $353 $-1 #
DXID-attrib $-1 -1 $-1 $-1 $406 @10 ASM ENTITY @36 3f1596dd-bd45-4eb2-a3e7-e22f0e9a68d2 #
vertex $-1 -1 $-1 $406 $490 #
straight-curve $-1 -1 $-1 0 0 0 10 0 0 F 0 F 13.20000000000000107 #
coedge $-1 -1 $-1 $491 $407 $457 $487 forward $425 $-1 #
coedge $-1 -1 $-1 $407 $491 $461 $489 reversed $425 $-1 #
DXID-attrib $-1 -1 $-1 $-1 $408 @10 ASM ENTITY @36 7fe17036-433d-4109-8f5a-fa77fe70ba30 #
straight-curve $-1 -1 $-1 132 0 0 -1.35113204733313097 9.908301680442990644 0 F 0 F 2.220360331117451125 #
edge $492 -1 $-1 $493 0 $413 4.788799976141606685 $411 $494 forward @7 unknown #
point $-1 -1 $-1 84 5.621339458020870872 1050 #
coedge $-1 -1 $-1 $484 $416 $418 $475 forward $448 $-1 #
DXID-attrib $-1 -1 $-1 $-1 $417 @10 ASM ENTITY @36 34af812e-92d5-4c92-9516-645749047022 #
vertex $-1 -1 $-1 $443 $495 #
straight-curve $-1 -1 $-1 32.32900969132005287 218.2367301929153882 1050 -1.465382036146118949 -9.892050115529150034 0 I I #
edge $496 -1 $-1 $420 0 $497 13.20000000000000107 $418 $498 forward @7 unknown #
point $-1 -1 $-1 0 0 1050 #
DXID-attrib $-1 -1 $-1 $-1 $424 @10 ASM ENTITY @36 41c8ecc5-ebb3-4748-8439-75bd747585be #
plane-surface $-1 -1 $-1 66 110 1050 0 0 1 10 0 0 forward_v I I I I #
edge $499 -1 $-1 $434 0.3000000000000015432 $439 0.715426611885742636 $444 $500 forward @7 unknown #
ellipse-curve $-1 -1 $-1 -2.398221603366151644 432.4609571295655996 803 -0 -0 -1 -2.457456132866989051 1.720729309053119938 0 1 I I #
point $-1 -1 $-1 -2.919166136366921904 435.4153803886021592 803 #
point $-1 -1 $-1 1.171987345559798444 436.1367611296851692 803 #
DXID-attrib $-1 -1 $-1 $-1 $443 @10 ASM ENTITY @36 bfe880bd-ff19-456a-b0d5-b6f48c3074aa #
coedge $-1 -1 $-1 $447 $471 $491 $501 forward $448 $-1 #
DXID-attrib $-1 -1 $-1 $-1 $451 @10 ASM ENTITY @36 d49bf9e8-db84-4179-b533-7e1bb503fd35 #
straight-curve $-1 -1 $-1 42.32900969132004576 220 1050 -9.848077530122088419 -1.736481776669255295 0 I I #
edge $502 -1 $-1 $459 0 $493 105 $465 $503 forward @7 unknown #
point $-1 -1 $-1 129.0000000000000284 21.99999999999999289 0 #
edge $504 -1 $-1 $463 0 $497 105 $466 $505 forward @7 unknown #
point $-1 -1 $-1 132 0 0 #
coedge $-1 -1 $-1 $466 $465 $484 $501 reversed $425 $-1 #
DXID-attrib $-1 -1 $-1 $-1 $469 @10 ASM ENTITY @36 63e44739-cfcd-4f73-9b10-e4c24ddf7753 #
vertex $-1 -1 $-1 $469 $506 #
straight-curve $-1 -1 $-1 129.0000000000000284 21.99999999999999289 1050 -9.396926207859083391 -3.420201433256689239 0 I I #
point $-1 -1 $-1 32.32900969132005287 218.2367301929153882 1050 #
DXID-attrib $-1 -1 $-1 $-1 $475 @10 ASM ENTITY @36 959ff026-5184-43c2-955a-4d1d4f71b411 #
vertex $-1 -1 $-1 $489 $507 #
straight-curve $-1 -1 $-1 0 0 1050 10 0 0 I I #
DXID-attrib $-1 -1 $-1 $-1 $479 @10 ASM ENTITY @36 da1ac9ac-b38f-4308-a233-3e082b004e78 #
straight-curve $-1 -1 $-1 -5.873589395403562285 434.8944358556013867 803 9.848077530122088419 1.736481776669255295 0 I I #
edge $508 -1 $-1 $497 0 $493 2.220360331117451125 $491 $509 forward @7 unknown #
DXID-attrib $-1 -1 $-1 $-1 $487 @10 ASM ENTITY @36 e982e251-2bef-4fe9-8114-4e584787bd7b #
straight-curve $-1 -1 $-1 129.0000000000000284 21.99999999999999289 0 0 0 10 I I #
DXID-attrib $-1 -1 $-1 $-1 $489 @10 ASM ENTITY @36 fba50b42-c49e-4aa2-a466-47bd27e8092e #
straight-curve $-1 -1 $-1 132 0 0 0 0 10 I I #
point $-1 -1 $-1 129.0000000000000284 21.99999999999999289 1050 #
point $-1 -1 $-1 132 0 1050 #
DXID-attrib $-1 -1 $-1 $-1 $501 @10 ASM ENTITY @36 765c28fd-07b6-4ba1-92fd-0e695794fac9 #
straight-curve $-1 -1 $-1 132 0 1050 -1.35113204733313097 9.908301680442990644 0 I I #
End-of-ACIS-data 