700 0 1 0           
30 Autodesk Translation Framework 20 ASM 226.0.3.65535 NT 24 Wed Aug  4 06:05:45 2021 
1 9.999999999999999547e-07 1.000000000000000036e-10 
body $1 -1 $-1 $2 $-1 $3 #
rgb_color-st-attrib $-1 -1 $4 $-1 $0 0.7490196078431372584 0.7490196078431372584 0.7490196078431372584 #
lump $-1 -1 $-1 $-1 $5 $0 #
transform $-1 -1 1 0 0 0 1 0 0 0 1 0 0 0 1 no_rotate no_reflect no_shear #
DXID-attrib $-1 -1 $-1 $1 $0 @10 ASM ENTITY @101 SOSTENEDOR3.IPT|:|5971F627F38A04EEA01E5D1B46CC1B5212E72B7F|:|DA4B9237BACCCDF19C0760CAB7AEC4A8359010B0 #
shell $-1 -1 $-1 $-1 $-1 $6 $-1 $2 #
face $7 -1 $-1 $8 $9 $5 $-1 $10 forward single #
DXID-attrib $-1 -1 $-1 $-1 $6 @10 ASM ENTITY @36 57ac6482-2583-4ca3-a8db-8ea0c01e41f3 #
face $11 -1 $-1 $12 $13 $5 $-1 $14 forward single #
loop $-1 -1 $-1 $-1 $15 $6 #
cone-surface $-1 -1 $-1 40.59252791465078758 229.8480775301220547 237.0000000000000284 0.9848077530122089085 0.1736481776669255295 0 1.227878039689691114 -6.963642403200184461 7.07106781186548794 1 I I 0 -1 10 forward I I I I #
DXID-attrib $-1 -1 $-1 $-1 $8 @10 ASM ENTITY @36 c7e883e8-331a-48ad-b2dd-bf95f6ca2ce9 #
face $16 -1 $-1 $17 $18 $5 $-1 $19 forward single #
loop $-1 -1 $-1 $-1 $20 $8 #
plane-surface $-1 -1 $-1 42.32900969132003866 220 247.0000000000000284 0 0 -1 -9.848077530122088419 -1.736481776669255517 -0 forward_v I I I I #
coedge $-1 -1 $-1 $21 $22 $23 $24 forward $9 $-1 #
DXID-attrib $-1 -1 $-1 $-1 $12 @10 ASM ENTITY @36 59c5798f-b58d-4369-941c-e61ceabd4c38 #
face $25 -1 $-1 $26 $27 $5 $-1 $28 forward single #
loop $-1 -1 $-1 $-1 $29 $12 #
cone-surface $-1 -1 $-1 40.59252791465078758 229.8480775301220547 763 0.9848077530122089085 0.1736481776669255295 0 1.227878039689691114 -6.963642403200184461 7.07106781186548794 1 I I 0 -1 10 forward I I I I #
coedge $-1 -1 $-1 $30 $31 $22 $32 reversed $13 $-1 #
coedge $-1 -1 $-1 $33 $15 $34 $35 forward $9 $-1 #
coedge $-1 -1 $-1 $15 $33 $20 $32 forward $9 $-1 #
coedge $-1 -1 $-1 $36 $37 $15 $24 reversed $38 $-1 #
edge $-1 -1 $-1 $39 -0.7853981633974466137 $40 0.7853981633974500554 $15 $41 forward @7 unknown #
DXID-attrib $-1 -1 $-1 $-1 $17 @10 ASM ENTITY @36 04e92a32-85f0-494f-a114-9a5b9abf43ca #
face $42 -1 $-1 $43 $44 $5 $-1 $45 forward single #
loop $-1 -1 $-1 $-1 $46 $17 #
plane-surface $-1 -1 $-1 42.32900969132003866 220 773 0 0 -1 -9.848077530122088419 -1.736481776669255517 -0 forward_v I I I I #
coedge $-1 -1 $-1 $47 $48 $49 $50 forward $18 $-1 #
coedge $-1 -1 $-1 $51 $20 $52 $53 forward $13 $-1 #
coedge $-1 -1 $-1 $20 $54 $36 $55 reversed $13 $-1 #
edge $-1 -1 $-1 $56 -1.015426611885742236 $39 0 $20 $57 forward @7 tangent #
coedge $-1 -1 $-1 $22 $21 $58 $59 reversed $9 $-1 #
coedge $-1 -1 $-1 $60 $61 $21 $35 reversed $62 $-1 #
edge $-1 -1 $-1 $40 -8.746849937788149529e-16 $63 1.015426611885742236 $34 $64 forward @7 tangent #
coedge $-1 -1 $-1 $65 $23 $31 $55 forward $38 $-1 #
coedge $-1 -1 $-1 $23 $66 $67 $68 reversed $38 $-1 #
loop $-1 -1 $-1 $-1 $65 $69 #
vertex $-1 -1 $-1 $24 $70 #
vertex $-1 -1 $-1 $24 $71 #
ellipse-curve $-1 -1 $-1 40.59252791465078758 229.8480775301220547 237.0000000000000284 0.9848077530122089085 0.1736481776669255017 -7.401486830834376525e-17 1.227878039689691114 -6.963642403200184461 7.07106781186548794 1 I I #
DXID-attrib $-1 -1 $-1 $-1 $26 @10 ASM ENTITY @36 9259c2ae-e17f-4680-b6c3-1a32f6f7ca47 #
face $72 -1 $-1 $73 $74 $5 $-1 $75 forward single #
loop $-1 -1 $-1 $-1 $76 $26 #
cone-surface $-1 -1 $-1 35.59252791465079468 228.966442626579834 287 -0.9848077530122089085 -0.1736481776669255295 0 1.227878039689692891 -6.963642403200208442 -7.071067811865462183 1 I I 0 -1 10 forward I I I I #
coedge $-1 -1 $-1 $77 $78 $48 $79 reversed $27 $-1 #
coedge $-1 -1 $-1 $80 $29 $81 $82 forward $18 $-1 #
coedge $-1 -1 $-1 $29 $80 $46 $79 forward $18 $-1 #
coedge $-1 -1 $-1 $83 $84 $29 $50 reversed $85 $-1 #
edge $-1 -1 $-1 $86 -0.7853981633974466137 $87 0.7853981633974500554 $29 $88 forward @7 unknown #
coedge $-1 -1 $-1 $89 $30 $90 $91 reversed $13 $-1 #
coedge $-1 -1 $-1 $58 $92 $30 $53 reversed $93 $-1 #
edge $94 -1 $-1 $56 0.9999999999999964473 $95 21.70000000000000639 $30 $96 forward @7 unknown #
coedge $-1 -1 $-1 $31 $89 $97 $98 reversed $13 $-1 #
edge $99 -1 $-1 $39 0.9999999999999964473 $100 21.70000000000000639 $36 $101 forward @7 unknown #
vertex $-1 -1 $-1 $59 $102 #
straight-curve $-1 -1 $-1 40.59252791465078758 229.8480775301220547 247.0000000000000284 9.848077530122088419 1.736481776669255295 0 F -5.78699338461751811 F 3.293297269209389366 #
coedge $-1 -1 $-1 $103 $52 $33 $59 forward $93 $-1 #
edge $-1 -1 $-1 $56 -0.7853981633974466137 $63 0.7853981633974499443 $33 $104 reversed @7 unknown #
coedge $-1 -1 $-1 $105 $34 $106 $107 reversed $62 $-1 #
coedge $-1 -1 $-1 $34 $105 $108 $109 forward $62 $-1 #
loop $-1 -1 $-1 $-1 $34 $110 #
vertex $-1 -1 $-1 $35 $111 #
straight-curve $-1 -1 $-1 42.32900969132003866 220 237.0000000000000284 -9.848077530122088419 -1.736481776669255295 -0 F -3.293297269209389366 F 5.78699338461751811 #
coedge $-1 -1 $-1 $112 $36 $113 $114 reversed $38 $-1 #
coedge $-1 -1 $-1 $37 $112 $115 $116 forward $38 $-1 #
coedge $-1 -1 $-1 $117 $106 $37 $68 forward $118 $-1 #
edge $-1 -1 $-1 $40 23.70000000000000284 $119 28.70000000000000284 $67 $120 forward @7 unknown #
face $121 -1 $-1 $122 $38 $5 $-1 $123 forward single #
point $-1 -1 $-1 40.59252791465078758 229.8480775301220547 247.0000000000000284 #
point $-1 -1 $-1 42.32900969132004576 220 237.0000000000000284 #
DXID-attrib $-1 -1 $-1 $-1 $43 @10 ASM ENTITY @36 201de91f-bb24-4ef4-81b1-ad1629fd5bd3 #
face $124 -1 $-1 $125 $126 $5 $-1 $127 forward single #
loop $-1 -1 $-1 $-1 $128 $43 #
plane-surface $-1 -1 $-1 32.32900969132005287 218.2367301929153882 277 0 0 1 9.848077530122088419 1.736481776669255295 0 forward_v I I I I #
coedge $-1 -1 $-1 $129 $130 $131 $132 forward $44 $-1 #
coedge $-1 -1 $-1 $133 $46 $134 $135 forward $27 $-1 #
coedge $-1 -1 $-1 $46 $136 $83 $137 reversed $27 $-1 #
edge $-1 -1 $-1 $138 -1.015426611885742236 $86 0 $46 $139 forward @7 tangent #
coedge $-1 -1 $-1 $48 $47 $140 $141 reversed $18 $-1 #
coedge $-1 -1 $-1 $142 $143 $47 $82 reversed $144 $-1 #
edge $-1 -1 $-1 $87 -8.746849937788149529e-16 $145 1.015426611885742236 $81 $146 forward @7 tangent #
coedge $-1 -1 $-1 $147 $49 $78 $137 forward $85 $-1 #
coedge $-1 -1 $-1 $49 $148 $149 $150 reversed $85 $-1 #
loop $-1 -1 $-1 $-1 $147 $151 #
vertex $-1 -1 $-1 $50 $152 #
vertex $-1 -1 $-1 $50 $153 #
ellipse-curve $-1 -1 $-1 40.59252791465078758 229.8480775301220547 763 0.9848077530122089085 0.1736481776669255017 -7.401486830834376525e-17 1.227878039689691114 -6.963642403200184461 7.07106781186548794 1 I I #
coedge $-1 -1 $-1 $54 $51 $154 $155 reversed $13 $-1 #
coedge $-1 -1 $-1 $156 $157 $51 $91 forward $158 $-1 #
edge $-1 -1 $-1 $159 -0.7853981633974600474 $95 0.7853981633974390641 $51 $160 forward @7 unknown #
coedge $-1 -1 $-1 $52 $161 $156 $162 reversed $93 $-1 #
loop $-1 -1 $-1 $-1 $92 $163 #
DXID-attrib $-1 -1 $-1 $-1 $53 @10 ASM ENTITY @36 63b853ba-685c-476a-8063-08cd73133cf1 #
vertex $-1 -1 $-1 $53 $164 #
straight-curve $-1 -1 $-1 32.32900969132005287 218.2367301929153882 247.0000000000000284 -1.736481776669255073 9.848077530122088419 0 I I #
coedge $-1 -1 $-1 $165 $113 $54 $98 forward $166 $-1 #
edge $-1 -1 $-1 $100 -0.7853981633974371768 $167 0.7853981633974554954 $54 $168 forward @7 unknown #
DXID-attrib $-1 -1 $-1 $-1 $55 @10 ASM ENTITY @36 6031d079-03b1-4632-a6e6-199f8645ec16 #
vertex $-1 -1 $-1 $98 $169 #
straight-curve $-1 -1 $-1 42.32900969132003866 220 247.0000000000000284 -1.736481776669255073 9.848077530122088419 0 I I #
point $-1 -1 $-1 30.5925279146508089 228.0848077230374429 247.0000000000000284 #
coedge $-1 -1 $-1 $131 $58 $170 $171 forward $93 $-1 #
ellipse-curve $-1 -1 $-1 30.5925279146508089 228.0848077230374429 237.0000000000000284 -0.9848077530122089085 -0.1736481776669255017 6.731872517336356154e-18 1.227878039689691114 -6.963642403200184461 7.07106781186548794 1 I I #
coedge $-1 -1 $-1 $61 $60 $172 $173 forward $62 $-1 #
coedge $-1 -1 $-1 $67 $174 $60 $107 forward $118 $-1 #
edge $175 -1 $-1 $176 0 $40 23.70000000000000284 $106 $120 forward @7 unknown #
coedge $-1 -1 $-1 $177 $170 $61 $109 reversed $178 $-1 #
edge $179 -1 $-1 $180 0 $63 23.70000000000000284 $61 $181 forward @7 unknown #
face $182 -1 $-1 $183 $62 $5 $-1 $184 forward single #
point $-1 -1 $-1 32.32900969132005287 218.2367301929153882 237.0000000000000284 #
coedge $-1 -1 $-1 $66 $65 $185 $186 reversed $38 $-1 #
coedge $-1 -1 $-1 $97 $187 $65 $114 forward $166 $-1 #
edge $-1 -1 $-1 $188 -0.75 $100 2.25 $65 $189 forward @7 tangent #
coedge $-1 -1 $-1 $130 $129 $66 $116 reversed $44 $-1 #
edge $-1 -1 $-1 $190 -0.7853981633974501664 $119 0.7853981633974466137 $115 $191 reversed @7 unknown #
coedge $-1 -1 $-1 $149 $67 $142 $192 forward $118 $-1 #
loop $-1 -1 $-1 $-1 $174 $193 #
vertex $-1 -1 $-1 $194 $195 #
straight-curve $-1 -1 $-1 42.32900969132004576 220 0 0 0 10 I I #
DXID-attrib $-1 -1 $-1 $-1 $69 @10 ASM ENTITY @36 96f55e42-a633-4fb7-8965-60a7b9eaebc5 #
face $196 -1 $-1 $151 $197 $5 $-1 $198 forward single #
plane-surface $-1 -1 $-1 42.32900969132003866 220 277 0.9848077530122089085 0.1736481776669255017 -7.401486830834376525e-17 -7.289041614823457777e-16 -1.285254700200137385e-16 -10 forward_v I I I I #
DXID-attrib $-1 -1 $-1 $-1 $73 @10 ASM ENTITY @36 7147870c-c492-402a-8b96-2d6845e0cf70 #
face $199 -1 $-1 $200 $201 $5 $-1 $202 forward single #
loop $-1 -1 $-1 $-1 $203 $73 #
cone-surface $-1 -1 $-1 35.59252791465080179 228.966442626579834 813 -0.9848077530122089085 -0.1736481776669255295 0 1.227878039689699108 -6.963642403200207553 -7.071067811865461294 1 I I 0 -1 9.999999999999998224 forward I I I I #
coedge $-1 -1 $-1 $185 $204 $130 $205 reversed $74 $-1 #
coedge $-1 -1 $-1 $115 $76 $206 $194 forward $44 $-1 #
coedge $-1 -1 $-1 $76 $115 $128 $205 forward $44 $-1 #
coedge $-1 -1 $-1 $161 $103 $76 $132 reversed $93 $-1 #
edge $-1 -1 $-1 $207 -0.7853981633974501664 $208 0.7853981633974465026 $76 $209 forward @7 unknown #
coedge $-1 -1 $-1 $210 $77 $211 $212 reversed $27 $-1 #
coedge $-1 -1 $-1 $140 $213 $77 $135 reversed $197 $-1 #
edge $214 -1 $-1 $138 0.9999999999999964473 $215 21.70000000000000639 $77 $216 forward @7 unknown #
coedge $-1 -1 $-1 $78 $210 $217 $218 reversed $27 $-1 #
edge $219 -1 $-1 $86 0.9999999999999964473 $220 21.70000000000000639 $83 $221 forward @7 unknown #
vertex $-1 -1 $-1 $141 $222 #
straight-curve $-1 -1 $-1 40.59252791465078758 229.8480775301220547 773 9.848077530122088419 1.736481776669255295 0 F -5.786993384617517222 F 3.293297269209389366 #
coedge $-1 -1 $-1 $223 $134 $80 $141 forward $197 $-1 #
edge $-1 -1 $-1 $138 -0.7853981633974466137 $145 0.7853981633974500554 $80 $224 reversed @7 unknown #
coedge $-1 -1 $-1 $206 $81 $117 $192 reversed $144 $-1 #
coedge $-1 -1 $-1 $81 $206 $225 $226 forward $144 $-1 #
loop $-1 -1 $-1 $-1 $81 $183 #
vertex $-1 -1 $-1 $82 $227 #
straight-curve $-1 -1 $-1 42.32900969132003866 220 763 -9.848077530122088419 -1.736481776669255295 -0 F -3.293297269209389366 F 5.786993384617517222 #
coedge $-1 -1 $-1 $228 $83 $229 $230 reversed $85 $-1 #
coedge $-1 -1 $-1 $84 $228 $231 $232 forward $85 $-1 #
coedge $-1 -1 $-1 $233 $117 $84 $150 forward $118 $-1 #
edge $-1 -1 $-1 $87 76.29999999999999716 $234 81.29999999999999716 $149 $120 forward @7 unknown #
face $235 -1 $-1 $236 $85 $5 $-1 $237 forward single #
point $-1 -1 $-1 40.59252791465078758 229.8480775301220547 773 #
point $-1 -1 $-1 42.32900969132004576 220 763 #
coedge $-1 -1 $-1 $238 $239 $89 $155 forward $240 $-1 #
edge $241 -1 $-1 $167 0.2999999999999999334 $159 0.7154266118857416368 $89 $242 forward @7 unknown #
coedge $-1 -1 $-1 $243 $90 $92 $162 forward $158 $-1 #
coedge $-1 -1 $-1 $90 $243 $238 $244 forward $158 $-1 #
loop $-1 -1 $-1 $-1 $243 $200 #
vertex $-1 -1 $-1 $91 $245 #
ellipse-curve $-1 -1 $-1 -2.398221603366161414 432.4609571295655996 247.0000000000000284 0 0 1 -2.457456132866989051 1.720729309053119938 0 1 I I #
coedge $-1 -1 $-1 $92 $131 $204 $246 forward $93 $-1 #
edge $-1 -1 $-1 $95 -0.75 $247 2.25 $92 $248 forward @7 tangent #
face $249 -1 $-1 $69 $93 $5 $-1 $250 forward single #
point $-1 -1 $-1 -5.352644862402788917 431.9400125965648272 247.0000000000000284 #
coedge $-1 -1 $-1 $187 $97 $239 $251 forward $166 $-1 #
loop $-1 -1 $-1 $-1 $97 $252 #
vertex $-1 -1 $-1 $155 $253 #
ellipse-curve $-1 -1 $-1 1.6929318785605596 433.1823378706486096 247.0000000000000284 0 0 1 1.720729309053170786 2.45745613286695308 0 1 I I #
point $-1 -1 $-1 4.64735513759719332 433.7032824036493821 247.0000000000000284 #
coedge $-1 -1 $-1 $108 $225 $103 $171 reversed $178 $-1 #
edge $-1 -1 $-1 $63 23.70000000000000284 $208 28.70000000000000284 $170 $181 forward @7 unknown #
coedge $-1 -1 $-1 $254 $255 $105 $173 reversed $256 $-1 #
edge $257 -1 $-1 $176 0 $180 1.015426611885743124 $105 $258 forward @7 unknown #
coedge $-1 -1 $-1 $106 $259 $254 $260 forward $118 $-1 #
DXID-attrib $-1 -1 $-1 $-1 $107 @10 ASM ENTITY @36 4f3b9c4a-f539-46cc-ba0e-d0bf9ae115ac #
vertex $-1 -1 $-1 $107 $261 #
coedge $-1 -1 $-1 $262 $108 $255 $263 forward $178 $-1 #
loop $-1 -1 $-1 $-1 $177 $264 #
DXID-attrib $-1 -1 $-1 $-1 $109 @10 ASM ENTITY @36 6ba3932e-809d-4870-841e-78690cf21926 #
vertex $-1 -1 $-1 $173 $265 #
straight-curve $-1 -1 $-1 32.32900969132005287 218.2367301929153882 0 0 0 10 I I #
DXID-attrib $-1 -1 $-1 $-1 $110 @10 ASM ENTITY @36 0c5906b0-d452-40be-9598-c04b9e235e68 #
face $266 -1 $-1 $267 $144 $5 $-1 $184 forward single #
plane-surface $-1 -1 $-1 42.32900969132004576 220 0 -0.1736481776669255295 0.9848077530122089085 0 -9.848077530122088419 -1.736481776669255295 0 forward_v I I I I #
coedge $-1 -1 $-1 $268 $128 $112 $186 forward $74 $-1 #
edge $269 -1 $-1 $190 1.000000000000003775 $188 21.70000000000000639 $185 $270 forward @7 unknown #
coedge $-1 -1 $-1 $113 $165 $268 $271 forward $166 $-1 #
vertex $-1 -1 $-1 $186 $272 #
straight-curve $-1 -1 $-1 4.647355137597198649 433.7032824036493821 269.5 -7.289041614823457777e-16 -1.285254700200137139e-16 -10 F -1.680001000000000744 F 3.180001000000000744 #
vertex $-1 -1 $-1 $116 $273 #
ellipse-curve $-1 -1 $-1 40.59252791465077337 229.8480775301221115 287 0.9848077530122089085 0.1736481776669255017 -7.401486830834376525e-17 1.227878039689692891 -6.963642403200208442 -7.071067811865462183 1 I I #
edge $274 -1 $-1 $119 28.70000000000000284 $87 76.29999999999999716 $117 $120 forward @7 unknown #
face $275 -1 $-1 $276 $118 $5 $-1 $277 forward single #
edge $-1 -1 $-1 $208 -0.5077133059428720063 $119 0.5077133059428711181 $206 $278 forward @7 tangent #
point $-1 -1 $-1 42.32900969132004576 220 287 #
DXID-attrib $-1 -1 $-1 $-1 $122 @10 ASM ENTITY @36 307d84e6-c279-4f19-92cc-edb29b0a4005 #
loop $-1 -1 $-1 $-1 $213 $122 #
plane-surface $-1 -1 $-1 32.32900969132005997 218.2367301929153882 773 -0.9848077530122089085 -0.1736481776669255017 1.836970198721029441e-16 1.809062493752847788e-15 3.189865274363567893e-16 10 forward_v I I I I #
DXID-attrib $-1 -1 $-1 $-1 $125 @10 ASM ENTITY @36 7e96f95e-a03c-4a22-9820-08f27d9b38a3 #
face $279 -1 $-1 $280 $158 $5 $-1 $281 forward single #
loop $-1 -1 $-1 $-1 $282 $125 #
plane-surface $-1 -1 $-1 32.32900969132006708 218.2367301929153882 803 0 0 1 9.848077530122088419 1.736481776669255295 0 forward_v I I I I #
coedge $-1 -1 $-1 $283 $284 $285 $286 forward $126 $-1 #
coedge $-1 -1 $-1 $128 $287 $161 $246 reversed $74 $-1 #
edge $-1 -1 $-1 $190 -0.5077133059428698969 $207 0.5077133059428720063 $128 $288 forward @7 tangent #
coedge $-1 -1 $-1 $143 $142 $129 $194 reversed $144 $-1 #
vertex $-1 -1 $-1 $132 $289 #
vertex $-1 -1 $-1 $132 $290 #
ellipse-curve $-1 -1 $-1 30.59252791465079468 228.0848077230375281 287 -0.9848077530122089085 -0.1736481776669255017 6.731872517336356154e-18 1.227878039689692891 -6.963642403200208442 -7.071067811865462183 1 I I #
coedge $-1 -1 $-1 $136 $133 $291 $292 reversed $27 $-1 #
coedge $-1 -1 $-1 $293 $294 $133 $212 forward $295 $-1 #
edge $-1 -1 $-1 $296 -0.7853981633974597143 $215 0.7853981633974388421 $133 $297 forward @7 unknown #
coedge $-1 -1 $-1 $134 $298 $293 $299 reversed $197 $-1 #
DXID-attrib $-1 -1 $-1 $-1 $135 @10 ASM ENTITY @36 efa3c7a9-00aa-4a8f-89a3-d6d8f80d532b #
vertex $-1 -1 $-1 $135 $300 #
straight-curve $-1 -1 $-1 32.32900969132005287 218.2367301929153882 773 -1.736481776669255073 9.848077530122088419 0 I I #
coedge $-1 -1 $-1 $301 $229 $136 $218 forward $302 $-1 #
edge $-1 -1 $-1 $220 -0.7853981633974387311 $303 0.7853981633974538301 $136 $304 forward @7 unknown #
DXID-attrib $-1 -1 $-1 $-1 $137 @10 ASM ENTITY @36 7f999968-d76d-4ed1-8e44-354f261f5fbf #
vertex $-1 -1 $-1 $218 $305 #
straight-curve $-1 -1 $-1 42.32900969132003866 220 773 -1.736481776669255073 9.848077530122088419 0 I I #
point $-1 -1 $-1 30.5925279146508089 228.0848077230374429 773 #
coedge $-1 -1 $-1 $285 $140 $306 $307 forward $197 $-1 #
ellipse-curve $-1 -1 $-1 30.59252791465081245 228.0848077230374429 763 -0.9848077530122089085 -0.1736481776669255017 1.836970198721029441e-16 1.227878039689691114 -6.963642403200184461 7.07106781186548794 1 I I #
coedge $-1 -1 $-1 $170 $306 $143 $226 reversed $178 $-1 #
edge $308 -1 $-1 $208 28.70000000000000284 $145 76.29999999999999716 $143 $181 forward @7 unknown #
point $-1 -1 $-1 32.32900969132005287 218.2367301929153882 763 #
coedge $-1 -1 $-1 $148 $147 $309 $310 reversed $85 $-1 #
coedge $-1 -1 $-1 $217 $311 $147 $230 forward $302 $-1 #
edge $-1 -1 $-1 $312 -0.75 $220 2.25 $147 $313 forward @7 tangent #
coedge $-1 -1 $-1 $284 $283 $148 $232 reversed $126 $-1 #
edge $-1 -1 $-1 $314 -0.7853981633974500554 $234 0.7853981633974465026 $231 $315 reversed @7 unknown #
coedge $-1 -1 $-1 $316 $149 $317 $318 forward $118 $-1 #
vertex $-1 -1 $-1 $319 $320 #
DXID-attrib $-1 -1 $-1 $-1 $151 @10 ASM ENTITY @36 c79b025d-2f9f-4ef2-9f0f-ec068202d418 #
face $321 -1 $-1 $110 $322 $5 $-1 $184 forward single #
plane-surface $-1 -1 $-1 42.32900969132003866 220 803 0.9848077530122089085 0.1736481776669255017 -7.401486830834376525e-17 -7.289041614823457777e-16 -1.285254700200137385e-16 -10 forward_v I I I I #
coedge $-1 -1 $-1 $323 $154 $157 $244 reversed $240 $-1 #
coedge $-1 -1 $-1 $154 $323 $165 $251 reversed $240 $-1 #
loop $-1 -1 $-1 $-1 $238 $280 #
DXID-attrib $-1 -1 $-1 $-1 $155 @10 ASM ENTITY @36 55afab3b-16c4-4acd-a6f8-cc46952b61e6 #
straight-curve $-1 -1 $-1 4.126410604596419951 436.6577056626859985 247.0000000000000284 -9.848077530122088419 -1.736481776669255517 -0 I I #
coedge $-1 -1 $-1 $157 $156 $287 $324 forward $158 $-1 #
edge $-1 -1 $-1 $325 -2.25 $159 0.75 $238 $326 forward @7 tangent #
point $-1 -1 $-1 -2.919166136366930786 435.4153803886021592 247.0000000000000284 #
edge $327 -1 $-1 $207 1.000000000000003553 $247 21.70000000000000639 $204 $328 forward @7 unknown #
vertex $-1 -1 $-1 $324 $329 #
straight-curve $-1 -1 $-1 -5.352644862402796022 431.9400125965648272 254.5000000000000284 6.629600247362659753e-17 1.168977394921516522e-17 10 F -1.680001000000000744 F 3.180001000000000744 #
DXID-attrib $-1 -1 $-1 $-1 $163 @10 ASM ENTITY @36 7b975fed-3b50-4cc3-b330-f316694cb54b #
plane-surface $-1 -1 $-1 32.32900969132005287 218.2367301929153882 247.0000000000000284 -0.9848077530122089085 -0.1736481776669255017 6.731872517336356154e-18 6.629600247362659753e-17 1.168977394921516676e-17 10 forward_v I I I I #
edge $-1 -1 $-1 $167 -2.25 $330 0.75 $239 $331 forward @7 tangent #
face $332 -1 $-1 $333 $166 $5 $-1 $334 forward single #
point $-1 -1 $-1 1.171987345559795557 436.1367611296851692 247.0000000000000284 #
coedge $-1 -1 $-1 $335 $172 $174 $260 reversed $256 $-1 #
coedge $-1 -1 $-1 $172 $336 $177 $263 reversed $256 $-1 #
loop $-1 -1 $-1 $-1 $335 $337 #
DXID-attrib $-1 -1 $-1 $-1 $173 @10 ASM ENTITY @36 8229d7b4-f034-498c-bcb6-38e9775512c8 #
straight-curve $-1 -1 $-1 42.32900969132004576 220 0 -9.848077530122088419 -1.736481776669255295 0 F 0 F 1.015426611885743124 #
coedge $-1 -1 $-1 $174 $316 $338 $339 reversed $118 $-1 #
edge $340 -1 $-1 $341 0 $176 21.83911205362507602 $174 $342 forward @7 unknown #
point $-1 -1 $-1 42.32900969132004576 220 0 #
coedge $-1 -1 $-1 $343 $177 $344 $345 forward $178 $-1 #
edge $346 -1 $-1 $180 0 $347 22.06183022165586749 $177 $348 forward @7 unknown #
face $349 -1 $-1 $193 $178 $5 $-1 $350 forward single #
point $-1 -1 $-1 32.32900969132005287 218.2367301929153882 0 #
DXID-attrib $-1 -1 $-1 $-1 $183 @10 ASM ENTITY @36 566ad092-ce46-438d-9fb6-418dd7cb9b88 #
face $351 -1 $-1 $352 $353 $5 $-1 $354 forward single #
coedge $-1 -1 $-1 $355 $185 $187 $271 reversed $74 $-1 #
DXID-attrib $-1 -1 $-1 $-1 $186 @10 ASM ENTITY @36 cb26f671-639f-479d-b88f-85295aea5c52 #
straight-curve $-1 -1 $-1 42.32900969132003866 220 277 -1.736481776669255073 9.848077530122088419 0 I I #
edge $-1 -1 $-1 $330 -0.7853981633974560506 $188 0.7853981633974370657 $268 $356 forward @7 unknown #
point $-1 -1 $-1 4.64735513759719332 433.7032824036493821 277 #
point $-1 -1 $-1 40.59252791465077337 229.8480775301221115 277 #
DXID-attrib $-1 -1 $-1 $-1 $192 @10 ASM ENTITY @36 474e1f97-fb1f-4305-aeda-999983a3437c #
DXID-attrib $-1 -1 $-1 $-1 $193 @10 ASM ENTITY @36 f1a9db1e-3662-4913-854d-e8ef96c53468 #
face $357 -1 $-1 $358 $359 $5 $-1 $360 forward single #
plane-surface $-1 -1 $-1 84 5.621339458020870872 0 0.9816271834476639757 0.1908089953765450264 0 -1.90808995376545032 9.816271834476639313 0 forward_v I I I I #
straight-curve $-1 -1 $-1 37.32900969132005287 219.1183650964576941 287 9.848077530122088419 1.736481776669255295 0 F -5.279280078674646326 F 3.801010575152261151 #
DXID-attrib $-1 -1 $-1 $-1 $200 @10 ASM ENTITY @36 fba2f545-791b-4924-8d65-2668e3a49be2 #
face $361 -1 $-1 $252 $240 $5 $-1 $362 forward single #
cone-surface $-1 -1 $-1 -2.398221603366161414 432.4609571295655996 254.5000000000000284 6.629600247362659291e-18 1.16897739492151656e-18 1 -2.457456132866989051 1.720729309053119938 0 1 I I 0 1 3.000000000000000444 forward I I I I #
coedge $-1 -1 $-1 $309 $363 $284 $364 reversed $201 $-1 #
coedge $-1 -1 $-1 $231 $203 $365 $319 forward $126 $-1 #
coedge $-1 -1 $-1 $203 $231 $282 $364 forward $126 $-1 #
coedge $-1 -1 $-1 $298 $223 $203 $286 reversed $197 $-1 #
edge $-1 -1 $-1 $366 -0.7853981633974501664 $367 0.7853981633974463916 $203 $368 forward @7 unknown #
coedge $-1 -1 $-1 $204 $355 $243 $324 reversed $74 $-1 #
straight-curve $-1 -1 $-1 35.59252791465079468 228.966442626579834 277 -9.848077530122088419 -1.736481776669255295 0 F -3.801010575152261151 F 5.279280078674646326 #
point $-1 -1 $-1 30.59252791465079468 228.0848077230375281 277 #
point $-1 -1 $-1 32.32900969132005287 218.2367301929153882 287 #
coedge $-1 -1 $-1 $369 $370 $210 $292 forward $371 $-1 #
edge $372 -1 $-1 $303 0.2999999999999989342 $296 0.7154266118857404155 $210 $373 forward @7 unknown #
coedge $-1 -1 $-1 $374 $211 $213 $299 forward $295 $-1 #
coedge $-1 -1 $-1 $211 $374 $369 $375 forward $295 $-1 #
loop $-1 -1 $-1 $-1 $374 $333 #
vertex $-1 -1 $-1 $212 $376 #
ellipse-curve $-1 -1 $-1 -2.398221603366156973 432.4609571295655996 773 0 0 1 -2.457456132866989051 1.720729309053119938 0 1 I I #
coedge $-1 -1 $-1 $213 $285 $363 $377 forward $197 $-1 #
edge $-1 -1 $-1 $215 -0.75 $378 2.25 $213 $379 forward @7 tangent #
point $-1 -1 $-1 -5.352644862402788917 431.9400125965648272 773 #
coedge $-1 -1 $-1 $311 $217 $370 $380 forward $302 $-1 #
loop $-1 -1 $-1 $-1 $217 $381 #
vertex $-1 -1 $-1 $292 $382 #
ellipse-curve $-1 -1 $-1 1.69293187856056182 433.1823378706486096 773 0 0 1 1.720729309053166567 2.457456132866956189 0 1 I I #
point $-1 -1 $-1 4.64735513759719332 433.7032824036493821 773 #
coedge $-1 -1 $-1 $225 $383 $223 $307 reversed $178 $-1 #
edge $-1 -1 $-1 $145 76.29999999999999716 $367 81.29999999999999716 $306 $181 forward @7 unknown #
DXID-attrib $-1 -1 $-1 $-1 $226 @10 ASM ENTITY @36 8ca8b84a-cc8f-4b0b-8331-2d0c9c440476 #
coedge $-1 -1 $-1 $384 $282 $228 $310 forward $201 $-1 #
edge $385 -1 $-1 $314 1.000000000000003775 $312 21.70000000000000639 $309 $386 forward @7 unknown #
coedge $-1 -1 $-1 $229 $301 $384 $387 forward $302 $-1 #
vertex $-1 -1 $-1 $310 $388 #
straight-curve $-1 -1 $-1 4.647355137597192432 433.7032824036493821 795.5 -7.289041614823457777e-16 -1.285254700200137139e-16 -10 F -1.680000999999990086 F 3.180000999999990086 #
vertex $-1 -1 $-1 $232 $389 #
ellipse-curve $-1 -1 $-1 40.59252791465077337 229.8480775301221115 813 0.9848077530122089085 0.1736481776669255017 -7.401486830834376525e-17 1.227878039689699108 -6.963642403200207553 -7.071067811865461294 1 I I #
coedge $-1 -1 $-1 $259 $233 $390 $391 reversed $118 $-1 #
coedge $-1 -1 $-1 $365 $392 $233 $318 reversed $322 $-1 #
edge $393 -1 $-1 $234 81.29999999999999716 $394 105 $233 $120 forward @7 unknown #
edge $-1 -1 $-1 $367 -0.5077133059428724504 $234 0.5077133059428706741 $365 $395 forward @7 tangent #
point $-1 -1 $-1 42.32900969132004576 220 813 #
DXID-attrib $-1 -1 $-1 $-1 $236 @10 ASM ENTITY @36 450c36fd-756c-4063-94a1-1611ec4913b4 #
loop $-1 -1 $-1 $-1 $365 $236 #
coedge $-1 -1 $-1 $239 $238 $355 $396 forward $240 $-1 #
edge $-1 -1 $-1 $247 -0.7853981633974390641 $325 0.7853981633974596033 $287 $397 forward @7 unknown #
vertex $-1 -1 $-1 $396 $398 #
straight-curve $-1 -1 $-1 -2.919166136366933451 435.4153803886021592 254.5000000000000284 -6.629600247362659753e-17 -1.168977394921516522e-17 -10 F -3.180001000000000744 F 1.680001000000000744 #
DXID-attrib $-1 -1 $-1 $-1 $246 @10 ASM ENTITY @36 ffa9f532-ef8c-4b78-8c71-ec1350954a7f #
straight-curve $-1 -1 $-1 32.32900969132005287 218.2367301929153882 277 -1.736481776669255073 9.848077530122088419 0 I I #
point $-1 -1 $-1 -5.352644862402788917 431.9400125965648272 277 #
vertex $-1 -1 $-1 $271 $399 #
straight-curve $-1 -1 $-1 1.171987345559786453 436.1367611296852829 269.5 7.289041614823457777e-16 1.285254700200137139e-16 10 F -3.180001000000000744 F 1.680001000000000744 #
DXID-attrib $-1 -1 $-1 $-1 $252 @10 ASM ENTITY @36 17612877-6092-4d82-b657-8e5c22442d80 #
face $400 -1 $-1 $401 $295 $5 $-1 $402 forward single #
cone-surface $-1 -1 $-1 1.692931878560561376 433.1823378706486096 269.5 -7.28904161482345753e-17 -1.285254700200137262e-17 -1 1.720729309053170786 2.45745613286695308 0 1 I I 0 1 3.000000000000000444 forward I I I I #
coedge $-1 -1 $-1 $403 $254 $404 $405 reversed $256 $-1 #
coedge $-1 -1 $-1 $255 $406 $407 $408 reversed $256 $-1 #
face $409 -1 $-1 $-1 $256 $5 $-1 $410 reversed single #
coedge $-1 -1 $-1 $411 $404 $259 $339 forward $359 $-1 #
edge $412 -1 $-1 $341 0 $413 105 $338 $414 forward @7 unknown #
DXID-attrib $-1 -1 $-1 $-1 $260 @10 ASM ENTITY @36 21375f48-3bc7-4ffc-9260-0619ba352788 #
vertex $-1 -1 $-1 $260 $415 #
straight-curve $-1 -1 $-1 84 5.621339458020870872 0 -1.90808995376545032 9.816271834476639313 0 F 0 F 21.83911205362507602 #
coedge $-1 -1 $-1 $383 $262 $416 $417 reversed $178 $-1 #
coedge $-1 -1 $-1 $407 $418 $262 $345 reversed $419 $-1 #
edge $420 -1 $-1 $347 0 $421 105 $262 $422 forward @7 unknown #
DXID-attrib $-1 -1 $-1 $-1 $263 @10 ASM ENTITY @36 ae81f9fe-cbab-472e-88a4-6944a00510ec #
vertex $-1 -1 $-1 $408 $423 #
straight-curve $-1 -1 $-1 32.32900969132005287 218.2367301929153882 0 -1.465382036146118949 -9.892050115529150034 0 F 0 F 22.06183022165586749 #
DXID-attrib $-1 -1 $-1 $-1 $264 @10 ASM ENTITY @36 7e52ac3f-c758-45d9-a1c1-cdbaad51ac67 #
plane-surface $-1 -1 $-1 32.32900969132005287 218.2367301929153882 0 -0.989205011552914959 0.1465382036146118949 0 -1.465382036146118949 -9.892050115529150034 0 forward_v I I I I #
DXID-attrib $-1 -1 $-1 $-1 $267 @10 ASM ENTITY @36 a22c7421-3f09-40fb-98b4-9d46940bd868 #
face $424 -1 $-1 $425 $426 $5 $-1 $427 forward single #
loop $-1 -1 $-1 $-1 $428 $267 #
plane-surface $-1 -1 $-1 164.0000000000000284 21.99999999999999289 0 0 1 0 -10 -0 -0 forward_v I I I I #
coedge $-1 -1 $-1 $287 $268 $323 $396 reversed $74 $-1 #
ellipse-curve $-1 -1 $-1 1.69293187856056182 433.1823378706486096 277 -0 -0 -1 1.720729309053170786 2.45745613286695308 0 1 I I #
DXID-attrib $-1 -1 $-1 $-1 $276 @10 ASM ENTITY @36 5929e87d-d7b3-4177-a27a-d7728573ca83 #
face $429 -1 $-1 $337 $430 $5 $-1 $431 forward single #
loop $-1 -1 $-1 $-1 $404 $276 #
plane-surface $-1 -1 $-1 129.0000000000000284 21.99999999999999289 0 -0.342020143325668935 0.9396926207859083169 0 -9.396926207859083391 -3.420201433256689239 0 forward_v I I I I #
DXID-attrib $-1 -1 $-1 $-1 $280 @10 ASM ENTITY @36 620bea58-d11e-487e-910b-b6b63ab54392 #
plane-surface $-1 -1 $-1 -0.8735893954035711673 435.7760707591437495 262 -0.1736481776669255017 0.9848077530122089085 0 0 0 10 forward_v I I I I #
coedge $-1 -1 $-1 $282 $432 $298 $377 reversed $201 $-1 #
edge $-1 -1 $-1 $314 -0.50771330594287023 $366 0.5077133059428715622 $282 $433 forward @7 tangent #
coedge $-1 -1 $-1 $434 $317 $283 $319 reversed $322 $-1 #
vertex $-1 -1 $-1 $286 $435 #
vertex $-1 -1 $-1 $286 $436 #
ellipse-curve $-1 -1 $-1 30.59252791465080179 228.0848077230375281 813 -0.9848077530122089085 -0.1736481776669255017 1.836970198721029441e-16 1.227878039689699108 -6.963642403200207553 -7.071067811865461294 1 I I #
coedge $-1 -1 $-1 $437 $291 $294 $375 reversed $371 $-1 #
coedge $-1 -1 $-1 $291 $437 $301 $380 reversed $371 $-1 #
loop $-1 -1 $-1 $-1 $369 $401 #
DXID-attrib $-1 -1 $-1 $-1 $292 @10 ASM ENTITY @36 ba8469a4-22b5-4d9e-9a7f-26204d4a75fd #
straight-curve $-1 -1 $-1 4.126410604596411069 436.6577056626859985 773 -9.848077530122088419 -1.736481776669255517 -0 I I #
coedge $-1 -1 $-1 $294 $293 $432 $438 forward $295 $-1 #
edge $-1 -1 $-1 $439 -2.25 $296 0.75 $369 $440 forward @7 tangent #
point $-1 -1 $-1 -2.919166136366927233 435.4153803886021592 773 #
edge $441 -1 $-1 $366 1.000000000000003553 $378 21.70000000000000639 $363 $442 forward @7 unknown #
vertex $-1 -1 $-1 $438 $443 #
straight-curve $-1 -1 $-1 -5.352644862402788917 431.9400125965648272 780.5 1.809062493752847788e-15 3.189865274363567893e-16 10 F -1.680000999999990086 F 3.180000999999990086 #
edge $-1 -1 $-1 $303 -2.25 $444 0.75 $370 $445 forward @7 tangent #
face $446 -1 $-1 $163 $302 $5 $-1 $447 forward single #
point $-1 -1 $-1 1.171987345559797333 436.1367611296851692 773 #
coedge $-1 -1 $-1 $306 $343 $434 $448 reversed $178 $-1 #
coedge $-1 -1 $-1 $449 $309 $311 $387 reversed $201 $-1 #
DXID-attrib $-1 -1 $-1 $-1 $310 @10 ASM ENTITY @36 57646292-74c8-40c8-9074-62f6815ba837 #
straight-curve $-1 -1 $-1 42.32900969132004576 220 803 -1.736481776669255073 9.848077530122088419 0 I I #
edge $-1 -1 $-1 $444 -0.7853981633974542742 $312 0.7853981633974391752 $384 $450 forward @7 unknown #
point $-1 -1 $-1 4.647355137597202202 433.7032824036493821 803 #
point $-1 -1 $-1 40.59252791465078047 229.8480775301221115 803 #
coedge $-1 -1 $-1 $451 $452 $316 $391 forward $430 $-1 #
edge $453 -1 $-1 $413 0 $394 21.83911205362507602 $316 $454 forward @7 unknown #
coedge $-1 -1 $-1 $317 $434 $451 $455 reversed $322 $-1 #
DXID-attrib $-1 -1 $-1 $-1 $318 @10 ASM ENTITY @36 5e529243-cebf-4f32-8d52-69ec6de571e9 #
vertex $-1 -1 $-1 $455 $456 #
straight-curve $-1 -1 $-1 37.32900969132005997 219.1183650964576941 813 9.848077530122088419 1.736481776669255295 0 F -5.279280078674645438 F 3.801010575152262483 #
edge $457 -1 $-1 $325 0.3000000000000009881 $330 0.715426611885742858 $355 $458 forward @7 unknown #
ellipse-curve $-1 -1 $-1 -2.398221603366161414 432.4609571295655996 277 -0 -0 -1 -2.457456132866989051 1.720729309053119938 0 1 I I #
point $-1 -1 $-1 -2.919166136366931674 435.4153803886021592 277 #
point $-1 -1 $-1 1.171987345559796223 436.1367611296851692 277 #
DXID-attrib $-1 -1 $-1 $-1 $333 @10 ASM ENTITY @36 63f8211e-f077-42ad-86d4-5a9227a0b7c5 #
face $459 -1 $-1 $381 $371 $5 $-1 $460 forward single #
cone-surface $-1 -1 $-1 -2.398221603366155641 432.4609571295655996 780.5 1.809062493752847788e-16 3.189865274363567893e-17 1 -2.457456132866989051 1.720729309053119938 0 1 I I 0 1 3.000000000000000444 forward I I I I #
coedge $-1 -1 $-1 $406 $335 $428 $461 reversed $256 $-1 #
coedge $-1 -1 $-1 $338 $462 $335 $405 forward $359 $-1 #
edge $463 -1 $-1 $464 0 $341 4.788799976141606685 $404 $465 forward @7 unknown #
coedge $-1 -1 $-1 $336 $403 $466 $467 reversed $256 $-1 #
coedge $-1 -1 $-1 $468 $344 $336 $408 forward $419 $-1 #
edge $469 -1 $-1 $347 -13.20000000000000107 $470 3.200000000000001066 $407 $471 forward @7 unknown #
DXID-attrib $-1 -1 $-1 $-1 $337 @10 ASM ENTITY @36 2b37c02f-1610-48e8-bb2f-ac5bb1862373 #
plane-surface $-1 -1 $-1 66 110 0 0 0 1 10 0 0 forward_v I I I I #
coedge $-1 -1 $-1 $462 $338 $452 $472 reversed $359 $-1 #
DXID-attrib $-1 -1 $-1 $-1 $339 @10 ASM ENTITY @36 cac5692b-90e8-4b35-af65-e72ec453354e #
vertex $-1 -1 $-1 $391 $473 #
straight-curve $-1 -1 $-1 84 5.621339458020870872 0 0 0 10 I I #
point $-1 -1 $-1 84 5.621339458020870872 0 #
coedge $-1 -1 $-1 $474 $451 $343 $417 forward $430 $-1 #
edge $475 -1 $-1 $476 0 $421 22.06183022165586749 $343 $477 forward @7 unknown #
coedge $-1 -1 $-1 $344 $468 $474 $478 reversed $419 $-1 #
loop $-1 -1 $-1 $-1 $407 $425 #
DXID-attrib $-1 -1 $-1 $-1 $345 @10 ASM ENTITY @36 d3125406-a33f-4855-8837-831255ed0f9b #
vertex $-1 -1 $-1 $478 $479 #
straight-curve $-1 -1 $-1 0 0 0 0 0 10 I I #
point $-1 -1 $-1 0 0 0 #
DXID-attrib $-1 -1 $-1 $-1 $352 @10 ASM ENTITY @36 9e9706b9-f6cd-4b72-ab89-970c10633e78 #
face $480 -1 $-1 $264 $419 $5 $-1 $481 forward single #
loop $-1 -1 $-1 $-1 $466 $352 #
plane-surface $-1 -1 $-1 164.0000000000000284 0 0 1 0 0 0 10 0 forward_v I I I I #
coedge $-1 -1 $-1 $482 $483 $403 $461 forward $353 $-1 #
DXID-attrib $-1 -1 $-1 $-1 $358 @10 ASM ENTITY @36 3801e6b1-5513-4637-8b27-ebbe4ebe98f9 #
loop $-1 -1 $-1 $-1 $452 $358 #
plane-surface $-1 -1 $-1 66 110 1050 0 0 1 10 0 0 forward_v I I I I #
coedge $-1 -1 $-1 $363 $449 $374 $438 reversed $201 $-1 #
straight-curve $-1 -1 $-1 35.59252791465080179 228.966442626579834 803 -9.848077530122088419 -1.736481776669255295 0 F -3.801010575152262483 F 5.279280078674645438 #
coedge $-1 -1 $-1 $392 $365 $383 $448 forward $322 $-1 #
point $-1 -1 $-1 30.59252791465080534 228.0848077230375281 803 #
point $-1 -1 $-1 32.32900969132005287 218.2367301929153882 813 #
coedge $-1 -1 $-1 $370 $369 $449 $484 forward $371 $-1 #
edge $-1 -1 $-1 $378 -0.7853981633974390641 $439 0.7853981633974597143 $432 $485 forward @7 unknown #
vertex $-1 -1 $-1 $484 $486 #
straight-curve $-1 -1 $-1 -2.919166136366927233 435.4153803886021592 780.5 -1.809062493752847788e-15 -3.189865274363567893e-16 -10 F -3.180000999999990086 F 1.680000999999990086 #
DXID-attrib $-1 -1 $-1 $-1 $377 @10 ASM ENTITY @36 4a1667a3-d137-4ed9-a118-8f8e9414a7c7 #
straight-curve $-1 -1 $-1 32.32900969132006708 218.2367301929153882 803 -1.736481776669255073 9.848077530122088419 0 I I #
point $-1 -1 $-1 -5.352644862402780035 431.9400125965648272 803 #
vertex $-1 -1 $-1 $387 $487 #
straight-curve $-1 -1 $-1 1.171987345559788674 436.1367611296852829 795.5 7.289041614823457777e-16 1.285254700200137139e-16 10 F -3.180000999999990086 F 1.680000999999990086 #
DXID-attrib $-1 -1 $-1 $-1 $381 @10 ASM ENTITY @36 60c4cc54-11a9-4fa1-934a-d6a9e68ddaa6 #
cone-surface $-1 -1 $-1 1.692931878560563597 433.1823378706486096 795.5 -7.28904161482345753e-17 -1.285254700200137262e-17 -1 1.720729309053166567 2.457456132866956189 0 1 I I 0 1 3.000000000000000888 forward I I I I #
edge $488 -1 $-1 $367 81.29999999999999716 $476 105 $434 $181 forward @7 unknown #
coedge $-1 -1 $-1 $432 $384 $437 $484 reversed $201 $-1 #
ellipse-curve $-1 -1 $-1 1.692931878560564041 433.1823378706486096 803 -0 -0 -1 1.720729309053166567 2.457456132866956189 0 1 I I #
coedge $-1 -1 $-1 $416 $390 $392 $455 forward $430 $-1 #
coedge $-1 -1 $-1 $390 $489 $411 $472 forward $430 $-1 #
DXID-attrib $-1 -1 $-1 $-1 $391 @10 ASM ENTITY @36 38c20289-582e-4b0e-be08-ecb13ad37f6d #
straight-curve $-1 -1 $-1 84 5.621339458020870872 1050 -1.90808995376545032 9.816271834476639313 0 I I #
edge $490 -1 $-1 $394 0 $476 1.015426611885743124 $392 $491 forward @7 unknown #
point $-1 -1 $-1 42.32900969132003866 220 1050 #
DXID-attrib $-1 -1 $-1 $-1 $396 @10 ASM ENTITY @36 5fe22f18-38d4-4fbc-ba1e-4f64b7d5fe44 #
straight-curve $-1 -1 $-1 -5.873589395403566726 434.8944358556013867 277 9.848077530122088419 1.736481776669255295 0 I I #
DXID-attrib $-1 -1 $-1 $-1 $401 @10 ASM ENTITY @36 338f724f-0cc0-4d4c-8936-291aaf383194 #
plane-surface $-1 -1 $-1 -0.8735893954035667264 435.7760707591437495 788 -0.1736481776669255017 0.9848077530122089085 0 0 0 10 forward_v I I I I #
edge $492 -1 $-1 $493 -0 $464 3.5 $428 $494 forward @7 unknown #
coedge $-1 -1 $-1 $404 $411 $482 $495 reversed $359 $-1 #
DXID-attrib $-1 -1 $-1 $-1 $405 @10 ASM ENTITY @36 3f9e24f1-5c52-4bb0-9f13-e6d334ca6dd4 #
vertex $-1 -1 $-1 $461 $496 #
straight-curve $-1 -1 $-1 129.0000000000000284 21.99999999999999289 0 -9.396926207859083391 -3.420201433256689239 0 F 0 F 4.788799976141606685 #
coedge $-1 -1 $-1 $497 $498 $406 $467 forward $426 $-1 #
edge $499 -1 $-1 $470 0 $493 2.199999999999999289 $466 $500 forward @7 unknown #
coedge $-1 -1 $-1 $418 $407 $498 $501 forward $419 $-1 #
DXID-attrib $-1 -1 $-1 $-1 $408 @10 ASM ENTITY @36 1dc33adc-0b07-450f-a7f1-6128aba46b36 #
vertex $-1 -1 $-1 $467 $502 #
straight-curve $-1 -1 $-1 132 0 0 10 0 0 F -13.20000000000000107 F 3.200000000000001066 #
edge $503 -1 $-1 $504 0 $413 4.788799976141606685 $411 $505 forward @7 unknown #
point $-1 -1 $-1 84 5.621339458020870872 1050 #
coedge $-1 -1 $-1 $506 $416 $418 $478 forward $430 $-1 #
DXID-attrib $-1 -1 $-1 $-1 $417 @10 ASM ENTITY @36 f58b1944-c801-45c4-a0fb-88312533bcaf #
vertex $-1 -1 $-1 $448 $507 #
straight-curve $-1 -1 $-1 32.32900969132005287 218.2367301929153882 1050 -1.465382036146118949 -9.892050115529150034 0 I I #
edge $508 -1 $-1 $421 -13.20000000000000107 $509 3.200000000000001066 $418 $510 forward @7 unknown #
point $-1 -1 $-1 0 0 1050 #
DXID-attrib $-1 -1 $-1 $-1 $425 @10 ASM ENTITY @36 d2b6ee46-5c37-47cb-ad36-55ee89377c8e #
plane-surface $-1 -1 $-1 0 0 0 0 -1 0 10 0 0 forward_v I I I I #
coedge $-1 -1 $-1 $511 $428 $462 $495 forward $353 $-1 #
coedge $-1 -1 $-1 $428 $511 $497 $512 reversed $353 $-1 #
edge $513 -1 $-1 $439 0.3000000000000015432 $444 0.715426611885742636 $449 $514 forward @7 unknown #
ellipse-curve $-1 -1 $-1 -2.398221603366151644 432.4609571295655996 803 -0 -0 -1 -2.457456132866989051 1.720729309053119938 0 1 I I #
point $-1 -1 $-1 -2.919166136366921904 435.4153803886021592 803 #
point $-1 -1 $-1 1.171987345559798444 436.1367611296851692 803 #
DXID-attrib $-1 -1 $-1 $-1 $448 @10 ASM ENTITY @36 31e3d93e-2ffb-4724-ad53-dffe082e8b6e #
coedge $-1 -1 $-1 $452 $506 $511 $515 forward $430 $-1 #
DXID-attrib $-1 -1 $-1 $-1 $455 @10 ASM ENTITY @36 7ac6065d-1c6c-477c-974d-a3b1d0665735 #
straight-curve $-1 -1 $-1 42.32900969132004576 220 1050 -9.848077530122088419 -1.736481776669255295 0 I I #
DXID-attrib $-1 -1 $-1 $-1 $461 @10 ASM ENTITY @36 7f45c21b-3c0f-4537-bd2d-e5637eb99374 #
vertex $-1 -1 $-1 $461 $516 #
straight-curve $-1 -1 $-1 164.0000000000000284 21.99999999999999289 0 -10 -0 -0 F -0 F 3.5 #
edge $517 -1 $-1 $464 0 $504 105 $462 $518 forward @7 unknown #
point $-1 -1 $-1 129.0000000000000284 21.99999999999999289 0 #
coedge $-1 -1 $-1 $519 $466 $483 $512 forward $426 $-1 #
coedge $-1 -1 $-1 $466 $519 $468 $501 reversed $426 $-1 #
DXID-attrib $-1 -1 $-1 $-1 $467 @10 ASM ENTITY @36 5618a8fd-46d9-4dd5-8c98-34e40668bb4c #
straight-curve $-1 -1 $-1 164.0000000000000284 0 0 0 10 0 F 0 F 2.199999999999999289 #
edge $520 -1 $-1 $470 0 $509 105 $468 $521 forward @7 unknown #
point $-1 -1 $-1 164.0000000000000284 0 0 #
DXID-attrib $-1 -1 $-1 $-1 $472 @10 ASM ENTITY @36 7bc47a69-f57d-4d29-be85-f3a3687507c6 #
vertex $-1 -1 $-1 $495 $522 #
straight-curve $-1 -1 $-1 129.0000000000000284 21.99999999999999289 1050 -9.396926207859083391 -3.420201433256689239 0 I I #
coedge $-1 -1 $-1 $489 $474 $519 $523 forward $430 $-1 #
point $-1 -1 $-1 32.32900969132005287 218.2367301929153882 1050 #
DXID-attrib $-1 -1 $-1 $-1 $478 @10 ASM ENTITY @36 0d7b2338-aa92-48a7-9022-0dfe3254d83e #
vertex $-1 -1 $-1 $523 $524 #
straight-curve $-1 -1 $-1 132 0 1050 10 0 0 I I #
coedge $-1 -1 $-1 $483 $482 $489 $515 reversed $353 $-1 #
edge $525 -1 $-1 $493 0 $526 105 $497 $527 forward @7 unknown #
DXID-attrib $-1 -1 $-1 $-1 $484 @10 ASM ENTITY @36 f31adf3c-7aea-404a-b80a-85e67baa6fd9 #
straight-curve $-1 -1 $-1 -5.873589395403562285 434.8944358556013867 803 9.848077530122088419 1.736481776669255295 0 I I #
edge $528 -1 $-1 $526 -0 $504 3.5 $511 $529 forward @7 unknown #
point $-1 -1 $-1 164.0000000000000284 21.99999999999999289 0 #
DXID-attrib $-1 -1 $-1 $-1 $495 @10 ASM ENTITY @36 79e8bce4-f043-404d-ba17-a971cb0bff7f #
straight-curve $-1 -1 $-1 129.0000000000000284 21.99999999999999289 0 0 0 10 I I #
coedge $-1 -1 $-1 $498 $497 $506 $523 reversed $426 $-1 #
DXID-attrib $-1 -1 $-1 $-1 $501 @10 ASM ENTITY @36 3d53a5f0-02c4-45c8-b0f4-1c9ee4ebbe4a #
straight-curve $-1 -1 $-1 164.0000000000000284 0 0 0 0 10 I I #
point $-1 -1 $-1 129.0000000000000284 21.99999999999999289 1050 #
edge $530 -1 $-1 $509 0 $526 2.199999999999999289 $519 $531 forward @7 unknown #
point $-1 -1 $-1 164.0000000000000284 0 1050 #
DXID-attrib $-1 -1 $-1 $-1 $512 @10 ASM ENTITY @36 fec2c469-fe60-468a-ab69-5a7b307fa484 #
vertex $-1 -1 $-1 $515 $532 #
straight-curve $-1 -1 $-1 164.0000000000000284 21.99999999999999289 0 0 0 10 I I #
DXID-attrib $-1 -1 $-1 $-1 $515 @10 ASM ENTITY @36 02455080-e961-47d1-bfd6-99e1f7f27342 #
straight-curve $-1 -1 $-1 164.0000000000000284 21.99999999999999289 1050 -10 -0 -0 I I #
DXID-attrib $-1 -1 $-1 $-1 $523 @10 ASM ENTITY @36 46d1b402-facb-495e-bad9-7d87138fbb9f #
straight-curve $-1 -1 $-1 164.0000000000000284 0 1050 0 10 0 I I #
point $-1 -1 $-1 164.0000000000000284 21.99999999999999289 1050 #
End-of-ACIS-data 