700 0 1 0           
30 Autodesk Translation Framework 20 ASM 226.0.3.65535 NT 24 Sun Aug  1 02:38:01 2021 
1 9.999999999999999547e-07 1.000000000000000036e-10 
body $1 -1 $-1 $2 $-1 $3 #
rgb_color-st-attrib $-1 -1 $4 $-1 $0 0.7490196078431372584 0.7490196078431372584 0.7490196078431372584 #
lump $-1 -1 $-1 $-1 $5 $0 #
transform $-1 -1 1 0 0 0 1 0 0 0 1 0 0 0 1 no_rotate no_reflect no_shear #
DXID-attrib $-1 -1 $-1 $1 $0 @10 ASM ENTITY @101 SOSTENEDOR2.IPT|:|5971F627F38A04EEA01E5D1B46CC1B5212E72B7F|:|DA4B9237BACCCDF19C0760CAB7AEC4A8359010B0 #
shell $-1 -1 $-1 $-1 $-1 $6 $-1 $2 #
face $7 -1 $-1 $8 $9 $5 $-1 $10 forward single #
DXID-attrib $-1 -1 $-1 $-1 $6 @10 ASM ENTITY @36 2fae9945-0c87-4383-a8e0-6a0a2154618e #
face $11 -1 $-1 $12 $13 $5 $-1 $14 forward single #
loop $-1 -1 $-1 $-1 $15 $6 #
cone-surface $-1 -1 $-1 40.59252791465078758 229.8480775301220547 237.0000000000000284 0.9848077530122089085 0.1736481776669255295 0 1.227878039689691114 -6.963642403200184461 7.07106781186548794 1 I I 0 -1 10 forward I I I I #
DXID-attrib $-1 -1 $-1 $-1 $8 @10 ASM ENTITY @36 4601ca8a-79b0-4dbb-a0e9-173384a376b0 #
face $16 -1 $-1 $17 $18 $5 $-1 $19 forward single #
loop $-1 -1 $-1 $-1 $20 $8 #
plane-surface $-1 -1 $-1 42.32900969132003866 220 247.0000000000000284 0 0 -1 -9.848077530122088419 -1.736481776669255517 -0 forward_v I I I I #
coedge $-1 -1 $-1 $21 $22 $23 $24 forward $9 $-1 #
DXID-attrib $-1 -1 $-1 $-1 $12 @10 ASM ENTITY @36 44ac1550-f507-4b82-a8bb-dda6736f5d7d #
face $25 -1 $-1 $26 $27 $5 $-1 $28 forward single #
loop $-1 -1 $-1 $-1 $29 $12 #
cone-surface $-1 -1 $-1 40.59252791465078758 229.8480775301220547 763 0.9848077530122089085 0.1736481776669255295 0 1.227878039689691114 -6.963642403200184461 7.07106781186548794 1 I I 0 -1 10 forward I I I I #
coedge $-1 -1 $-1 $30 $31 $22 $32 reversed $13 $-1 #
coedge $-1 -1 $-1 $33 $15 $34 $35 forward $9 $-1 #
coedge $-1 -1 $-1 $15 $33 $20 $32 forward $9 $-1 #
coedge $-1 -1 $-1 $36 $37 $15 $24 reversed $38 $-1 #
edge $-1 -1 $-1 $39 -0.7853981633974466137 $40 0.7853981633974500554 $15 $41 forward @7 unknown #
DXID-attrib $-1 -1 $-1 $-1 $17 @10 ASM ENTITY @36 5f9d8763-1b36-4cd2-bfb7-2e59db7eef5c #
face $42 -1 $-1 $43 $44 $5 $-1 $45 forward single #
loop $-1 -1 $-1 $-1 $46 $17 #
plane-surface $-1 -1 $-1 42.32900969132003866 220 773 0 0 -1 -9.848077530122088419 -1.736481776669255517 -0 forward_v I I I I #
coedge $-1 -1 $-1 $47 $48 $49 $50 forward $18 $-1 #
coedge $-1 -1 $-1 $51 $20 $52 $53 forward $13 $-1 #
coedge $-1 -1 $-1 $20 $54 $36 $55 reversed $13 $-1 #
edge $-1 -1 $-1 $56 -1.015426611885742236 $39 0 $20 $57 forward @7 tangent #
coedge $-1 -1 $-1 $22 $21 $58 $59 reversed $9 $-1 #
coedge $-1 -1 $-1 $60 $61 $21 $35 reversed $62 $-1 #
edge $-1 -1 $-1 $40 -8.746849937788149529e-16 $63 1.015426611885742236 $34 $64 forward @7 tangent #
coedge $-1 -1 $-1 $65 $23 $31 $55 forward $38 $-1 #
coedge $-1 -1 $-1 $23 $66 $67 $68 reversed $38 $-1 #
loop $-1 -1 $-1 $-1 $65 $69 #
vertex $-1 -1 $-1 $24 $70 #
vertex $-1 -1 $-1 $24 $71 #
ellipse-curve $-1 -1 $-1 40.59252791465078758 229.8480775301220547 237.0000000000000284 0.9848077530122089085 0.1736481776669255017 -7.401486830834376525e-17 1.227878039689691114 -6.963642403200184461 7.07106781186548794 1 I I #
DXID-attrib $-1 -1 $-1 $-1 $26 @10 ASM ENTITY @36 0a845c2d-c79e-41ab-bef5-7ae5daedb6ba #
face $72 -1 $-1 $73 $74 $5 $-1 $75 forward single #
loop $-1 -1 $-1 $-1 $76 $26 #
cone-surface $-1 -1 $-1 35.59252791465079468 228.966442626579834 287 -0.9848077530122089085 -0.1736481776669255295 0 1.227878039689692891 -6.963642403200208442 -7.071067811865462183 1 I I 0 -1 10 forward I I I I #
coedge $-1 -1 $-1 $77 $78 $48 $79 reversed $27 $-1 #
coedge $-1 -1 $-1 $80 $29 $81 $82 forward $18 $-1 #
coedge $-1 -1 $-1 $29 $80 $46 $79 forward $18 $-1 #
coedge $-1 -1 $-1 $83 $84 $29 $50 reversed $85 $-1 #
edge $-1 -1 $-1 $86 -0.7853981633974466137 $87 0.7853981633974500554 $29 $88 forward @7 unknown #
coedge $-1 -1 $-1 $89 $30 $90 $91 reversed $13 $-1 #
coedge $-1 -1 $-1 $58 $92 $30 $53 reversed $93 $-1 #
edge $94 -1 $-1 $56 0.9999999999999964473 $95 21.70000000000000639 $30 $96 forward @7 unknown #
coedge $-1 -1 $-1 $31 $89 $97 $98 reversed $13 $-1 #
edge $99 -1 $-1 $39 0.9999999999999964473 $100 21.70000000000000639 $36 $101 forward @7 unknown #
vertex $-1 -1 $-1 $59 $102 #
straight-curve $-1 -1 $-1 40.59252791465078758 229.8480775301220547 247.0000000000000284 9.848077530122088419 1.736481776669255295 0 F -5.78699338461751811 F 3.293297269209389366 #
coedge $-1 -1 $-1 $103 $52 $33 $59 forward $93 $-1 #
edge $-1 -1 $-1 $56 -0.7853981633974466137 $63 0.7853981633974499443 $33 $104 reversed @7 unknown #
coedge $-1 -1 $-1 $105 $34 $106 $107 reversed $62 $-1 #
coedge $-1 -1 $-1 $34 $105 $108 $109 forward $62 $-1 #
loop $-1 -1 $-1 $-1 $34 $110 #
vertex $-1 -1 $-1 $35 $111 #
straight-curve $-1 -1 $-1 42.32900969132003866 220 237.0000000000000284 -9.848077530122088419 -1.736481776669255295 -0 F -3.293297269209389366 F 5.78699338461751811 #
coedge $-1 -1 $-1 $112 $36 $113 $114 reversed $38 $-1 #
coedge $-1 -1 $-1 $37 $112 $115 $116 forward $38 $-1 #
coedge $-1 -1 $-1 $117 $106 $37 $68 forward $118 $-1 #
edge $-1 -1 $-1 $40 23.70000000000000284 $119 28.70000000000000284 $67 $120 forward @7 unknown #
face $121 -1 $-1 $122 $38 $5 $-1 $123 forward single #
point $-1 -1 $-1 40.59252791465078758 229.8480775301220547 247.0000000000000284 #
point $-1 -1 $-1 42.32900969132004576 220 237.0000000000000284 #
DXID-attrib $-1 -1 $-1 $-1 $43 @10 ASM ENTITY @36 b33b477c-c5fd-4ed3-8e58-8dc3ea178d58 #
face $124 -1 $-1 $125 $126 $5 $-1 $127 forward single #
loop $-1 -1 $-1 $-1 $128 $43 #
plane-surface $-1 -1 $-1 32.32900969132005287 218.2367301929153882 277 0 0 1 9.848077530122088419 1.736481776669255295 0 forward_v I I I I #
coedge $-1 -1 $-1 $129 $130 $131 $132 forward $44 $-1 #
coedge $-1 -1 $-1 $133 $46 $134 $135 forward $27 $-1 #
coedge $-1 -1 $-1 $46 $136 $83 $137 reversed $27 $-1 #
edge $-1 -1 $-1 $138 -1.015426611885742236 $86 0 $46 $139 forward @7 tangent #
coedge $-1 -1 $-1 $48 $47 $140 $141 reversed $18 $-1 #
coedge $-1 -1 $-1 $142 $143 $47 $82 reversed $144 $-1 #
edge $-1 -1 $-1 $87 -8.746849937788149529e-16 $145 1.015426611885742236 $81 $146 forward @7 tangent #
coedge $-1 -1 $-1 $147 $49 $78 $137 forward $85 $-1 #
coedge $-1 -1 $-1 $49 $148 $149 $150 reversed $85 $-1 #
loop $-1 -1 $-1 $-1 $147 $151 #
vertex $-1 -1 $-1 $50 $152 #
vertex $-1 -1 $-1 $50 $153 #
ellipse-curve $-1 -1 $-1 40.59252791465078758 229.8480775301220547 763 0.9848077530122089085 0.1736481776669255017 -7.401486830834376525e-17 1.227878039689691114 -6.963642403200184461 7.07106781186548794 1 I I #
coedge $-1 -1 $-1 $54 $51 $154 $155 reversed $13 $-1 #
coedge $-1 -1 $-1 $156 $157 $51 $91 forward $158 $-1 #
edge $-1 -1 $-1 $159 -0.7853981633974600474 $95 0.7853981633974390641 $51 $160 forward @7 unknown #
coedge $-1 -1 $-1 $52 $161 $156 $162 reversed $93 $-1 #
loop $-1 -1 $-1 $-1 $92 $163 #
DXID-attrib $-1 -1 $-1 $-1 $53 @10 ASM ENTITY @36 1472e12e-38df-428c-a70b-127fad37a4f4 #
vertex $-1 -1 $-1 $53 $164 #
straight-curve $-1 -1 $-1 32.32900969132005287 218.2367301929153882 247.0000000000000284 -1.736481776669255073 9.848077530122088419 0 I I #
coedge $-1 -1 $-1 $165 $113 $54 $98 forward $166 $-1 #
edge $-1 -1 $-1 $100 -0.7853981633974371768 $167 0.7853981633974554954 $54 $168 forward @7 unknown #
DXID-attrib $-1 -1 $-1 $-1 $55 @10 ASM ENTITY @36 1f926d8d-fe50-4222-98ba-e2dd1d619752 #
vertex $-1 -1 $-1 $98 $169 #
straight-curve $-1 -1 $-1 42.32900969132003866 220 247.0000000000000284 -1.736481776669255073 9.848077530122088419 0 I I #
point $-1 -1 $-1 30.5925279146508089 228.0848077230374429 247.0000000000000284 #
coedge $-1 -1 $-1 $131 $58 $170 $171 forward $93 $-1 #
ellipse-curve $-1 -1 $-1 30.5925279146508089 228.0848077230374429 237.0000000000000284 -0.9848077530122089085 -0.1736481776669255017 6.731872517336356154e-18 1.227878039689691114 -6.963642403200184461 7.07106781186548794 1 I I #
coedge $-1 -1 $-1 $61 $60 $172 $173 forward $62 $-1 #
coedge $-1 -1 $-1 $67 $174 $60 $107 forward $118 $-1 #
edge $175 -1 $-1 $176 0 $40 23.70000000000000284 $106 $120 forward @7 unknown #
coedge $-1 -1 $-1 $177 $170 $61 $109 reversed $178 $-1 #
edge $179 -1 $-1 $180 0 $63 23.70000000000000284 $61 $181 forward @7 unknown #
face $182 -1 $-1 $183 $62 $5 $-1 $184 forward single #
point $-1 -1 $-1 32.32900969132005287 218.2367301929153882 237.0000000000000284 #
coedge $-1 -1 $-1 $66 $65 $185 $186 reversed $38 $-1 #
coedge $-1 -1 $-1 $97 $187 $65 $114 forward $166 $-1 #
edge $-1 -1 $-1 $188 -0.75 $100 2.25 $65 $189 forward @7 tangent #
coedge $-1 -1 $-1 $130 $129 $66 $116 reversed $44 $-1 #
edge $-1 -1 $-1 $190 -0.7853981633974501664 $119 0.7853981633974466137 $115 $191 reversed @7 unknown #
coedge $-1 -1 $-1 $149 $67 $142 $192 forward $118 $-1 #
loop $-1 -1 $-1 $-1 $174 $193 #
vertex $-1 -1 $-1 $194 $195 #
straight-curve $-1 -1 $-1 42.32900969132004576 220 0 0 0 10 I I #
DXID-attrib $-1 -1 $-1 $-1 $69 @10 ASM ENTITY @36 a44b02e8-b4c2-4c0b-80cd-e2e61dd54635 #
face $196 -1 $-1 $151 $197 $5 $-1 $198 forward single #
plane-surface $-1 -1 $-1 42.32900969132003866 220 277 0.9848077530122089085 0.1736481776669255017 -7.401486830834376525e-17 -7.289041614823457777e-16 -1.285254700200137385e-16 -10 forward_v I I I I #
DXID-attrib $-1 -1 $-1 $-1 $73 @10 ASM ENTITY @36 07666d7b-bb4d-468a-9d69-21389586988d #
face $199 -1 $-1 $200 $201 $5 $-1 $202 forward single #
loop $-1 -1 $-1 $-1 $203 $73 #
cone-surface $-1 -1 $-1 35.59252791465080179 228.966442626579834 813 -0.9848077530122089085 -0.1736481776669255295 0 1.227878039689699108 -6.963642403200207553 -7.071067811865461294 1 I I 0 -1 9.999999999999998224 forward I I I I #
coedge $-1 -1 $-1 $185 $204 $130 $205 reversed $74 $-1 #
coedge $-1 -1 $-1 $115 $76 $206 $194 forward $44 $-1 #
coedge $-1 -1 $-1 $76 $115 $128 $205 forward $44 $-1 #
coedge $-1 -1 $-1 $161 $103 $76 $132 reversed $93 $-1 #
edge $-1 -1 $-1 $207 -0.7853981633974501664 $208 0.7853981633974465026 $76 $209 forward @7 unknown #
coedge $-1 -1 $-1 $210 $77 $211 $212 reversed $27 $-1 #
coedge $-1 -1 $-1 $140 $213 $77 $135 reversed $197 $-1 #
edge $214 -1 $-1 $138 0.9999999999999964473 $215 21.70000000000000639 $77 $216 forward @7 unknown #
coedge $-1 -1 $-1 $78 $210 $217 $218 reversed $27 $-1 #
edge $219 -1 $-1 $86 0.9999999999999964473 $220 21.70000000000000639 $83 $221 forward @7 unknown #
vertex $-1 -1 $-1 $141 $222 #
straight-curve $-1 -1 $-1 40.59252791465078758 229.8480775301220547 773 9.848077530122088419 1.736481776669255295 0 F -5.786993384617517222 F 3.293297269209389366 #
coedge $-1 -1 $-1 $223 $134 $80 $141 forward $197 $-1 #
edge $-1 -1 $-1 $138 -0.7853981633974466137 $145 0.7853981633974500554 $80 $224 reversed @7 unknown #
coedge $-1 -1 $-1 $206 $81 $117 $192 reversed $144 $-1 #
coedge $-1 -1 $-1 $81 $206 $225 $226 forward $144 $-1 #
loop $-1 -1 $-1 $-1 $81 $183 #
vertex $-1 -1 $-1 $82 $227 #
straight-curve $-1 -1 $-1 42.32900969132003866 220 763 -9.848077530122088419 -1.736481776669255295 -0 F -3.293297269209389366 F 5.786993384617517222 #
coedge $-1 -1 $-1 $228 $83 $229 $230 reversed $85 $-1 #
coedge $-1 -1 $-1 $84 $228 $231 $232 forward $85 $-1 #
coedge $-1 -1 $-1 $233 $117 $84 $150 forward $118 $-1 #
edge $-1 -1 $-1 $87 76.29999999999999716 $234 81.29999999999999716 $149 $120 forward @7 unknown #
face $235 -1 $-1 $236 $85 $5 $-1 $237 forward single #
point $-1 -1 $-1 40.59252791465078758 229.8480775301220547 773 #
point $-1 -1 $-1 42.32900969132004576 220 763 #
coedge $-1 -1 $-1 $238 $239 $89 $155 forward $240 $-1 #
edge $241 -1 $-1 $167 0.2999999999999999334 $159 0.7154266118857416368 $89 $242 forward @7 unknown #
coedge $-1 -1 $-1 $243 $90 $92 $162 forward $158 $-1 #
coedge $-1 -1 $-1 $90 $243 $238 $244 forward $158 $-1 #
loop $-1 -1 $-1 $-1 $243 $200 #
vertex $-1 -1 $-1 $91 $245 #
ellipse-curve $-1 -1 $-1 -2.398221603366161414 432.4609571295655996 247.0000000000000284 0 0 1 -2.457456132866989051 1.720729309053119938 0 1 I I #
coedge $-1 -1 $-1 $92 $131 $204 $246 forward $93 $-1 #
edge $-1 -1 $-1 $95 -0.75 $247 2.25 $92 $248 forward @7 tangent #
face $249 -1 $-1 $69 $93 $5 $-1 $250 forward single #
point $-1 -1 $-1 -5.352644862402788917 431.9400125965648272 247.0000000000000284 #
coedge $-1 -1 $-1 $187 $97 $239 $251 forward $166 $-1 #
loop $-1 -1 $-1 $-1 $97 $252 #
vertex $-1 -1 $-1 $155 $253 #
ellipse-curve $-1 -1 $-1 1.6929318785605596 433.1823378706486096 247.0000000000000284 0 0 1 1.720729309053170786 2.45745613286695308 0 1 I I #
point $-1 -1 $-1 4.64735513759719332 433.7032824036493821 247.0000000000000284 #
coedge $-1 -1 $-1 $108 $225 $103 $171 reversed $178 $-1 #
edge $-1 -1 $-1 $63 23.70000000000000284 $208 28.70000000000000284 $170 $181 forward @7 unknown #
coedge $-1 -1 $-1 $254 $255 $105 $173 reversed $256 $-1 #
edge $257 -1 $-1 $176 0 $180 1.015426611885743124 $105 $258 forward @7 unknown #
coedge $-1 -1 $-1 $106 $259 $254 $260 forward $118 $-1 #
DXID-attrib $-1 -1 $-1 $-1 $107 @10 ASM ENTITY @36 ef37a945-970f-47db-8367-b6fb6e3665b8 #
vertex $-1 -1 $-1 $107 $261 #
coedge $-1 -1 $-1 $262 $108 $255 $263 forward $178 $-1 #
loop $-1 -1 $-1 $-1 $177 $264 #
DXID-attrib $-1 -1 $-1 $-1 $109 @10 ASM ENTITY @36 9059e44e-4c1b-4b28-876d-b8803675c324 #
vertex $-1 -1 $-1 $173 $265 #
straight-curve $-1 -1 $-1 32.32900969132005287 218.2367301929153882 0 0 0 10 I I #
DXID-attrib $-1 -1 $-1 $-1 $110 @10 ASM ENTITY @36 88f25403-5010-499b-9654-512281295605 #
face $266 -1 $-1 $267 $144 $5 $-1 $184 forward single #
plane-surface $-1 -1 $-1 42.32900969132004576 220 0 -0.1736481776669255295 0.9848077530122089085 0 -9.848077530122088419 -1.736481776669255295 0 forward_v I I I I #
coedge $-1 -1 $-1 $268 $128 $112 $186 forward $74 $-1 #
edge $269 -1 $-1 $190 1.000000000000003775 $188 21.70000000000000639 $185 $270 forward @7 unknown #
coedge $-1 -1 $-1 $113 $165 $268 $271 forward $166 $-1 #
vertex $-1 -1 $-1 $186 $272 #
straight-curve $-1 -1 $-1 4.647355137597198649 433.7032824036493821 269.5 -7.289041614823457777e-16 -1.285254700200137139e-16 -10 F -1.680001000000000744 F 3.180001000000000744 #
vertex $-1 -1 $-1 $116 $273 #
ellipse-curve $-1 -1 $-1 40.59252791465077337 229.8480775301221115 287 0.9848077530122089085 0.1736481776669255017 -7.401486830834376525e-17 1.227878039689692891 -6.963642403200208442 -7.071067811865462183 1 I I #
edge $274 -1 $-1 $119 28.70000000000000284 $87 76.29999999999999716 $117 $120 forward @7 unknown #
face $275 -1 $-1 $276 $118 $5 $-1 $277 forward single #
edge $-1 -1 $-1 $208 -0.5077133059428720063 $119 0.5077133059428711181 $206 $278 forward @7 tangent #
point $-1 -1 $-1 42.32900969132004576 220 287 #
DXID-attrib $-1 -1 $-1 $-1 $122 @10 ASM ENTITY @36 a42e1143-a847-4ce2-bb6d-4790c1357619 #
loop $-1 -1 $-1 $-1 $213 $122 #
plane-surface $-1 -1 $-1 32.32900969132005997 218.2367301929153882 773 -0.9848077530122089085 -0.1736481776669255017 1.836970198721029441e-16 1.809062493752847788e-15 3.189865274363567893e-16 10 forward_v I I I I #
DXID-attrib $-1 -1 $-1 $-1 $125 @10 ASM ENTITY @36 ae6497b3-64bd-46d3-9ff4-0916c1f8f90b #
face $279 -1 $-1 $280 $158 $5 $-1 $281 forward single #
loop $-1 -1 $-1 $-1 $282 $125 #
plane-surface $-1 -1 $-1 32.32900969132006708 218.2367301929153882 803 0 0 1 9.848077530122088419 1.736481776669255295 0 forward_v I I I I #
coedge $-1 -1 $-1 $283 $284 $285 $286 forward $126 $-1 #
coedge $-1 -1 $-1 $128 $287 $161 $246 reversed $74 $-1 #
edge $-1 -1 $-1 $190 -0.5077133059428698969 $207 0.5077133059428720063 $128 $288 forward @7 tangent #
coedge $-1 -1 $-1 $143 $142 $129 $194 reversed $144 $-1 #
vertex $-1 -1 $-1 $132 $289 #
vertex $-1 -1 $-1 $132 $290 #
ellipse-curve $-1 -1 $-1 30.59252791465079468 228.0848077230375281 287 -0.9848077530122089085 -0.1736481776669255017 6.731872517336356154e-18 1.227878039689692891 -6.963642403200208442 -7.071067811865462183 1 I I #
coedge $-1 -1 $-1 $136 $133 $291 $292 reversed $27 $-1 #
coedge $-1 -1 $-1 $293 $294 $133 $212 forward $295 $-1 #
edge $-1 -1 $-1 $296 -0.7853981633974597143 $215 0.7853981633974388421 $133 $297 forward @7 unknown #
coedge $-1 -1 $-1 $134 $298 $293 $299 reversed $197 $-1 #
DXID-attrib $-1 -1 $-1 $-1 $135 @10 ASM ENTITY @36 176825c9-9b5c-454f-84c0-7d18ee03b5d6 #
vertex $-1 -1 $-1 $135 $300 #
straight-curve $-1 -1 $-1 32.32900969132005287 218.2367301929153882 773 -1.736481776669255073 9.848077530122088419 0 I I #
coedge $-1 -1 $-1 $301 $229 $136 $218 forward $302 $-1 #
edge $-1 -1 $-1 $220 -0.7853981633974387311 $303 0.7853981633974538301 $136 $304 forward @7 unknown #
DXID-attrib $-1 -1 $-1 $-1 $137 @10 ASM ENTITY @36 a2d6fd9a-a8d9-4bc6-9a62-27736ccfa203 #
vertex $-1 -1 $-1 $218 $305 #
straight-curve $-1 -1 $-1 42.32900969132003866 220 773 -1.736481776669255073 9.848077530122088419 0 I I #
point $-1 -1 $-1 30.5925279146508089 228.0848077230374429 773 #
coedge $-1 -1 $-1 $285 $140 $306 $307 forward $197 $-1 #
ellipse-curve $-1 -1 $-1 30.59252791465081245 228.0848077230374429 763 -0.9848077530122089085 -0.1736481776669255017 1.836970198721029441e-16 1.227878039689691114 -6.963642403200184461 7.07106781186548794 1 I I #
coedge $-1 -1 $-1 $170 $306 $143 $226 reversed $178 $-1 #
edge $308 -1 $-1 $208 28.70000000000000284 $145 76.29999999999999716 $143 $181 forward @7 unknown #
point $-1 -1 $-1 32.32900969132005287 218.2367301929153882 763 #
coedge $-1 -1 $-1 $148 $147 $309 $310 reversed $85 $-1 #
coedge $-1 -1 $-1 $217 $311 $147 $230 forward $302 $-1 #
edge $-1 -1 $-1 $312 -0.75 $220 2.25 $147 $313 forward @7 tangent #
coedge $-1 -1 $-1 $284 $283 $148 $232 reversed $126 $-1 #
edge $-1 -1 $-1 $314 -0.7853981633974500554 $234 0.7853981633974465026 $231 $315 reversed @7 unknown #
coedge $-1 -1 $-1 $316 $149 $317 $318 forward $118 $-1 #
vertex $-1 -1 $-1 $319 $320 #
DXID-attrib $-1 -1 $-1 $-1 $151 @10 ASM ENTITY @36 0fd0ac22-c43c-475a-a793-65506ac68b7f #
face $321 -1 $-1 $110 $322 $5 $-1 $184 forward single #
plane-surface $-1 -1 $-1 42.32900969132003866 220 803 0.9848077530122089085 0.1736481776669255017 -7.401486830834376525e-17 -7.289041614823457777e-16 -1.285254700200137385e-16 -10 forward_v I I I I #
coedge $-1 -1 $-1 $323 $154 $157 $244 reversed $240 $-1 #
coedge $-1 -1 $-1 $154 $323 $165 $251 reversed $240 $-1 #
loop $-1 -1 $-1 $-1 $238 $280 #
DXID-attrib $-1 -1 $-1 $-1 $155 @10 ASM ENTITY @36 b60ffc44-4260-4d6d-8d83-b0973eaab4e9 #
straight-curve $-1 -1 $-1 4.126410604596419951 436.6577056626859985 247.0000000000000284 -9.848077530122088419 -1.736481776669255517 -0 I I #
coedge $-1 -1 $-1 $157 $156 $287 $324 forward $158 $-1 #
edge $-1 -1 $-1 $325 -2.25 $159 0.75 $238 $326 forward @7 tangent #
point $-1 -1 $-1 -2.919166136366930786 435.4153803886021592 247.0000000000000284 #
edge $327 -1 $-1 $207 1.000000000000003553 $247 21.70000000000000639 $204 $328 forward @7 unknown #
vertex $-1 -1 $-1 $324 $329 #
straight-curve $-1 -1 $-1 -5.352644862402796022 431.9400125965648272 254.5000000000000284 6.629600247362659753e-17 1.168977394921516522e-17 10 F -1.680001000000000744 F 3.180001000000000744 #
DXID-attrib $-1 -1 $-1 $-1 $163 @10 ASM ENTITY @36 3028682c-b4b8-4805-844c-1e0067455442 #
plane-surface $-1 -1 $-1 32.32900969132005287 218.2367301929153882 247.0000000000000284 -0.9848077530122089085 -0.1736481776669255017 6.731872517336356154e-18 6.629600247362659753e-17 1.168977394921516676e-17 10 forward_v I I I I #
edge $-1 -1 $-1 $167 -2.25 $330 0.75 $239 $331 forward @7 tangent #
face $332 -1 $-1 $333 $166 $5 $-1 $334 forward single #
point $-1 -1 $-1 1.171987345559795557 436.1367611296851692 247.0000000000000284 #
coedge $-1 -1 $-1 $335 $172 $174 $260 reversed $256 $-1 #
coedge $-1 -1 $-1 $172 $336 $177 $263 reversed $256 $-1 #
loop $-1 -1 $-1 $-1 $337 $338 #
DXID-attrib $-1 -1 $-1 $-1 $173 @10 ASM ENTITY @36 856ae1f8-e203-421b-af12-29946ce6401b #
straight-curve $-1 -1 $-1 42.32900969132004576 220 0 -9.848077530122088419 -1.736481776669255295 0 F 0 F 1.015426611885743124 #
coedge $-1 -1 $-1 $174 $316 $339 $340 reversed $118 $-1 #
edge $341 -1 $-1 $342 0 $176 21.83911205362507602 $174 $343 forward @7 unknown #
point $-1 -1 $-1 42.32900969132004576 220 0 #
coedge $-1 -1 $-1 $344 $177 $345 $346 forward $178 $-1 #
edge $347 -1 $-1 $180 0 $348 22.06183022165586749 $177 $349 forward @7 unknown #
face $350 -1 $-1 $193 $178 $5 $-1 $351 forward single #
point $-1 -1 $-1 32.32900969132005287 218.2367301929153882 0 #
DXID-attrib $-1 -1 $-1 $-1 $183 @10 ASM ENTITY @36 17404be1-87f3-4242-8ad4-9ee482c06215 #
face $352 -1 $-1 $264 $353 $5 $-1 $354 forward single #
coedge $-1 -1 $-1 $355 $185 $187 $271 reversed $74 $-1 #
DXID-attrib $-1 -1 $-1 $-1 $186 @10 ASM ENTITY @36 2665b34d-8477-4fa8-9215-b4c5fb437fbf #
straight-curve $-1 -1 $-1 42.32900969132003866 220 277 -1.736481776669255073 9.848077530122088419 0 I I #
edge $-1 -1 $-1 $330 -0.7853981633974560506 $188 0.7853981633974370657 $268 $356 forward @7 unknown #
point $-1 -1 $-1 4.64735513759719332 433.7032824036493821 277 #
point $-1 -1 $-1 40.59252791465077337 229.8480775301221115 277 #
DXID-attrib $-1 -1 $-1 $-1 $192 @10 ASM ENTITY @36 3fd98aee-f6d2-44ab-b5f6-8696f74a4025 #
DXID-attrib $-1 -1 $-1 $-1 $193 @10 ASM ENTITY @36 c909ded9-df0e-439c-abcb-75826741a227 #
face $357 -1 $-1 $358 $359 $5 $-1 $360 forward single #
plane-surface $-1 -1 $-1 84 5.621339458020870872 0 0.9816271834476639757 0.1908089953765450264 0 -1.90808995376545032 9.816271834476639313 0 forward_v I I I I #
straight-curve $-1 -1 $-1 37.32900969132005287 219.1183650964576941 287 9.848077530122088419 1.736481776669255295 0 F -5.279280078674646326 F 3.801010575152261151 #
DXID-attrib $-1 -1 $-1 $-1 $200 @10 ASM ENTITY @36 d78055f5-d272-44dd-ace7-3d2c2f91fd52 #
face $361 -1 $-1 $252 $240 $5 $-1 $362 forward single #
cone-surface $-1 -1 $-1 -2.398221603366161414 432.4609571295655996 254.5000000000000284 6.629600247362659291e-18 1.16897739492151656e-18 1 -2.457456132866989051 1.720729309053119938 0 1 I I 0 1 3.000000000000000444 forward I I I I #
coedge $-1 -1 $-1 $309 $363 $284 $364 reversed $201 $-1 #
coedge $-1 -1 $-1 $231 $203 $365 $319 forward $126 $-1 #
coedge $-1 -1 $-1 $203 $231 $282 $364 forward $126 $-1 #
coedge $-1 -1 $-1 $298 $223 $203 $286 reversed $197 $-1 #
edge $-1 -1 $-1 $366 -0.7853981633974501664 $367 0.7853981633974463916 $203 $368 forward @7 unknown #
coedge $-1 -1 $-1 $204 $355 $243 $324 reversed $74 $-1 #
straight-curve $-1 -1 $-1 35.59252791465079468 228.966442626579834 277 -9.848077530122088419 -1.736481776669255295 0 F -3.801010575152261151 F 5.279280078674646326 #
point $-1 -1 $-1 30.59252791465079468 228.0848077230375281 277 #
point $-1 -1 $-1 32.32900969132005287 218.2367301929153882 287 #
coedge $-1 -1 $-1 $369 $370 $210 $292 forward $371 $-1 #
edge $372 -1 $-1 $303 0.2999999999999989342 $296 0.7154266118857404155 $210 $373 forward @7 unknown #
coedge $-1 -1 $-1 $374 $211 $213 $299 forward $295 $-1 #
coedge $-1 -1 $-1 $211 $374 $369 $375 forward $295 $-1 #
loop $-1 -1 $-1 $-1 $374 $333 #
vertex $-1 -1 $-1 $212 $376 #
ellipse-curve $-1 -1 $-1 -2.398221603366156973 432.4609571295655996 773 0 0 1 -2.457456132866989051 1.720729309053119938 0 1 I I #
coedge $-1 -1 $-1 $213 $285 $363 $377 forward $197 $-1 #
edge $-1 -1 $-1 $215 -0.75 $378 2.25 $213 $379 forward @7 tangent #
point $-1 -1 $-1 -5.352644862402788917 431.9400125965648272 773 #
coedge $-1 -1 $-1 $311 $217 $370 $380 forward $302 $-1 #
loop $-1 -1 $-1 $-1 $217 $381 #
vertex $-1 -1 $-1 $292 $382 #
ellipse-curve $-1 -1 $-1 1.69293187856056182 433.1823378706486096 773 0 0 1 1.720729309053166567 2.457456132866956189 0 1 I I #
point $-1 -1 $-1 4.64735513759719332 433.7032824036493821 773 #
coedge $-1 -1 $-1 $225 $383 $223 $307 reversed $178 $-1 #
edge $-1 -1 $-1 $145 76.29999999999999716 $367 81.29999999999999716 $306 $181 forward @7 unknown #
DXID-attrib $-1 -1 $-1 $-1 $226 @10 ASM ENTITY @36 a7390698-f424-4e92-9d6c-612e9a3c29b9 #
coedge $-1 -1 $-1 $384 $282 $228 $310 forward $201 $-1 #
edge $385 -1 $-1 $314 1.000000000000003775 $312 21.70000000000000639 $309 $386 forward @7 unknown #
coedge $-1 -1 $-1 $229 $301 $384 $387 forward $302 $-1 #
vertex $-1 -1 $-1 $310 $388 #
straight-curve $-1 -1 $-1 4.647355137597192432 433.7032824036493821 795.5 -7.289041614823457777e-16 -1.285254700200137139e-16 -10 F -1.680000999999990086 F 3.180000999999990086 #
vertex $-1 -1 $-1 $232 $389 #
ellipse-curve $-1 -1 $-1 40.59252791465077337 229.8480775301221115 813 0.9848077530122089085 0.1736481776669255017 -7.401486830834376525e-17 1.227878039689699108 -6.963642403200207553 -7.071067811865461294 1 I I #
coedge $-1 -1 $-1 $259 $233 $390 $391 reversed $118 $-1 #
coedge $-1 -1 $-1 $365 $392 $233 $318 reversed $322 $-1 #
edge $393 -1 $-1 $234 81.29999999999999716 $394 105 $233 $120 forward @7 unknown #
edge $-1 -1 $-1 $367 -0.5077133059428724504 $234 0.5077133059428706741 $365 $395 forward @7 tangent #
point $-1 -1 $-1 42.32900969132004576 220 813 #
DXID-attrib $-1 -1 $-1 $-1 $236 @10 ASM ENTITY @36 c8f2de74-dcf1-4596-b704-c17ea74789d1 #
loop $-1 -1 $-1 $-1 $365 $236 #
coedge $-1 -1 $-1 $239 $238 $355 $396 forward $240 $-1 #
edge $-1 -1 $-1 $247 -0.7853981633974390641 $325 0.7853981633974596033 $287 $397 forward @7 unknown #
vertex $-1 -1 $-1 $396 $398 #
straight-curve $-1 -1 $-1 -2.919166136366933451 435.4153803886021592 254.5000000000000284 -6.629600247362659753e-17 -1.168977394921516522e-17 -10 F -3.180001000000000744 F 1.680001000000000744 #
DXID-attrib $-1 -1 $-1 $-1 $246 @10 ASM ENTITY @36 12a0fd99-94ae-49e1-82b2-f51478ef25d7 #
straight-curve $-1 -1 $-1 32.32900969132005287 218.2367301929153882 277 -1.736481776669255073 9.848077530122088419 0 I I #
point $-1 -1 $-1 -5.352644862402788917 431.9400125965648272 277 #
vertex $-1 -1 $-1 $271 $399 #
straight-curve $-1 -1 $-1 1.171987345559786453 436.1367611296852829 269.5 7.289041614823457777e-16 1.285254700200137139e-16 10 F -3.180001000000000744 F 1.680001000000000744 #
DXID-attrib $-1 -1 $-1 $-1 $252 @10 ASM ENTITY @36 b6f9e75d-08c9-4a8c-bf62-2f1864256e96 #
face $400 -1 $-1 $401 $295 $5 $-1 $402 forward single #
cone-surface $-1 -1 $-1 1.692931878560561376 433.1823378706486096 269.5 -7.28904161482345753e-17 -1.285254700200137262e-17 -1 1.720729309053170786 2.45745613286695308 0 1 I I 0 1 3.000000000000000444 forward I I I I #
coedge $-1 -1 $-1 $403 $254 $404 $405 reversed $256 $-1 #
coedge $-1 -1 $-1 $255 $337 $406 $407 reversed $256 $-1 #
coedge $-1 -1 $-1 $336 $408 $409 $410 reversed $256 $-1 #
face $411 -1 $-1 $-1 $256 $5 $-1 $412 reversed single #
coedge $-1 -1 $-1 $413 $404 $259 $340 forward $359 $-1 #
edge $414 -1 $-1 $342 0 $415 105 $339 $416 forward @7 unknown #
DXID-attrib $-1 -1 $-1 $-1 $260 @10 ASM ENTITY @36 f1d61430-6379-48ab-a335-896dd5bb7123 #
vertex $-1 -1 $-1 $260 $417 #
straight-curve $-1 -1 $-1 84 5.621339458020870872 0 -1.90808995376545032 9.816271834476639313 0 F 0 F 21.83911205362507602 #
coedge $-1 -1 $-1 $383 $262 $418 $419 reversed $178 $-1 #
coedge $-1 -1 $-1 $406 $420 $262 $346 reversed $353 $-1 #
edge $421 -1 $-1 $348 0 $422 105 $262 $423 forward @7 unknown #
DXID-attrib $-1 -1 $-1 $-1 $263 @10 ASM ENTITY @36 1722fa15-6911-4172-b1fc-068878d37210 #
vertex $-1 -1 $-1 $407 $424 #
straight-curve $-1 -1 $-1 32.32900969132005287 218.2367301929153882 0 -1.465382036146118949 -9.892050115529150034 0 F 0 F 22.06183022165586749 #
DXID-attrib $-1 -1 $-1 $-1 $264 @10 ASM ENTITY @36 fec7837a-03da-4e60-aa05-04cd3dfbe7b4 #
plane-surface $-1 -1 $-1 32.32900969132005287 218.2367301929153882 0 -0.989205011552914959 0.1465382036146118949 0 -1.465382036146118949 -9.892050115529150034 0 forward_v I I I I #
DXID-attrib $-1 -1 $-1 $-1 $267 @10 ASM ENTITY @36 a34b3691-657b-4799-b3fa-8082fde1a7a7 #
loop $-1 -1 $-1 $-1 $406 $267 #
plane-surface $-1 -1 $-1 0 0 0 0 -1 0 10 0 0 forward_v I I I I #
coedge $-1 -1 $-1 $287 $268 $323 $396 reversed $74 $-1 #
ellipse-curve $-1 -1 $-1 1.69293187856056182 433.1823378706486096 277 -0 -0 -1 1.720729309053170786 2.45745613286695308 0 1 I I #
DXID-attrib $-1 -1 $-1 $-1 $276 @10 ASM ENTITY @36 6c3876f9-43c4-44b3-9d4b-3fccf3662778 #
face $425 -1 $-1 $426 $427 $5 $-1 $428 forward single #
loop $-1 -1 $-1 $-1 $404 $276 #
plane-surface $-1 -1 $-1 129.0000000000000284 21.99999999999999289 0 -0.342020143325668935 0.9396926207859083169 0 -9.396926207859083391 -3.420201433256689239 0 forward_v I I I I #
DXID-attrib $-1 -1 $-1 $-1 $280 @10 ASM ENTITY @36 7ae6283e-67bc-48db-a710-7ad4b4ac25eb #
plane-surface $-1 -1 $-1 -0.8735893954035711673 435.7760707591437495 262 -0.1736481776669255017 0.9848077530122089085 0 0 0 10 forward_v I I I I #
coedge $-1 -1 $-1 $282 $429 $298 $377 reversed $201 $-1 #
edge $-1 -1 $-1 $314 -0.50771330594287023 $366 0.5077133059428715622 $282 $430 forward @7 tangent #
coedge $-1 -1 $-1 $431 $317 $283 $319 reversed $322 $-1 #
vertex $-1 -1 $-1 $286 $432 #
vertex $-1 -1 $-1 $286 $433 #
ellipse-curve $-1 -1 $-1 30.59252791465080179 228.0848077230375281 813 -0.9848077530122089085 -0.1736481776669255017 1.836970198721029441e-16 1.227878039689699108 -6.963642403200207553 -7.071067811865461294 1 I I #
coedge $-1 -1 $-1 $434 $291 $294 $375 reversed $371 $-1 #
coedge $-1 -1 $-1 $291 $434 $301 $380 reversed $371 $-1 #
loop $-1 -1 $-1 $-1 $369 $401 #
DXID-attrib $-1 -1 $-1 $-1 $292 @10 ASM ENTITY @36 7613ccf3-cde3-4d49-879e-cfdc82d59256 #
straight-curve $-1 -1 $-1 4.126410604596411069 436.6577056626859985 773 -9.848077530122088419 -1.736481776669255517 -0 I I #
coedge $-1 -1 $-1 $294 $293 $429 $435 forward $295 $-1 #
edge $-1 -1 $-1 $436 -2.25 $296 0.75 $369 $437 forward @7 tangent #
point $-1 -1 $-1 -2.919166136366927233 435.4153803886021592 773 #
edge $438 -1 $-1 $366 1.000000000000003553 $378 21.70000000000000639 $363 $439 forward @7 unknown #
vertex $-1 -1 $-1 $435 $440 #
straight-curve $-1 -1 $-1 -5.352644862402788917 431.9400125965648272 780.5 1.809062493752847788e-15 3.189865274363567893e-16 10 F -1.680000999999990086 F 3.180000999999990086 #
edge $-1 -1 $-1 $303 -2.25 $441 0.75 $370 $442 forward @7 tangent #
face $443 -1 $-1 $163 $302 $5 $-1 $444 forward single #
point $-1 -1 $-1 1.171987345559797333 436.1367611296851692 773 #
coedge $-1 -1 $-1 $306 $344 $431 $445 reversed $178 $-1 #
coedge $-1 -1 $-1 $446 $309 $311 $387 reversed $201 $-1 #
DXID-attrib $-1 -1 $-1 $-1 $310 @10 ASM ENTITY @36 f9e327a5-e399-49fc-9687-769cfadf39d9 #
straight-curve $-1 -1 $-1 42.32900969132004576 220 803 -1.736481776669255073 9.848077530122088419 0 I I #
edge $-1 -1 $-1 $441 -0.7853981633974542742 $312 0.7853981633974391752 $384 $447 forward @7 unknown #
point $-1 -1 $-1 4.647355137597202202 433.7032824036493821 803 #
point $-1 -1 $-1 40.59252791465078047 229.8480775301221115 803 #
coedge $-1 -1 $-1 $448 $449 $316 $391 forward $450 $-1 #
edge $451 -1 $-1 $415 0 $394 21.83911205362507602 $316 $452 forward @7 unknown #
coedge $-1 -1 $-1 $317 $431 $448 $453 reversed $322 $-1 #
DXID-attrib $-1 -1 $-1 $-1 $318 @10 ASM ENTITY @36 617a754b-f0a2-4de4-92cc-9db4424dc3e9 #
vertex $-1 -1 $-1 $453 $454 #
straight-curve $-1 -1 $-1 37.32900969132005997 219.1183650964576941 813 9.848077530122088419 1.736481776669255295 0 F -5.279280078674645438 F 3.801010575152262483 #
edge $455 -1 $-1 $325 0.3000000000000009881 $330 0.715426611885742858 $355 $456 forward @7 unknown #
ellipse-curve $-1 -1 $-1 -2.398221603366161414 432.4609571295655996 277 -0 -0 -1 -2.457456132866989051 1.720729309053119938 0 1 I I #
point $-1 -1 $-1 -2.919166136366931674 435.4153803886021592 277 #
point $-1 -1 $-1 1.171987345559796223 436.1367611296851692 277 #
DXID-attrib $-1 -1 $-1 $-1 $333 @10 ASM ENTITY @36 3f012b7c-4a1f-462b-bb1d-b38d3ecd2bea #
face $457 -1 $-1 $381 $371 $5 $-1 $458 forward single #
cone-surface $-1 -1 $-1 -2.398221603366155641 432.4609571295655996 780.5 1.809062493752847788e-16 3.189865274363567893e-17 1 -2.457456132866989051 1.720729309053119938 0 1 I I 0 1 3.000000000000000444 forward I I I I #
coedge $-1 -1 $-1 $408 $335 $459 $460 reversed $256 $-1 #
coedge $-1 -1 $-1 $339 $461 $335 $405 forward $359 $-1 #
edge $462 -1 $-1 $463 0 $342 4.788799976141606685 $404 $464 forward @7 unknown #
coedge $-1 -1 $-1 $465 $345 $336 $407 forward $353 $-1 #
edge $466 -1 $-1 $348 0 $467 13.20000000000000107 $406 $468 forward @7 unknown #
coedge $-1 -1 $-1 $337 $403 $469 $470 reversed $256 $-1 #
coedge $-1 -1 $-1 $471 $472 $337 $410 forward $473 $-1 #
edge $474 -1 $-1 $467 0 $475 3 $409 $476 forward @7 unknown #
DXID-attrib $-1 -1 $-1 $-1 $338 @10 ASM ENTITY @36 72c04302-d79a-4bee-bce3-124b631783cc #
plane-surface $-1 -1 $-1 66 110 0 0 0 1 10 0 0 forward_v I I I I #
coedge $-1 -1 $-1 $461 $339 $449 $477 reversed $359 $-1 #
DXID-attrib $-1 -1 $-1 $-1 $340 @10 ASM ENTITY @36 a9b4a1e5-f19a-4c84-9966-e014d521cb20 #
vertex $-1 -1 $-1 $391 $478 #
straight-curve $-1 -1 $-1 84 5.621339458020870872 0 0 0 10 I I #
point $-1 -1 $-1 84 5.621339458020870872 0 #
coedge $-1 -1 $-1 $479 $448 $344 $419 forward $450 $-1 #
edge $480 -1 $-1 $481 0 $422 22.06183022165586749 $344 $482 forward @7 unknown #
coedge $-1 -1 $-1 $345 $465 $479 $483 reversed $353 $-1 #
DXID-attrib $-1 -1 $-1 $-1 $346 @10 ASM ENTITY @36 8b09dedf-274d-4e6a-b4f6-0af74d929ac1 #
vertex $-1 -1 $-1 $483 $484 #
straight-curve $-1 -1 $-1 0 0 0 0 0 10 I I #
point $-1 -1 $-1 0 0 0 #
DXID-attrib $-1 -1 $-1 $-1 $358 @10 ASM ENTITY @36 24f485b6-e55f-46f2-a42c-82adccd067cd #
face $485 -1 $-1 $486 $487 $5 $-1 $488 forward single #
loop $-1 -1 $-1 $-1 $459 $358 #
plane-surface $-1 -1 $-1 129 29.99999999999999645 0 -1 -2.220446049250312292e-15 0 2.22044604925031245e-14 -10 0 forward_v I I I I #
coedge $-1 -1 $-1 $363 $446 $374 $435 reversed $201 $-1 #
straight-curve $-1 -1 $-1 35.59252791465080179 228.966442626579834 803 -9.848077530122088419 -1.736481776669255295 0 F -3.801010575152262483 F 5.279280078674645438 #
coedge $-1 -1 $-1 $392 $365 $383 $445 forward $322 $-1 #
point $-1 -1 $-1 30.59252791465080534 228.0848077230375281 803 #
point $-1 -1 $-1 32.32900969132005287 218.2367301929153882 813 #
coedge $-1 -1 $-1 $370 $369 $446 $489 forward $371 $-1 #
edge $-1 -1 $-1 $378 -0.7853981633974390641 $436 0.7853981633974597143 $429 $490 forward @7 unknown #
vertex $-1 -1 $-1 $489 $491 #
straight-curve $-1 -1 $-1 -2.919166136366927233 435.4153803886021592 780.5 -1.809062493752847788e-15 -3.189865274363567893e-16 -10 F -3.180000999999990086 F 1.680000999999990086 #
DXID-attrib $-1 -1 $-1 $-1 $377 @10 ASM ENTITY @36 6a818fb9-ff63-491a-b351-5144cd4ac245 #
straight-curve $-1 -1 $-1 32.32900969132006708 218.2367301929153882 803 -1.736481776669255073 9.848077530122088419 0 I I #
point $-1 -1 $-1 -5.352644862402780035 431.9400125965648272 803 #
vertex $-1 -1 $-1 $387 $492 #
straight-curve $-1 -1 $-1 1.171987345559788674 436.1367611296852829 795.5 7.289041614823457777e-16 1.285254700200137139e-16 10 F -3.180000999999990086 F 1.680000999999990086 #
DXID-attrib $-1 -1 $-1 $-1 $381 @10 ASM ENTITY @36 7fb8df06-8d9e-4ff7-a0b2-e56f9c42d8a1 #
cone-surface $-1 -1 $-1 1.692931878560563597 433.1823378706486096 795.5 -7.28904161482345753e-17 -1.285254700200137262e-17 -1 1.720729309053166567 2.457456132866956189 0 1 I I 0 1 3.000000000000000888 forward I I I I #
edge $493 -1 $-1 $367 81.29999999999999716 $481 105 $431 $181 forward @7 unknown #
coedge $-1 -1 $-1 $429 $384 $434 $489 reversed $201 $-1 #
ellipse-curve $-1 -1 $-1 1.692931878560564041 433.1823378706486096 803 -0 -0 -1 1.720729309053166567 2.457456132866956189 0 1 I I #
coedge $-1 -1 $-1 $418 $390 $392 $453 forward $450 $-1 #
coedge $-1 -1 $-1 $390 $494 $413 $477 forward $450 $-1 #
loop $-1 -1 $-1 $-1 $495 $496 #
DXID-attrib $-1 -1 $-1 $-1 $391 @10 ASM ENTITY @36 aae19cc0-5171-4fbe-856f-db95f5952318 #
straight-curve $-1 -1 $-1 84 5.621339458020870872 1050 -1.90808995376545032 9.816271834476639313 0 I I #
edge $497 -1 $-1 $394 0 $481 1.015426611885743124 $392 $498 forward @7 unknown #
point $-1 -1 $-1 42.32900969132005287 220 1050 #
DXID-attrib $-1 -1 $-1 $-1 $396 @10 ASM ENTITY @36 e0a98507-bf72-4ea2-992f-88be80e61cbe #
straight-curve $-1 -1 $-1 -5.873589395403566726 434.8944358556013867 277 9.848077530122088419 1.736481776669255295 0 I I #
DXID-attrib $-1 -1 $-1 $-1 $401 @10 ASM ENTITY @36 7a922db0-58ba-4b1d-8145-740fd8bd5e21 #
plane-surface $-1 -1 $-1 -0.8735893954035667264 435.7760707591437495 788 -0.1736481776669255017 0.9848077530122089085 0 0 0 10 forward_v I I I I #
coedge $-1 -1 $-1 $499 $500 $403 $460 forward $427 $-1 #
edge $501 -1 $-1 $502 0 $463 0.8000000000000002665 $459 $503 forward @7 unknown #
coedge $-1 -1 $-1 $404 $413 $499 $504 reversed $359 $-1 #
DXID-attrib $-1 -1 $-1 $-1 $405 @10 ASM ENTITY @36 7d711357-052d-477d-8404-895b431532f8 #
vertex $-1 -1 $-1 $405 $505 #
straight-curve $-1 -1 $-1 129.0000000000000284 21.99999999999999289 0 -9.396926207859083391 -3.420201433256689239 0 F 0 F 4.788799976141606685 #
coedge $-1 -1 $-1 $420 $406 $472 $506 forward $353 $-1 #
DXID-attrib $-1 -1 $-1 $-1 $407 @10 ASM ENTITY @36 5fdcffac-2f1c-4180-a9b9-d6e184ed4a81 #
vertex $-1 -1 $-1 $407 $507 #
straight-curve $-1 -1 $-1 0 0 0 10 0 0 F 0 F 13.20000000000000107 #
coedge $-1 -1 $-1 $508 $509 $408 $470 forward $487 $-1 #
edge $510 -1 $-1 $475 0 $502 0.3000000000000007105 $469 $511 forward @7 unknown #
coedge $-1 -1 $-1 $512 $409 $509 $513 forward $473 $-1 #
coedge $-1 -1 $-1 $409 $512 $465 $506 reversed $473 $-1 #
loop $-1 -1 $-1 $-1 $409 $486 #
DXID-attrib $-1 -1 $-1 $-1 $410 @10 ASM ENTITY @36 1195061c-583c-4e97-abd5-4d32f14cc4ee #
vertex $-1 -1 $-1 $470 $514 #
straight-curve $-1 -1 $-1 132 0 0 0 10 0 F 0 F 3 #
edge $515 -1 $-1 $516 0 $415 4.788799976141606685 $413 $517 forward @7 unknown #
point $-1 -1 $-1 84 5.621339458020870872 1050 #
coedge $-1 -1 $-1 $495 $418 $420 $483 forward $450 $-1 #
DXID-attrib $-1 -1 $-1 $-1 $419 @10 ASM ENTITY @36 f4c33725-e71b-4bbb-b0f4-aeb68aaadff4 #
vertex $-1 -1 $-1 $445 $518 #
straight-curve $-1 -1 $-1 32.32900969132005287 218.2367301929153882 1050 -1.465382036146118949 -9.892050115529150034 0 I I #
edge $519 -1 $-1 $422 0 $520 13.20000000000000107 $420 $521 forward @7 unknown #
point $-1 -1 $-1 0 0 1050 #
DXID-attrib $-1 -1 $-1 $-1 $426 @10 ASM ENTITY @36 cb003654-4c87-49bb-a900-3d2d8eacdfa5 #
face $522 -1 $-1 $496 $473 $5 $-1 $523 forward single #
loop $-1 -1 $-1 $-1 $469 $426 #
plane-surface $-1 -1 $-1 132 30 0 -1.480297366166871903e-15 1 0 -10 -1.480297366166872021e-14 0 forward_v I I I I #
edge $524 -1 $-1 $436 0.3000000000000015432 $441 0.715426611885742636 $446 $525 forward @7 unknown #
ellipse-curve $-1 -1 $-1 -2.398221603366151644 432.4609571295655996 803 -0 -0 -1 -2.457456132866989051 1.720729309053119938 0 1 I I #
point $-1 -1 $-1 -2.919166136366921904 435.4153803886021592 803 #
point $-1 -1 $-1 1.171987345559798444 436.1367611296851692 803 #
DXID-attrib $-1 -1 $-1 $-1 $445 @10 ASM ENTITY @36 850f063d-7b05-43b3-9252-c9a90b978068 #
coedge $-1 -1 $-1 $449 $526 $527 $528 forward $450 $-1 #
coedge $-1 -1 $-1 $526 $479 $512 $529 forward $450 $-1 #
face $530 -1 $-1 $338 $450 $5 $-1 $531 forward single #
DXID-attrib $-1 -1 $-1 $-1 $453 @10 ASM ENTITY @36 b6daf079-a1f6-43d2-94f8-5950ade806d2 #
straight-curve $-1 -1 $-1 42.32900969132004576 220 1050 -9.848077530122088419 -1.736481776669255295 0 I I #
coedge $-1 -1 $-1 $527 $459 $461 $504 forward $427 $-1 #
coedge $-1 -1 $-1 $459 $527 $508 $532 reversed $427 $-1 #
DXID-attrib $-1 -1 $-1 $-1 $460 @10 ASM ENTITY @36 e68fd664-9495-465d-a3c0-f50fc197b3e1 #
vertex $-1 -1 $-1 $460 $533 #
straight-curve $-1 -1 $-1 129 29.99999999999999645 0 2.22044604925031245e-14 -10 0 F 0 F 0.8000000000000002665 #
edge $534 -1 $-1 $463 0 $516 105 $499 $535 forward @7 unknown #
point $-1 -1 $-1 129.0000000000000284 21.99999999999999289 0 #
edge $536 -1 $-1 $467 0 $520 105 $472 $537 forward @7 unknown #
point $-1 -1 $-1 132 0 0 #
coedge $-1 -1 $-1 $538 $469 $500 $532 forward $487 $-1 #
coedge $-1 -1 $-1 $469 $538 $471 $513 reversed $487 $-1 #
DXID-attrib $-1 -1 $-1 $-1 $470 @10 ASM ENTITY @36 d3fd42e1-3350-439a-9663-594fe31e1fde #
straight-curve $-1 -1 $-1 132 30 0 -10 -1.480297366166872021e-14 0 F 0 F 0.3000000000000007105 #
coedge $-1 -1 $-1 $472 $471 $495 $529 reversed $473 $-1 #
edge $539 -1 $-1 $475 0 $540 105 $471 $541 forward @7 unknown #
point $-1 -1 $-1 132 30 0 #
DXID-attrib $-1 -1 $-1 $-1 $477 @10 ASM ENTITY @36 2d0dcc14-a342-4da9-a759-102b0bbe8a87 #
vertex $-1 -1 $-1 $477 $542 #
straight-curve $-1 -1 $-1 129.0000000000000284 21.99999999999999289 1050 -9.396926207859083391 -3.420201433256689239 0 I I #
point $-1 -1 $-1 32.32900969132005287 218.2367301929153882 1050 #
DXID-attrib $-1 -1 $-1 $-1 $483 @10 ASM ENTITY @36 4cc07357-0445-4ffe-8721-20b70998e0fd #
vertex $-1 -1 $-1 $506 $543 #
straight-curve $-1 -1 $-1 0 0 1050 10 0 0 I I #
DXID-attrib $-1 -1 $-1 $-1 $486 @10 ASM ENTITY @36 45b7b2ae-52b3-4a0d-af2b-0a12b27e2feb #
plane-surface $-1 -1 $-1 132 0 0 1 0 0 0 10 0 forward_v I I I I #
DXID-attrib $-1 -1 $-1 $-1 $489 @10 ASM ENTITY @36 e0dcaacd-8847-4d2a-bdfb-90983061c6ff #
straight-curve $-1 -1 $-1 -5.873589395403562285 434.8944358556013867 803 9.848077530122088419 1.736481776669255295 0 I I #
coedge $-1 -1 $-1 $494 $495 $538 $544 forward $450 $-1 #
coedge $-1 -1 $-1 $500 $499 $494 $528 reversed $427 $-1 #
edge $545 -1 $-1 $546 0 $516 0.8000000000000002665 $527 $547 forward @7 unknown #
edge $548 -1 $-1 $520 0 $540 3 $512 $549 forward @7 unknown #
DXID-attrib $-1 -1 $-1 $-1 $496 @10 ASM ENTITY @36 8318aea5-2093-451e-8c39-c5bd99614a37 #
plane-surface $-1 -1 $-1 66 110 1050 0 0 1 10 0 0 forward_v I I I I #
edge $550 -1 $-1 $502 0 $546 105 $508 $551 forward @7 unknown #
point $-1 -1 $-1 129 29.99999999999999645 0 #
DXID-attrib $-1 -1 $-1 $-1 $504 @10 ASM ENTITY @36 8b7e0e11-0972-461d-916a-a749396fca58 #
straight-curve $-1 -1 $-1 129.0000000000000284 21.99999999999999289 0 0 0 10 I I #
DXID-attrib $-1 -1 $-1 $-1 $506 @10 ASM ENTITY @36 6e1f145d-f731-48fc-b23f-4cfc345ceead #
straight-curve $-1 -1 $-1 132 0 0 0 0 10 I I #
coedge $-1 -1 $-1 $509 $508 $526 $544 reversed $487 $-1 #
DXID-attrib $-1 -1 $-1 $-1 $513 @10 ASM ENTITY @36 9bf4dc7e-4476-447a-838f-d52a2381e611 #
vertex $-1 -1 $-1 $544 $552 #
straight-curve $-1 -1 $-1 132 30 0 0 0 10 I I #
point $-1 -1 $-1 129.0000000000000284 21.99999999999999289 1050 #
point $-1 -1 $-1 132 0 1050 #
edge $553 -1 $-1 $540 0 $546 0.3000000000000007105 $538 $554 forward @7 unknown #
DXID-attrib $-1 -1 $-1 $-1 $528 @10 ASM ENTITY @36 54e5050c-84dc-4b59-86c6-0a9edae55bb2 #
vertex $-1 -1 $-1 $528 $555 #
straight-curve $-1 -1 $-1 129 29.99999999999999645 1050 2.22044604925031245e-14 -10 0 I I #
DXID-attrib $-1 -1 $-1 $-1 $529 @10 ASM ENTITY @36 982612b4-645e-40eb-9e13-10f255fc2018 #
straight-curve $-1 -1 $-1 132 0 1050 0 10 0 I I #
DXID-attrib $-1 -1 $-1 $-1 $532 @10 ASM ENTITY @36 8bd5b6a0-f923-4d99-a8c3-0202ffc929bb #
straight-curve $-1 -1 $-1 129 29.99999999999999645 0 0 0 10 I I #
point $-1 -1 $-1 132 30 1050 #
DXID-attrib $-1 -1 $-1 $-1 $544 @10 ASM ENTITY @36 9fa9236b-d9cb-4ac9-ba03-ffcfdb71ac26 #
straight-curve $-1 -1 $-1 132 30 1050 -10 -1.480297366166872021e-14 0 I I #
point $-1 -1 $-1 129 29.99999999999999645 1050 #
End-of-ACIS-data 