700 0 1 0           
30 Autodesk Translation Framework 20 ASM 226.0.3.65535 NT 24 Sun Aug  1 01:44:41 2021 
1 9.999999999999999547e-07 1.000000000000000036e-10 
body $1 -1 $-1 $2 $-1 $3 #
rgb_color-st-attrib $-1 -1 $4 $-1 $0 0.7490196078431372584 0.7490196078431372584 0.7490196078431372584 #
lump $-1 -1 $-1 $-1 $5 $0 #
transform $-1 -1 1 0 0 0 1 0 0 0 1 0 0 0 1 no_rotate no_reflect no_shear #
DXID-attrib $-1 -1 $-1 $1 $0 @10 ASM ENTITY @101 SOSTENEDOR1.IPT|:|5971F627F38A04EEA01E5D1B46CC1B5212E72B7F|:|DA4B9237BACCCDF19C0760CAB7AEC4A8359010B0 #
shell $-1 -1 $-1 $-1 $-1 $6 $-1 $2 #
face $7 -1 $-1 $8 $9 $5 $-1 $10 forward single #
DXID-attrib $-1 -1 $-1 $-1 $6 @10 ASM ENTITY @36 2d3aa2f7-9130-4af7-9951-b6545a5f7d12 #
face $11 -1 $-1 $12 $13 $5 $-1 $14 forward single #
loop $-1 -1 $-1 $-1 $15 $6 #
cone-surface $-1 -1 $-1 37.00338760409235306 229.8480775301221115 237.0000000000000284 0.9848077530122083534 0.1736481776669287491 0 1.227878039689721978 -6.963642403200180908 7.071067811865484387 1 I I 0 -1 10 forward I I I I #
DXID-attrib $-1 -1 $-1 $-1 $8 @10 ASM ENTITY @36 aa0db3d9-b639-48a0-89de-c40b6cd433b8 #
face $16 -1 $-1 $17 $18 $5 $-1 $19 forward single #
loop $-1 -1 $-1 $-1 $20 $8 #
plane-surface $-1 -1 $-1 38.73986938076181019 220.0000000000000284 247.0000000000000284 0 0 -1 -9.84807753012208309 -1.736481776669287269 -0 forward_v I I I I #
coedge $-1 -1 $-1 $21 $22 $23 $24 reversed $9 $-1 #
DXID-attrib $-1 -1 $-1 $-1 $12 @10 ASM ENTITY @36 bc11a9f5-9778-440b-a43f-52a08b6fc8db #
face $25 -1 $-1 $26 $27 $5 $-1 $28 forward single #
loop $-1 -1 $-1 $-1 $29 $12 #
cone-surface $-1 -1 $-1 37.00338760409235306 229.8480775301221115 763 0.9848077530122083534 0.1736481776669287491 0 1.227878039689721978 -6.963642403200180908 7.071067811865484387 1 I I 0 -1 10 forward I I I I #
coedge $-1 -1 $-1 $30 $31 $21 $32 reversed $13 $-1 #
coedge $-1 -1 $-1 $33 $15 $20 $32 forward $9 $-1 #
coedge $-1 -1 $-1 $15 $33 $34 $35 forward $9 $-1 #
coedge $-1 -1 $-1 $36 $37 $15 $24 forward $38 $-1 #
edge $-1 -1 $-1 $39 -0.7853981633974469467 $40 0.7853981633974497223 $15 $41 reversed @7 unknown #
DXID-attrib $-1 -1 $-1 $-1 $17 @10 ASM ENTITY @36 7f7f1774-833b-42d9-8cf9-944eb6effde3 #
face $42 -1 $-1 $43 $44 $5 $-1 $45 forward single #
loop $-1 -1 $-1 $-1 $46 $17 #
plane-surface $-1 -1 $-1 38.7398693807618173 220.0000000000000284 773 0 0 -1 -9.84807753012208309 -1.736481776669287269 -0 forward_v I I I I #
coedge $-1 -1 $-1 $47 $48 $49 $50 reversed $18 $-1 #
coedge $-1 -1 $-1 $51 $20 $37 $52 forward $13 $-1 #
coedge $-1 -1 $-1 $20 $53 $54 $55 reversed $13 $-1 #
edge $-1 -1 $-1 $39 -1.015426611885762442 $56 1.679859464100414641e-14 $20 $57 forward @7 tangent #
coedge $-1 -1 $-1 $22 $21 $58 $59 forward $9 $-1 #
coedge $-1 -1 $-1 $60 $61 $22 $35 reversed $62 $-1 #
edge $-1 -1 $-1 $63 1.723593713789355236e-14 $40 1.015426611885761998 $34 $64 forward @7 tangent #
coedge $-1 -1 $-1 $65 $23 $66 $67 forward $38 $-1 #
coedge $-1 -1 $-1 $23 $68 $30 $52 reversed $38 $-1 #
loop $-1 -1 $-1 $-1 $68 $69 #
vertex $-1 -1 $-1 $24 $70 #
vertex $-1 -1 $-1 $24 $71 #
ellipse-curve $-1 -1 $-1 27.00338760409217542 228.0848077230374429 237.0000000000000284 -0.9848077530122083534 -0.1736481776669287491 6.731872517336356924e-18 1.227878039689721978 -6.963642403200180908 7.071067811865484387 1 I I #
DXID-attrib $-1 -1 $-1 $-1 $26 @10 ASM ENTITY @36 a93277de-46f6-4024-aa7c-88159e04dd34 #
face $72 -1 $-1 $73 $74 $5 $-1 $75 forward single #
loop $-1 -1 $-1 $-1 $76 $26 #
cone-surface $-1 -1 $-1 32.00338760409218253 228.9664426265797488 287 -0.9848077530122083534 -0.1736481776669287491 0 1.22787803968971776 -6.963642403200206665 -7.071067811865460406 1 I I 0 -1 10 forward I I I I #
coedge $-1 -1 $-1 $77 $78 $47 $79 reversed $27 $-1 #
coedge $-1 -1 $-1 $80 $29 $46 $79 forward $18 $-1 #
coedge $-1 -1 $-1 $29 $80 $81 $82 forward $18 $-1 #
coedge $-1 -1 $-1 $83 $84 $29 $50 forward $85 $-1 #
edge $-1 -1 $-1 $86 -0.7853981633974469467 $87 0.7853981633974497223 $29 $88 reversed @7 unknown #
coedge $-1 -1 $-1 $89 $30 $90 $91 reversed $13 $-1 #
edge $92 -1 $-1 $39 1.000000000000004219 $93 21.69999999999999218 $30 $94 forward @7 unknown #
coedge $-1 -1 $-1 $31 $89 $95 $96 reversed $13 $-1 #
coedge $-1 -1 $-1 $97 $58 $31 $55 forward $98 $-1 #
edge $99 -1 $-1 $56 1.000000000000004219 $100 21.70000000000000284 $54 $101 forward @7 unknown #
vertex $-1 -1 $-1 $32 $102 #
straight-curve $-1 -1 $-1 37.00338760409235306 229.8480775301221115 247.0000000000000284 9.84807753012208309 1.736481776669287491 0 F -5.786993384617605152 F 3.293297269209412459 #
coedge $-1 -1 $-1 $54 $103 $33 $59 reversed $98 $-1 #
edge $-1 -1 $-1 $56 -0.7853981633974471688 $63 0.7853981633974497223 $33 $104 forward @7 unknown #
coedge $-1 -1 $-1 $105 $34 $103 $106 reversed $62 $-1 #
coedge $-1 -1 $-1 $34 $105 $107 $108 forward $62 $-1 #
loop $-1 -1 $-1 $-1 $34 $109 #
vertex $-1 -1 $-1 $59 $110 #
straight-curve $-1 -1 $-1 38.73986938076163966 220.0000000000000284 237.0000000000000284 -9.84807753012208309 -1.736481776669287491 -0 F -3.293297269209412459 F 5.786993384617605152 #
coedge $-1 -1 $-1 $111 $36 $76 $112 reversed $38 $-1 #
coedge $-1 -1 $-1 $107 $113 $36 $67 reversed $114 $-1 #
edge $-1 -1 $-1 $40 23.70000000000000284 $115 28.70000000000000284 $66 $116 forward @7 unknown #
coedge $-1 -1 $-1 $37 $111 $117 $118 reversed $38 $-1 #
face $119 -1 $-1 $120 $38 $5 $-1 $121 forward single #
point $-1 -1 $-1 27.00338760409217542 228.0848077230374429 247.0000000000000284 #
point $-1 -1 $-1 28.73986938076146913 218.2367301929153598 237.0000000000000284 #
DXID-attrib $-1 -1 $-1 $-1 $43 @10 ASM ENTITY @36 0a5e804c-7901-4f28-bf83-7925260466f5 #
face $122 -1 $-1 $123 $124 $5 $-1 $125 forward single #
loop $-1 -1 $-1 $-1 $126 $43 #
plane-surface $-1 -1 $-1 28.73986938076147268 218.2367301929153314 277 0 0 1 9.84807753012208309 1.736481776669287491 0 forward_v I I I I #
coedge $-1 -1 $-1 $127 $128 $65 $112 forward $44 $-1 #
coedge $-1 -1 $-1 $129 $46 $84 $130 forward $27 $-1 #
coedge $-1 -1 $-1 $46 $131 $132 $133 reversed $27 $-1 #
edge $-1 -1 $-1 $86 -1.015426611885762442 $134 1.767327963478295831e-14 $46 $135 forward @7 tangent #
coedge $-1 -1 $-1 $48 $47 $136 $137 forward $18 $-1 #
coedge $-1 -1 $-1 $138 $139 $48 $82 reversed $140 $-1 #
edge $-1 -1 $-1 $141 1.723593713789355236e-14 $87 1.015426611885761998 $81 $142 forward @7 tangent #
coedge $-1 -1 $-1 $143 $49 $144 $145 forward $85 $-1 #
coedge $-1 -1 $-1 $49 $146 $77 $130 reversed $85 $-1 #
loop $-1 -1 $-1 $-1 $146 $147 #
vertex $-1 -1 $-1 $50 $148 #
vertex $-1 -1 $-1 $50 $149 #
ellipse-curve $-1 -1 $-1 27.00338760409218253 228.0848077230374429 763 -0.9848077530122083534 -0.1736481776669287491 1.836970198721028948e-16 1.227878039689721978 -6.963642403200180908 7.071067811865484387 1 I I #
coedge $-1 -1 $-1 $53 $51 $150 $151 reversed $13 $-1 #
coedge $-1 -1 $-1 $117 $152 $51 $91 forward $153 $-1 #
edge $-1 -1 $-1 $154 -0.7853981633974337351 $93 0.7853981633974652654 $51 $155 forward @7 unknown #
DXID-attrib $-1 -1 $-1 $-1 $52 @10 ASM ENTITY @36 80cbcef0-aae1-40ea-9951-84bb5f9a1636 #
vertex $-1 -1 $-1 $52 $156 #
straight-curve $-1 -1 $-1 28.73986938076147268 218.2367301929153314 247.0000000000000284 -1.736481776669287491 9.84807753012208309 0 I I #
coedge $-1 -1 $-1 $157 $158 $53 $96 forward $159 $-1 #
edge $-1 -1 $-1 $100 -0.7853981633974340681 $160 0.7853981633974586041 $53 $161 forward @7 unknown #
coedge $-1 -1 $-1 $162 $54 $158 $163 reversed $98 $-1 #
loop $-1 -1 $-1 $-1 $97 $164 #
DXID-attrib $-1 -1 $-1 $-1 $55 @10 ASM ENTITY @36 d0eebf6d-54fe-44f5-873a-84b561af5baf #
vertex $-1 -1 $-1 $96 $165 #
straight-curve $-1 -1 $-1 38.73986938076181019 220.0000000000000284 247.0000000000000284 -1.736481776669287491 9.84807753012208309 0 I I #
point $-1 -1 $-1 37.00338760409251648 229.8480775301221684 247.0000000000000284 #
coedge $-1 -1 $-1 $58 $166 $60 $106 forward $98 $-1 #
ellipse-curve $-1 -1 $-1 37.00338760409252359 229.8480775301221684 237.0000000000000284 0.9848077530122081313 0.1736481776669303589 0 1.227878039689721978 -6.963642403200180908 7.071067811865484387 1 I I #
coedge $-1 -1 $-1 $61 $60 $167 $168 forward $62 $-1 #
edge $169 -1 $-1 $170 0 $63 23.70000000000000284 $103 $171 forward @7 unknown #
coedge $-1 -1 $-1 $172 $66 $61 $108 reversed $114 $-1 #
edge $173 -1 $-1 $174 0 $40 23.70000000000000284 $61 $116 forward @7 unknown #
face $175 -1 $-1 $176 $62 $5 $-1 $177 forward single #
point $-1 -1 $-1 38.73986938076146913 220 237.0000000000000284 #
coedge $-1 -1 $-1 $68 $65 $178 $179 forward $38 $-1 #
edge $-1 -1 $-1 $180 -0.7853981633974503884 $115 0.7853981633974460586 $76 $181 forward @7 unknown #
coedge $-1 -1 $-1 $66 $144 $139 $182 reversed $114 $-1 #
loop $-1 -1 $-1 $-1 $172 $183 #
vertex $-1 -1 $-1 $112 $184 #
straight-curve $-1 -1 $-1 28.73986938076146913 218.2367301929153598 0 0 0 10 I I #
coedge $-1 -1 $-1 $185 $90 $68 $118 forward $153 $-1 #
edge $-1 -1 $-1 $93 -0.75 $186 2.25 $68 $187 forward @7 tangent #
DXID-attrib $-1 -1 $-1 $-1 $69 @10 ASM ENTITY @36 7eaf12c4-afba-466b-8fb0-37f39af9132c #
face $188 -1 $-1 $164 $159 $5 $-1 $189 forward single #
plane-surface $-1 -1 $-1 28.73986938076147268 218.2367301929153314 247.0000000000000284 -0.9848077530122083534 -0.1736481776669287491 6.731872517336356924e-18 6.629600247362656055e-17 1.168977394921538246e-17 10 forward_v I I I I #
DXID-attrib $-1 -1 $-1 $-1 $73 @10 ASM ENTITY @36 de4198c0-dcd0-43ac-83cf-0c77b1692f82 #
face $190 -1 $-1 $191 $192 $5 $-1 $193 forward single #
loop $-1 -1 $-1 $-1 $194 $73 #
cone-surface $-1 -1 $-1 32.00338760409218253 228.9664426265797488 813 -0.9848077530122083534 -0.1736481776669287491 0 1.227878039689711764 -6.963642403200207553 -7.071067811865461294 1 I I 0 -1 10 forward I I I I #
coedge $-1 -1 $-1 $195 $178 $128 $196 reversed $74 $-1 #
coedge $-1 -1 $-1 $197 $76 $198 $199 forward $44 $-1 #
coedge $-1 -1 $-1 $76 $197 $126 $196 forward $44 $-1 #
coedge $-1 -1 $-1 $200 $77 $201 $202 reversed $27 $-1 #
edge $203 -1 $-1 $86 1.000000000000004219 $204 21.69999999999999218 $77 $205 forward @7 unknown #
coedge $-1 -1 $-1 $78 $200 $206 $207 reversed $27 $-1 #
coedge $-1 -1 $-1 $208 $136 $78 $133 forward $98 $-1 #
edge $209 -1 $-1 $134 1.000000000000004219 $210 21.70000000000000284 $132 $211 forward @7 unknown #
vertex $-1 -1 $-1 $79 $212 #
straight-curve $-1 -1 $-1 37.00338760409235306 229.8480775301221115 773 9.84807753012208309 1.736481776669287491 0 F -5.786993384617604264 F 3.293297269209412459 #
coedge $-1 -1 $-1 $132 $213 $80 $137 reversed $98 $-1 #
edge $-1 -1 $-1 $134 -0.7853981633974469467 $141 0.7853981633974497223 $80 $214 forward @7 unknown #
coedge $-1 -1 $-1 $198 $81 $213 $215 reversed $140 $-1 #
coedge $-1 -1 $-1 $81 $198 $113 $182 forward $140 $-1 #
loop $-1 -1 $-1 $-1 $81 $176 #
vertex $-1 -1 $-1 $137 $216 #
straight-curve $-1 -1 $-1 38.73986938076163966 220.0000000000000284 763 -9.84807753012208309 -1.736481776669287491 -0 F -3.293297269209412459 F 5.786993384617604264 #
coedge $-1 -1 $-1 $217 $83 $194 $218 reversed $85 $-1 #
coedge $-1 -1 $-1 $113 $219 $83 $145 reversed $114 $-1 #
edge $-1 -1 $-1 $87 76.29999999999999716 $220 81.29999999999999716 $144 $116 forward @7 unknown #
coedge $-1 -1 $-1 $84 $217 $221 $222 reversed $85 $-1 #
face $223 -1 $-1 $224 $85 $5 $-1 $225 forward single #
point $-1 -1 $-1 27.00338760409217542 228.0848077230374429 773 #
point $-1 -1 $-1 28.73986938076146913 218.2367301929153598 763 #
coedge $-1 -1 $-1 $226 $227 $89 $151 forward $228 $-1 #
edge $229 -1 $-1 $160 0.3000000000000708766 $154 0.7154266118857794954 $89 $230 forward @7 unknown #
coedge $-1 -1 $-1 $90 $185 $226 $231 forward $153 $-1 #
loop $-1 -1 $-1 $-1 $185 $191 #
vertex $-1 -1 $-1 $91 $232 #
ellipse-curve $-1 -1 $-1 -5.987361913925431267 432.4609571295652586 247.0000000000000284 0 0 1 -2.457456132866944643 1.720729309053182998 0 1 I I #
point $-1 -1 $-1 -8.94178517296205122 431.9400125965644293 247.0000000000000284 #
coedge $-1 -1 $-1 $233 $95 $227 $234 forward $159 $-1 #
coedge $-1 -1 $-1 $95 $233 $97 $163 forward $159 $-1 #
loop $-1 -1 $-1 $-1 $95 $120 #
vertex $-1 -1 $-1 $151 $235 #
ellipse-curve $-1 -1 $-1 -1.896208431999038435 433.1823378706483254 247.0000000000000284 0 0 1 1.720729309053159684 2.45745613286696063 0 1 I I #
coedge $-1 -1 $-1 $236 $97 $195 $237 reversed $98 $-1 #
edge $-1 -1 $-1 $238 -14.60000000000000142 $100 -11.60000000000000142 $97 $239 forward @7 tangent #
face $240 -1 $-1 $241 $98 $5 $-1 $242 forward single #
point $-1 -1 $-1 1.058214827038268524 433.7032824036492684 247.0000000000000284 #
coedge $-1 -1 $-1 $103 $243 $244 $245 forward $98 $-1 #
coedge $-1 -1 $-1 $244 $246 $105 $168 reversed $247 $-1 #
edge $248 -1 $-1 $170 0 $174 1.015426611885744679 $105 $249 forward @7 unknown #
DXID-attrib $-1 -1 $-1 $-1 $106 @10 ASM ENTITY @36 0ddc3f24-5b72-404f-8973-13152360794c #
vertex $-1 -1 $-1 $245 $250 #
straight-curve $-1 -1 $-1 38.73986938076146913 220 0 0 0 10 I I #
coedge $-1 -1 $-1 $251 $107 $246 $252 forward $114 $-1 #
DXID-attrib $-1 -1 $-1 $-1 $108 @10 ASM ENTITY @36 ca6e93b7-12a0-4dd4-927b-c05663f5f37e #
vertex $-1 -1 $-1 $168 $253 #
DXID-attrib $-1 -1 $-1 $-1 $109 @10 ASM ENTITY @36 a3520dfb-3349-490e-b26d-3880ea718d3d #
face $254 -1 $-1 $255 $140 $5 $-1 $177 forward single #
plane-surface $-1 -1 $-1 38.73986938076146913 220 0 -0.1736481776669287491 0.9848077530122083534 0 -9.84807753012208309 -1.736481776669287491 0 forward_v I I I I #
coedge $-1 -1 $-1 $126 $256 $111 $179 reversed $74 $-1 #
edge $257 -1 $-1 $180 1.000000000000004219 $186 21.69999999999999218 $178 $258 forward @7 unknown #
vertex $-1 -1 $-1 $112 $259 #
ellipse-curve $-1 -1 $-1 27.00338760409218253 228.0848077230374429 287 -0.9848077530122083534 -0.1736481776669287491 6.731872517336356924e-18 1.22787803968971776 -6.963642403200206665 -7.071067811865460406 1 I I #
edge $260 -1 $-1 $115 28.70000000000000284 $87 76.29999999999999716 $139 $116 forward @7 unknown #
face $261 -1 $-1 $262 $114 $5 $-1 $263 forward single #
point $-1 -1 $-1 28.73986938076146913 218.2367301929153598 287 #
coedge $-1 -1 $-1 $152 $117 $256 $264 forward $153 $-1 #
vertex $-1 -1 $-1 $264 $265 #
straight-curve $-1 -1 $-1 -8.941785172962049444 431.9400125965644293 254.5000000000000284 6.629600247362656055e-17 1.168977394921538554e-17 10 F -1.680001000000000744 F 3.180001000000000744 #
DXID-attrib $-1 -1 $-1 $-1 $120 @10 ASM ENTITY @36 8e7f384d-6528-4870-bb3f-18c504384858 #
cone-surface $-1 -1 $-1 -1.896208431999038435 433.1823378706483254 131 0 0 -1 1.720729309053159684 2.45745613286696063 0 1 I I 0 1 3.000000000000000444 forward I I I I #
DXID-attrib $-1 -1 $-1 $-1 $123 @10 ASM ENTITY @36 792fc269-45ba-4cb0-947a-50caf5eb9127 #
face $266 -1 $-1 $69 $153 $5 $-1 $267 forward single #
loop $-1 -1 $-1 $-1 $268 $123 #
plane-surface $-1 -1 $-1 28.73986938076148334 218.2367301929153314 803 0 0 1 9.84807753012208309 1.736481776669287491 0 forward_v I I I I #
coedge $-1 -1 $-1 $269 $270 $143 $218 forward $124 $-1 #
coedge $-1 -1 $-1 $271 $126 $162 $237 forward $74 $-1 #
edge $-1 -1 $-1 $272 -0.5077133059429069784 $180 0.5077133059428720063 $126 $273 forward @7 tangent #
coedge $-1 -1 $-1 $128 $127 $236 $274 forward $44 $-1 #
coedge $-1 -1 $-1 $139 $138 $127 $199 reversed $140 $-1 #
edge $-1 -1 $-1 $115 -0.5077133059428720063 $275 0.5077133059428726725 $198 $276 forward @7 tangent #
coedge $-1 -1 $-1 $131 $129 $277 $278 reversed $27 $-1 #
coedge $-1 -1 $-1 $221 $279 $129 $202 forward $280 $-1 #
edge $-1 -1 $-1 $281 -0.785398163397433513 $204 0.7853981633974651544 $129 $282 forward @7 unknown #
DXID-attrib $-1 -1 $-1 $-1 $130 @10 ASM ENTITY @36 06250d7f-77a3-450c-9def-d108cc8106f9 #
vertex $-1 -1 $-1 $130 $283 #
straight-curve $-1 -1 $-1 28.73986938076147268 218.2367301929153314 773 -1.736481776669287491 9.84807753012208309 0 I I #
coedge $-1 -1 $-1 $284 $285 $131 $207 forward $286 $-1 #
edge $-1 -1 $-1 $210 -0.7853981633974344012 $287 0.7853981633974586041 $131 $288 forward @7 unknown #
coedge $-1 -1 $-1 $289 $132 $285 $290 reversed $98 $-1 #
DXID-attrib $-1 -1 $-1 $-1 $133 @10 ASM ENTITY @36 64793f92-68cc-42e5-9419-71bd7c26ae97 #
vertex $-1 -1 $-1 $207 $291 #
straight-curve $-1 -1 $-1 38.7398693807618173 220.0000000000000284 773 -1.736481776669287491 9.84807753012208309 0 I I #
point $-1 -1 $-1 37.00338760409252359 229.8480775301221684 773 #
coedge $-1 -1 $-1 $136 $236 $138 $215 forward $98 $-1 #
ellipse-curve $-1 -1 $-1 37.00338760409252359 229.8480775301221684 763 0.9848077530122081313 0.1736481776669303589 0 1.227878039689721978 -6.963642403200180908 7.071067811865484387 1 I I #
edge $292 -1 $-1 $275 28.70000000000000284 $141 76.29999999999999716 $213 $171 forward @7 unknown #
point $-1 -1 $-1 38.73986938076146913 220 763 #
coedge $-1 -1 $-1 $146 $143 $293 $294 forward $85 $-1 #
edge $-1 -1 $-1 $295 -0.7853981633974503884 $220 0.7853981633974462806 $194 $296 forward @7 unknown #
coedge $-1 -1 $-1 $144 $297 $298 $299 reversed $114 $-1 #
vertex $-1 -1 $-1 $218 $300 #
coedge $-1 -1 $-1 $301 $201 $146 $222 forward $280 $-1 #
edge $-1 -1 $-1 $204 -0.75 $302 2.25 $146 $303 forward @7 tangent #
DXID-attrib $-1 -1 $-1 $-1 $147 @10 ASM ENTITY @36 de4221c7-a252-45ad-8079-254775a5e8cc #
face $304 -1 $-1 $109 $305 $5 $-1 $177 forward single #
plane-surface $-1 -1 $-1 28.73986938076147624 218.2367301929153314 773 -0.9848077530122083534 -0.1736481776669287491 1.836970198721028948e-16 1.80906249375284621e-15 3.189865274363627057e-16 10 forward_v I I I I #
coedge $-1 -1 $-1 $306 $150 $152 $231 reversed $228 $-1 #
coedge $-1 -1 $-1 $150 $306 $157 $234 reversed $228 $-1 #
loop $-1 -1 $-1 $-1 $226 $307 #
DXID-attrib $-1 -1 $-1 $-1 $151 @10 ASM ENTITY @36 cb527eea-179e-4a55-af9d-26e8152c9a06 #
straight-curve $-1 -1 $-1 0.5372702940374818326 436.6577056626858848 247.0000000000000284 -9.84807753012208309 -1.736481776669287269 -0 I I #
edge $-1 -1 $-1 $308 -2.25 $154 0.75 $226 $309 forward @7 tangent #
point $-1 -1 $-1 -6.508306446926239275 435.4153803886020455 247.0000000000000284 #
coedge $-1 -1 $-1 $158 $157 $271 $310 forward $159 $-1 #
edge $-1 -1 $-1 $160 11.60000000000000142 $311 14.60000000000000142 $227 $312 forward @7 tangent #
point $-1 -1 $-1 -2.417152964999838005 436.1367611296849987 247.0000000000000284 #
coedge $-1 -1 $-1 $213 $162 $197 $274 reversed $98 $-1 #
edge $313 -1 $-1 $272 1.000000000000000666 $238 21.70000000000000284 $195 $314 forward @7 unknown #
vertex $-1 -1 $-1 $237 $315 #
straight-curve $-1 -1 $-1 1.058214827037584183 433.7032824036491547 131 0 0 -10 F -92.23000099999998724 F 13.43000100000000074 #
DXID-attrib $-1 -1 $-1 $-1 $164 @10 ASM ENTITY @36 f0e7e098-7e12-484e-848c-8561f36a7344 #
face $316 -1 $-1 $317 $280 $5 $-1 $318 forward single #
plane-surface $-1 -1 $-1 76.51861003422644103 5.746114963951626464 0 0.9848077530122081313 0.1736481776669303589 0 -1.736481776669303478 9.848077530122081313 0 forward_v I I I I #
coedge $-1 -1 $-1 $166 $319 $320 $321 reversed $98 $-1 #
coedge $-1 -1 $-1 $322 $167 $166 $245 reversed $247 $-1 #
edge $323 -1 $-1 $324 0 $170 21.75590965655124975 $166 $325 forward @7 unknown #
coedge $-1 -1 $-1 $167 $326 $172 $252 reversed $247 $-1 #
loop $-1 -1 $-1 $-1 $327 $328 #
DXID-attrib $-1 -1 $-1 $-1 $168 @10 ASM ENTITY @36 8e8f7afc-dc77-4dbe-aecd-48fd60fdfcba #
straight-curve $-1 -1 $-1 38.73986938076146913 220 0 -9.84807753012208309 -1.736481776669287491 0 F 0 F 1.015426611885744679 #
point $-1 -1 $-1 38.73986938076146913 220 0 #
coedge $-1 -1 $-1 $297 $172 $329 $330 forward $114 $-1 #
edge $331 -1 $-1 $174 0 $332 22.01209905877187367 $172 $333 forward @7 unknown #
point $-1 -1 $-1 28.73986938076146913 218.2367301929153598 0 #
DXID-attrib $-1 -1 $-1 $-1 $176 @10 ASM ENTITY @36 2bf43a89-0200-4bde-bdab-17cf945319cb #
face $334 -1 $-1 $183 $335 $5 $-1 $336 forward single #
coedge $-1 -1 $-1 $178 $337 $185 $264 reversed $74 $-1 #
DXID-attrib $-1 -1 $-1 $-1 $179 @10 ASM ENTITY @36 d25c9c53-57f8-476a-be21-72f1a5f7dc55 #
straight-curve $-1 -1 $-1 28.73986938076147268 218.2367301929153314 277 -1.736481776669287491 9.84807753012208309 0 I I #
point $-1 -1 $-1 27.00338760409218253 228.0848077230374429 277 #
DXID-attrib $-1 -1 $-1 $-1 $182 @10 ASM ENTITY @36 32056dea-2a0f-4dad-b988-89bc6869509d #
DXID-attrib $-1 -1 $-1 $-1 $183 @10 ASM ENTITY @36 6c0760fa-de30-4de5-ac64-6f0141d3d7ae #
face $338 -1 $-1 $339 $340 $5 $-1 $341 forward single #
plane-surface $-1 -1 $-1 28.73986938076146913 218.2367301929153598 0 -0.9914398877191473725 0.1305639653175582338 0 -1.305639653175582282 -9.914398877191473503 0 forward_v I I I I #
edge $-1 -1 $-1 $186 -0.7853981633974652654 $308 0.7853981633974325138 $256 $342 forward @7 unknown #
point $-1 -1 $-1 -8.94178517296205122 431.9400125965644293 277 #
DXID-attrib $-1 -1 $-1 $-1 $191 @10 ASM ENTITY @36 275fb250-1e11-4bb3-ac68-0125a583dee4 #
cone-surface $-1 -1 $-1 -5.987361913925431267 432.4609571295652586 254.5000000000000284 6.629600247362656209e-18 1.168977394921538516e-18 1 -2.457456132866944643 1.720729309053182998 0 1 I I 0 1 3.000000000000000444 forward I I I I #
coedge $-1 -1 $-1 $343 $293 $270 $344 reversed $192 $-1 #
coedge $-1 -1 $-1 $345 $194 $346 $347 forward $124 $-1 #
coedge $-1 -1 $-1 $194 $345 $268 $344 forward $124 $-1 #
coedge $-1 -1 $-1 $337 $195 $233 $310 reversed $74 $-1 #
vertex $-1 -1 $-1 $274 $348 #
straight-curve $-1 -1 $-1 32.00338760409218253 228.9664426265797488 277 -9.84807753012208309 -1.736481776669287491 0 F -3.801010575152302007 F 5.279280078674715604 #
edge $-1 -1 $-1 $275 -0.7853981633974461696 $272 0.7853981633974503884 $197 $349 forward @7 unknown #
vertex $-1 -1 $-1 $199 $350 #
straight-curve $-1 -1 $-1 33.73986938076146913 219.1183650964576657 287 9.84807753012208309 1.736481776669287491 0 F -5.279280078674715604 F 3.801010575152302007 #
coedge $-1 -1 $-1 $351 $352 $200 $278 forward $353 $-1 #
edge $354 -1 $-1 $287 0.3000000000000708766 $281 0.7154266118857788292 $200 $355 forward @7 unknown #
coedge $-1 -1 $-1 $201 $301 $351 $356 forward $280 $-1 #
loop $-1 -1 $-1 $-1 $301 $241 #
vertex $-1 -1 $-1 $202 $357 #
ellipse-curve $-1 -1 $-1 -5.987361913925424162 432.4609571295652586 773 0 0 1 -2.457456132866944198 1.720729309053184108 0 1 I I #
point $-1 -1 $-1 -8.94178517296205122 431.9400125965644293 773 #
coedge $-1 -1 $-1 $358 $206 $352 $359 forward $286 $-1 #
coedge $-1 -1 $-1 $206 $358 $208 $290 forward $286 $-1 #
loop $-1 -1 $-1 $-1 $358 $360 #
vertex $-1 -1 $-1 $278 $361 #
ellipse-curve $-1 -1 $-1 -1.896208431999038435 433.1823378706483254 773 0 0 1 1.720729309053159684 2.45745613286696063 0 1 I I #
coedge $-1 -1 $-1 $362 $208 $343 $363 reversed $98 $-1 #
edge $-1 -1 $-1 $364 -40.89999999999999858 $210 -37.89999999999999858 $208 $365 forward @7 tangent #
point $-1 -1 $-1 1.058214827038272965 433.7032824036492684 773 #
DXID-attrib $-1 -1 $-1 $-1 $215 @10 ASM ENTITY @36 52167827-66bc-43b1-8924-7f516c00036a #
coedge $-1 -1 $-1 $268 $366 $217 $294 reversed $192 $-1 #
edge $367 -1 $-1 $295 1.000000000000004219 $302 21.69999999999999218 $293 $368 forward @7 unknown #
vertex $-1 -1 $-1 $218 $369 #
ellipse-curve $-1 -1 $-1 27.00338760409218608 228.0848077230374429 813 -0.9848077530122083534 -0.1736481776669287491 1.836970198721028948e-16 1.227878039689711764 -6.963642403200207553 -7.071067811865461294 1 I I #
coedge $-1 -1 $-1 $219 $251 $370 $371 reversed $114 $-1 #
coedge $-1 -1 $-1 $372 $346 $219 $299 forward $305 $-1 #
edge $373 -1 $-1 $220 81.29999999999999716 $374 105 $298 $116 forward @7 unknown #
point $-1 -1 $-1 28.73986938076146913 218.2367301929153598 813 #
coedge $-1 -1 $-1 $279 $221 $366 $375 forward $280 $-1 #
vertex $-1 -1 $-1 $375 $376 #
straight-curve $-1 -1 $-1 -8.941785172962040562 431.9400125965644293 780.5 1.80906249375284621e-15 3.189865274363626564e-16 10 F -1.680000999999990086 F 3.180000999999990086 #
DXID-attrib $-1 -1 $-1 $-1 $224 @10 ASM ENTITY @36 510edd3d-09af-44a3-90d6-cd71394cba4a #
loop $-1 -1 $-1 $-1 $346 $224 #
coedge $-1 -1 $-1 $227 $226 $337 $377 forward $228 $-1 #
face $378 -1 $-1 $147 $228 $5 $-1 $379 forward single #
vertex $-1 -1 $-1 $377 $380 #
straight-curve $-1 -1 $-1 -6.508306446926230393 435.4153803886019887 254.5000000000000284 -6.629600247362656055e-17 -1.168977394921538554e-17 -10 F -3.180001000000000744 F 1.680001000000000744 #
edge $-1 -1 $-1 $311 -0.7853981633974559395 $238 0.7853981633974344012 $271 $381 forward @7 unknown #
vertex $-1 -1 $-1 $310 $382 #
straight-curve $-1 -1 $-1 -2.417152964999822018 436.1367611296849418 131 0 0 10 F -13.43000100000000074 F 92.23000099999998724 #
DXID-attrib $-1 -1 $-1 $-1 $237 @10 ASM ENTITY @36 bbe8cf94-b6e1-4d7f-b0ed-88378d3e3bee #
straight-curve $-1 -1 $-1 38.7398693807618173 220.0000000000000284 277 -1.736481776669287491 9.84807753012208309 0 I I #
point $-1 -1 $-1 1.058214827038272965 433.7032824036492684 277 #
DXID-attrib $-1 -1 $-1 $-1 $241 @10 ASM ENTITY @36 f278f490-f324-4315-8645-4167f383ce09 #
face $383 -1 $-1 $360 $353 $5 $-1 $384 forward single #
cone-surface $-1 -1 $-1 -5.987361913925423273 432.4609571295652586 780.5 1.809062493752846309e-16 3.189865274363626441e-17 1 -2.457456132866944198 1.720729309053184108 0 1 I I 0 1 3.000000000000000888 forward I I I I #
coedge $-1 -1 $-1 $243 $385 $386 $387 reversed $98 $-1 #
coedge $-1 -1 $-1 $388 $389 $243 $321 forward $340 $-1 #
edge $390 -1 $-1 $324 0 $391 105 $320 $392 forward @7 unknown #
coedge $-1 -1 $-1 $393 $244 $389 $394 reversed $247 $-1 #
DXID-attrib $-1 -1 $-1 $-1 $245 @10 ASM ENTITY @36 91829c2e-bd00-4c88-97de-b8ee51cc274a #
vertex $-1 -1 $-1 $321 $395 #
straight-curve $-1 -1 $-1 76.51861003422644103 5.746114963951626464 0 -1.736481776669303478 9.848077530122081313 0 F 0 F 21.75590965655124975 #
coedge $-1 -1 $-1 $246 $327 $396 $397 reversed $247 $-1 #
coedge $-1 -1 $-1 $326 $398 $399 $400 reversed $247 $-1 #
face $401 -1 $-1 $-1 $247 $5 $-1 $402 reversed single #
coedge $-1 -1 $-1 $396 $403 $251 $330 reversed $335 $-1 #
edge $404 -1 $-1 $332 0 $405 105 $251 $406 forward @7 unknown #
DXID-attrib $-1 -1 $-1 $-1 $252 @10 ASM ENTITY @36 df430ada-4ca0-4310-a566-a3b34d732cb1 #
vertex $-1 -1 $-1 $397 $407 #
straight-curve $-1 -1 $-1 28.73986938076146913 218.2367301929153598 0 -1.305639653175582282 -9.914398877191473503 0 F 0 F 22.01209905877187367 #
DXID-attrib $-1 -1 $-1 $-1 $255 @10 ASM ENTITY @36 79062cc9-b431-4778-8509-f20dcbc16986 #
loop $-1 -1 $-1 $-1 $396 $255 #
plane-surface $-1 -1 $-1 0 0 0 0 -1 0 10 0 0 forward_v I I I I #
coedge $-1 -1 $-1 $256 $271 $306 $377 reversed $74 $-1 #
DXID-attrib $-1 -1 $-1 $-1 $262 @10 ASM ENTITY @36 6cb53448-b172-4963-b7ea-eff63a48f18d #
face $408 -1 $-1 $409 $410 $5 $-1 $411 forward single #
loop $-1 -1 $-1 $-1 $389 $262 #
plane-surface $-1 -1 $-1 129.0000000000000284 15.00000000000000711 0 -0.1736481776669302757 0.9848077530122081313 0 -9.848077530122081313 -1.736481776669302812 0 forward_v I I I I #
ellipse-curve $-1 -1 $-1 -5.987361913925431267 432.4609571295652586 277 -0 -0 -1 -2.457456132866944643 1.720729309053182998 0 1 I I #
coedge $-1 -1 $-1 $412 $268 $289 $363 forward $192 $-1 #
edge $-1 -1 $-1 $413 -0.5077133059429065343 $295 0.5077133059428715622 $268 $414 forward @7 tangent #
coedge $-1 -1 $-1 $270 $269 $362 $415 forward $124 $-1 #
coedge $-1 -1 $-1 $298 $416 $269 $347 reversed $305 $-1 #
edge $-1 -1 $-1 $220 -0.5077133059428724504 $417 0.5077133059428722284 $346 $418 forward @7 tangent #
point $-1 -1 $-1 37.00338760409252359 229.8480775301221115 277 #
ellipse-curve $-1 -1 $-1 37.00338760409252359 229.8480775301221115 287 0.9848077530122081313 0.1736481776669303589 0 1.22787803968971776 -6.963642403200206665 -7.071067811865460406 1 I I #
point $-1 -1 $-1 38.73986938076146913 220 287 #
coedge $-1 -1 $-1 $419 $277 $279 $356 reversed $353 $-1 #
coedge $-1 -1 $-1 $277 $419 $284 $359 reversed $353 $-1 #
loop $-1 -1 $-1 $-1 $351 $317 #
DXID-attrib $-1 -1 $-1 $-1 $278 @10 ASM ENTITY @36 44ff3275-f516-4ae1-9682-f2a086342d12 #
straight-curve $-1 -1 $-1 0.5372702940374818326 436.6577056626858848 773 -9.84807753012208309 -1.736481776669287269 -0 I I #
edge $-1 -1 $-1 $420 -2.25 $281 0.75 $351 $421 forward @7 tangent #
point $-1 -1 $-1 -6.508306446926233058 435.4153803886020455 773 #
coedge $-1 -1 $-1 $285 $284 $412 $422 forward $286 $-1 #
edge $-1 -1 $-1 $287 37.89999999999999858 $423 40.89999999999999858 $352 $424 forward @7 tangent #
face $425 -1 $-1 $307 $286 $5 $-1 $426 forward single #
point $-1 -1 $-1 -2.417152964999838005 436.1367611296849987 773 #
coedge $-1 -1 $-1 $385 $289 $345 $415 reversed $98 $-1 #
edge $427 -1 $-1 $413 1.000000000000000666 $364 21.70000000000000284 $343 $428 forward @7 unknown #
vertex $-1 -1 $-1 $363 $429 #
straight-curve $-1 -1 $-1 1.058214827037584183 433.7032824036491547 394 0 0 -10 F -65.9300010000000043 F 39.73000100000000145 #
coedge $-1 -1 $-1 $293 $430 $301 $375 reversed $192 $-1 #
DXID-attrib $-1 -1 $-1 $-1 $294 @10 ASM ENTITY @36 5cc994ae-2fc1-4007-bbcc-b273d478468d #
straight-curve $-1 -1 $-1 28.73986938076148334 218.2367301929153314 803 -1.736481776669287491 9.84807753012208309 0 I I #
point $-1 -1 $-1 27.00338760409218963 228.0848077230374429 803 #
coedge $-1 -1 $-1 $431 $432 $297 $371 forward $433 $-1 #
edge $434 -1 $-1 $374 0 $405 22.01209905877187367 $297 $435 forward @7 unknown #
coedge $-1 -1 $-1 $416 $298 $432 $436 reversed $305 $-1 #
DXID-attrib $-1 -1 $-1 $-1 $299 @10 ASM ENTITY @36 0b8674d5-5997-4b91-afae-1d71a76e826f #
vertex $-1 -1 $-1 $299 $437 #
edge $-1 -1 $-1 $302 -0.7853981633974652654 $420 0.7853981633974318477 $366 $438 forward @7 unknown #
point $-1 -1 $-1 -8.941785172962042338 431.9400125965644293 803 #
edge $439 -1 $-1 $308 0.2999999999999996003 $311 0.7154266118857092183 $337 $440 forward @7 unknown #
DXID-attrib $-1 -1 $-1 $-1 $307 @10 ASM ENTITY @36 41b8a224-cc7b-45b7-9b23-bcb09dee4364 #
plane-surface $-1 -1 $-1 -4.46272970596268248 435.7760707591435221 262 -0.1736481776669287491 0.9848077530122083534 0 0 0 10 forward_v I I I I #
point $-1 -1 $-1 -6.508306446926230393 435.4153803886019887 277 #
ellipse-curve $-1 -1 $-1 -1.896208431999038435 433.1823378706483254 277 -0 -0 -1 1.720729309053159684 2.45745613286696063 0 1 I I #
point $-1 -1 $-1 -2.417152964999830012 436.1367611296849987 277 #
DXID-attrib $-1 -1 $-1 $-1 $317 @10 ASM ENTITY @36 67c07b7e-99d9-4e98-b000-b9edcfde49d4 #
plane-surface $-1 -1 $-1 -4.46272970596268248 435.7760707591435221 788 -0.1736481776669287491 0.9848077530122083534 0 0 0 10 forward_v I I I I #
coedge $-1 -1 $-1 $319 $362 $416 $441 forward $98 $-1 #
coedge $-1 -1 $-1 $432 $442 $319 $387 forward $433 $-1 #
edge $443 -1 $-1 $391 0 $444 21.75590965655124975 $319 $445 forward @7 unknown #
coedge $-1 -1 $-1 $446 $320 $442 $447 reversed $340 $-1 #
coedge $-1 -1 $-1 $320 $446 $322 $394 forward $340 $-1 #
DXID-attrib $-1 -1 $-1 $-1 $321 @10 ASM ENTITY @36 83c090ef-68a8-4b89-b6cd-eba020b7182e #
vertex $-1 -1 $-1 $387 $448 #
straight-curve $-1 -1 $-1 76.51861003422644103 5.746114963951626464 0 0 0 10 I I #
coedge $-1 -1 $-1 $398 $322 $449 $450 reversed $247 $-1 #
edge $451 -1 $-1 $452 0 $324 5.329100000000000392 $389 $453 forward @7 unknown #
point $-1 -1 $-1 76.51861003422644103 5.746114963951626464 0 #
coedge $-1 -1 $-1 $454 $329 $326 $397 forward $335 $-1 #
edge $455 -1 $-1 $332 0 $456 13.20000000000000107 $396 $457 forward @7 unknown #
coedge $-1 -1 $-1 $327 $393 $458 $459 reversed $247 $-1 #
coedge $-1 -1 $-1 $460 $461 $327 $400 forward $462 $-1 #
edge $463 -1 $-1 $456 0 $464 2.300000000000000266 $399 $465 forward @7 unknown #
DXID-attrib $-1 -1 $-1 $-1 $328 @10 ASM ENTITY @36 3a9e97a5-3f50-4be2-adc2-47a09ecb82fe #
plane-surface $-1 -1 $-1 66 110 0 0 0 1 10 0 0 forward_v I I I I #
coedge $-1 -1 $-1 $329 $454 $431 $466 reversed $335 $-1 #
DXID-attrib $-1 -1 $-1 $-1 $330 @10 ASM ENTITY @36 063f6bdd-9bf6-45f7-a6ff-96db4139f48d #
vertex $-1 -1 $-1 $466 $467 #
straight-curve $-1 -1 $-1 0 0 0 0 0 10 I I #
point $-1 -1 $-1 0 0 0 #
DXID-attrib $-1 -1 $-1 $-1 $339 @10 ASM ENTITY @36 146ec599-2ee2-48a2-97b5-868f002e9add #
face $468 -1 $-1 $469 $470 $5 $-1 $471 forward single #
loop $-1 -1 $-1 $-1 $449 $339 #
plane-surface $-1 -1 $-1 129 23.00000000000000711 0 -1 -2.220446049250313081e-15 0 2.220446049250313081e-14 -10 0 forward_v I I I I #
coedge $-1 -1 $-1 $430 $343 $358 $422 reversed $192 $-1 #
vertex $-1 -1 $-1 $415 $472 #
straight-curve $-1 -1 $-1 32.00338760409218253 228.9664426265797488 803 -9.84807753012208309 -1.736481776669287491 0 F -3.801010575152301563 F 5.279280078674714716 #
edge $-1 -1 $-1 $417 -0.7853981633974463916 $413 0.7853981633974504994 $345 $473 forward @7 unknown #
coedge $-1 -1 $-1 $346 $372 $385 $441 reversed $305 $-1 #
vertex $-1 -1 $-1 $347 $474 #
straight-curve $-1 -1 $-1 33.73986938076147624 219.1183650964576657 813 9.84807753012208309 1.736481776669287491 0 F -5.279280078674714716 F 3.801010575152301563 #
coedge $-1 -1 $-1 $352 $351 $430 $475 forward $353 $-1 #
vertex $-1 -1 $-1 $475 $476 #
straight-curve $-1 -1 $-1 -6.508306446926223288 435.4153803886019887 780.5 -1.80906249375284621e-15 -3.189865274363626564e-16 -10 F -3.180000999999990086 F 1.680000999999990086 #
edge $-1 -1 $-1 $423 -0.7853981633974559395 $364 0.7853981633974344012 $412 $477 forward @7 unknown #
vertex $-1 -1 $-1 $422 $478 #
straight-curve $-1 -1 $-1 -2.417152964999822018 436.1367611296849418 394 0 0 10 F -39.73000100000000145 F 65.9300010000000043 #
DXID-attrib $-1 -1 $-1 $-1 $360 @10 ASM ENTITY @36 70aee1c3-6533-468e-a7ad-e88b35fd6cf5 #
cone-surface $-1 -1 $-1 -1.896208431999038435 433.1823378706483254 394 0 0 -1 1.720729309053159684 2.45745613286696063 0 1 I I 0 1 3.000000000000000444 forward I I I I #
DXID-attrib $-1 -1 $-1 $-1 $363 @10 ASM ENTITY @36 5e607551-7493-4fb6-bd1a-6a349ce5725d #
straight-curve $-1 -1 $-1 38.7398693807618173 220.0000000000000284 803 -1.736481776669287491 9.84807753012208309 0 I I #
point $-1 -1 $-1 1.058214827038272965 433.7032824036492684 803 #
coedge $-1 -1 $-1 $366 $412 $419 $475 reversed $192 $-1 #
coedge $-1 -1 $-1 $479 $370 $403 $466 forward $433 $-1 #
coedge $-1 -1 $-1 $370 $386 $372 $436 forward $433 $-1 #
loop $-1 -1 $-1 $-1 $479 $480 #
DXID-attrib $-1 -1 $-1 $-1 $371 @10 ASM ENTITY @36 5a267b33-8867-427f-9f34-f8313df373bc #
straight-curve $-1 -1 $-1 28.73986938076146913 218.2367301929153598 1050 -1.305639653175582282 -9.914398877191473503 0 I I #
edge $481 -1 $-1 $444 0 $374 1.015426611885744679 $372 $482 forward @7 unknown #
point $-1 -1 $-1 28.73986938076146913 218.2367301929153598 1050 #
ellipse-curve $-1 -1 $-1 -5.987361913925418833 432.4609571295652586 803 -0 -0 -1 -2.457456132866944198 1.720729309053184108 0 1 I I #
DXID-attrib $-1 -1 $-1 $-1 $377 @10 ASM ENTITY @36 6d05114b-de09-48fc-badc-7f5cf57cf465 #
straight-curve $-1 -1 $-1 -9.462729705962850346 434.8944358556011593 277 9.84807753012208309 1.736481776669287491 0 I I #
edge $483 -1 $-1 $417 81.29999999999999716 $444 105 $385 $171 forward @7 unknown #
coedge $-1 -1 $-1 $386 $484 $388 $447 forward $433 $-1 #
DXID-attrib $-1 -1 $-1 $-1 $387 @10 ASM ENTITY @36 b4a3d01c-9ea3-4241-bee8-a8d5019f4779 #
vertex $-1 -1 $-1 $441 $485 #
straight-curve $-1 -1 $-1 76.51861003422644103 5.746114963951626464 1050 -1.736481776669303478 9.848077530122081313 0 I I #
coedge $-1 -1 $-1 $389 $388 $486 $487 reversed $340 $-1 #
edge $488 -1 $-1 $489 0 $391 5.329100000000000392 $388 $490 forward @7 unknown #
point $-1 -1 $-1 76.51861003422644103 5.746114963951626464 1050 #
coedge $-1 -1 $-1 $486 $491 $393 $450 forward $410 $-1 #
edge $492 -1 $-1 $493 0 $452 0.8000000000000000444 $449 $494 forward @7 unknown #
DXID-attrib $-1 -1 $-1 $-1 $394 @10 ASM ENTITY @36 29798e19-4ac8-4b69-88c0-0d23b1326a81 #
vertex $-1 -1 $-1 $394 $495 #
straight-curve $-1 -1 $-1 129.0000000000000284 15.00000000000000711 0 -9.848077530122081313 -1.736481776669302812 0 F 0 F 5.329100000000000392 #
coedge $-1 -1 $-1 $403 $396 $461 $496 forward $335 $-1 #
DXID-attrib $-1 -1 $-1 $-1 $397 @10 ASM ENTITY @36 b54b8192-f872-4db9-a633-8576d014c006 #
vertex $-1 -1 $-1 $397 $497 #
straight-curve $-1 -1 $-1 0 0 0 10 0 0 F 0 F 13.20000000000000107 #
coedge $-1 -1 $-1 $498 $499 $398 $459 forward $470 $-1 #
edge $500 -1 $-1 $464 0 $493 0.3000000000000007105 $458 $501 forward @7 unknown #
coedge $-1 -1 $-1 $502 $399 $499 $503 forward $462 $-1 #
coedge $-1 -1 $-1 $399 $502 $454 $496 reversed $462 $-1 #
loop $-1 -1 $-1 $-1 $399 $469 #
DXID-attrib $-1 -1 $-1 $-1 $400 @10 ASM ENTITY @36 9bbfabdd-22a2-4ca0-9596-457a63f129bd #
vertex $-1 -1 $-1 $459 $504 #
straight-curve $-1 -1 $-1 132 0 0 0 10 0 F 0 F 2.300000000000000266 #
edge $505 -1 $-1 $405 0 $506 13.20000000000000107 $403 $507 forward @7 unknown #
point $-1 -1 $-1 0 0 1050 #
DXID-attrib $-1 -1 $-1 $-1 $409 @10 ASM ENTITY @36 585eb052-4ea6-4105-8f48-a42d20efc2fb #
face $508 -1 $-1 $480 $462 $5 $-1 $509 forward single #
loop $-1 -1 $-1 $-1 $458 $409 #
plane-surface $-1 -1 $-1 132 23.00000000000000355 0 1.480297366166871903e-15 1 0 -10 1.480297366166872021e-14 0 forward_v I I I I #
point $-1 -1 $-1 37.00338760409252359 229.8480775301221115 803 #
ellipse-curve $-1 -1 $-1 37.00338760409253069 229.8480775301221115 813 0.9848077530122081313 0.1736481776669303589 0 1.227878039689711764 -6.963642403200207553 -7.071067811865461294 1 I I #
point $-1 -1 $-1 38.73986938076146913 220 813 #
edge $510 -1 $-1 $420 0.3000000000000002109 $423 0.7154266118857087742 $430 $511 forward @7 unknown #
point $-1 -1 $-1 -6.508306446926219735 435.4153803886019887 803 #
ellipse-curve $-1 -1 $-1 -1.896208431999038435 433.1823378706483254 803 -0 -0 -1 1.720729309053159684 2.45745613286696063 0 1 I I #
point $-1 -1 $-1 -2.417152964999830012 436.1367611296849987 803 #
coedge $-1 -1 $-1 $512 $431 $502 $513 forward $433 $-1 #
face $514 -1 $-1 $328 $433 $5 $-1 $515 forward single #
DXID-attrib $-1 -1 $-1 $-1 $436 @10 ASM ENTITY @36 60742a58-20a0-4ca4-b286-d4a336272060 #
straight-curve $-1 -1 $-1 38.73986938076146913 220 1050 -9.84807753012208309 -1.736481776669287491 0 I I #
DXID-attrib $-1 -1 $-1 $-1 $441 @10 ASM ENTITY @36 dbb945f1-e898-4489-af27-ef245ea02a20 #
coedge $-1 -1 $-1 $442 $512 $516 $517 forward $433 $-1 #
point $-1 -1 $-1 38.73986938076146913 220 1050 #
coedge $-1 -1 $-1 $516 $449 $446 $487 forward $410 $-1 #
edge $518 -1 $-1 $452 0 $489 105 $486 $519 forward @7 unknown #
DXID-attrib $-1 -1 $-1 $-1 $447 @10 ASM ENTITY @36 48396dcd-fbac-486c-98d2-52a000914db8 #
vertex $-1 -1 $-1 $447 $520 #
straight-curve $-1 -1 $-1 129.0000000000000284 15.00000000000000711 1050 -9.848077530122081313 -1.736481776669302812 0 I I #
coedge $-1 -1 $-1 $449 $516 $498 $521 reversed $410 $-1 #
DXID-attrib $-1 -1 $-1 $-1 $450 @10 ASM ENTITY @36 79d7ec36-092f-4206-ad41-97ee90ad04fc #
vertex $-1 -1 $-1 $450 $522 #
straight-curve $-1 -1 $-1 129 23.00000000000000711 0 2.220446049250313081e-14 -10 0 F 0 F 0.8000000000000000444 #
point $-1 -1 $-1 129.0000000000000284 15.00000000000000711 0 #
edge $523 -1 $-1 $456 0 $506 105 $461 $524 forward @7 unknown #
point $-1 -1 $-1 132 0 0 #
coedge $-1 -1 $-1 $525 $458 $491 $521 forward $470 $-1 #
coedge $-1 -1 $-1 $458 $525 $460 $503 reversed $470 $-1 #
DXID-attrib $-1 -1 $-1 $-1 $459 @10 ASM ENTITY @36 07c98bb9-0ff6-4859-b049-98dec74f8b3e #
straight-curve $-1 -1 $-1 132 23.00000000000000355 0 -10 1.480297366166872021e-14 0 F 0 F 0.3000000000000007105 #
coedge $-1 -1 $-1 $461 $460 $479 $513 reversed $462 $-1 #
edge $526 -1 $-1 $464 0 $527 105 $460 $528 forward @7 unknown #
point $-1 -1 $-1 132 23.00000000000000355 0 #
DXID-attrib $-1 -1 $-1 $-1 $466 @10 ASM ENTITY @36 3997adf0-0b2b-4ec1-b4cb-b5ab4fc9876f #
vertex $-1 -1 $-1 $496 $529 #
straight-curve $-1 -1 $-1 0 0 1050 10 0 0 I I #
DXID-attrib $-1 -1 $-1 $-1 $469 @10 ASM ENTITY @36 3eaa3a0b-be1b-4d5d-8c66-bfcff67e9f39 #
plane-surface $-1 -1 $-1 132 0 0 1 0 0 0 10 0 forward_v I I I I #
DXID-attrib $-1 -1 $-1 $-1 $475 @10 ASM ENTITY @36 5379562c-6975-4aba-9b9a-7ee30ed453e1 #
straight-curve $-1 -1 $-1 -9.462729705962846793 434.8944358556011593 803 9.84807753012208309 1.736481776669287491 0 I I #
coedge $-1 -1 $-1 $484 $479 $525 $530 forward $433 $-1 #
edge $531 -1 $-1 $506 0 $527 2.300000000000000266 $502 $532 forward @7 unknown #
DXID-attrib $-1 -1 $-1 $-1 $480 @10 ASM ENTITY @36 489336e9-0eee-42d5-bc41-4ad7f9686dc8 #
plane-surface $-1 -1 $-1 66 110 1050 0 0 1 10 0 0 forward_v I I I I #
coedge $-1 -1 $-1 $491 $486 $484 $517 reversed $410 $-1 #
edge $533 -1 $-1 $534 0 $489 0.8000000000000000444 $516 $535 forward @7 unknown #
DXID-attrib $-1 -1 $-1 $-1 $487 @10 ASM ENTITY @36 c79e0960-1b18-49a2-a79e-801ff46cf4de #
straight-curve $-1 -1 $-1 129.0000000000000284 15.00000000000000711 0 0 0 10 I I #
point $-1 -1 $-1 129.0000000000000284 15.00000000000000711 1050 #
edge $536 -1 $-1 $493 0 $534 105 $498 $537 forward @7 unknown #
point $-1 -1 $-1 129 23.00000000000000711 0 #
DXID-attrib $-1 -1 $-1 $-1 $496 @10 ASM ENTITY @36 05f6eb17-2506-49a0-aa54-9f414b164efe #
straight-curve $-1 -1 $-1 132 0 0 0 0 10 I I #
coedge $-1 -1 $-1 $499 $498 $512 $530 reversed $470 $-1 #
DXID-attrib $-1 -1 $-1 $-1 $503 @10 ASM ENTITY @36 a254cfc7-14e7-4e1b-8ea1-1d926f2653d6 #
vertex $-1 -1 $-1 $530 $538 #
straight-curve $-1 -1 $-1 132 23.00000000000000355 0 0 0 10 I I #
point $-1 -1 $-1 132 0 1050 #
edge $539 -1 $-1 $527 0 $534 0.3000000000000007105 $525 $540 forward @7 unknown #
DXID-attrib $-1 -1 $-1 $-1 $513 @10 ASM ENTITY @36 c325e3e8-6b25-4ca4-875c-c0711a7acda5 #
straight-curve $-1 -1 $-1 132 0 1050 0 10 0 I I #
DXID-attrib $-1 -1 $-1 $-1 $517 @10 ASM ENTITY @36 58c5c6f3-da6e-458f-bc00-95240feba104 #
vertex $-1 -1 $-1 $517 $541 #
straight-curve $-1 -1 $-1 129 23.00000000000000711 1050 2.220446049250313081e-14 -10 0 I I #
DXID-attrib $-1 -1 $-1 $-1 $521 @10 ASM ENTITY @36 a99788b5-a804-439d-8cfe-5824eac92d7c #
straight-curve $-1 -1 $-1 129 23.00000000000000711 0 0 0 10 I I #
point $-1 -1 $-1 132 23.00000000000000355 1050 #
DXID-attrib $-1 -1 $-1 $-1 $530 @10 ASM ENTITY @36 8c3cef8d-51c4-4dfa-815e-2c53332a413a #
straight-curve $-1 -1 $-1 132 23.00000000000000355 1050 -10 1.480297366166872021e-14 0 I I #
point $-1 -1 $-1 129 23.00000000000000711 1050 #
End-of-ACIS-data 